<?xml version="1.0" encoding="UTF-8" standalone="no"?>
<!-- Generator: Adobe Illustrator 16.0.0, SVG Export Plug-In . SVG Version: 6.00 Build 0)  -->

<svg
   xmlns:dc="http://purl.org/dc/elements/1.1/"
   xmlns:cc="http://creativecommons.org/ns#"
   xmlns:rdf="http://www.w3.org/1999/02/22-rdf-syntax-ns#"
   xmlns:svg="http://www.w3.org/2000/svg"
   xmlns="http://www.w3.org/2000/svg"
   xmlns:xlink="http://www.w3.org/1999/xlink"
   xmlns:sodipodi="http://sodipodi.sourceforge.net/DTD/sodipodi-0.dtd"
   xmlns:inkscape="http://www.inkscape.org/namespaces/inkscape"
   version="1.1"
   x="0px"
   y="0px"
   width="200"
   height="240"
   viewBox="0 0 200 240"
   enable-background="new 0 0 150 200"
   xml:space="preserve"
   id="svg3501"
   inkscape:version="0.48.2 r9819"
   sodipodi:docname="char-punk.svg"><metadata
     id="metadata3577"><rdf:RDF><cc:Work
         rdf:about=""><dc:format>image/svg+xml</dc:format><dc:type
           rdf:resource="http://purl.org/dc/dcmitype/StillImage" /><dc:title /></cc:Work></rdf:RDF></metadata><defs
     id="defs3575" /><sodipodi:namedview
     pagecolor="#ffffff"
     bordercolor="#666666"
     borderopacity="1"
     objecttolerance="10"
     gridtolerance="10"
     guidetolerance="10"
     inkscape:pageopacity="0"
     inkscape:pageshadow="2"
     inkscape:window-width="1240"
     inkscape:window-height="975"
     id="namedview3573"
     showgrid="false"
     inkscape:zoom="3.6322377"
     inkscape:cx="101.34723"
     inkscape:cy="83.768511"
     inkscape:window-x="0"
     inkscape:window-y="0"
     inkscape:window-maximized="0"
     inkscape:current-layer="layer3"
     showguides="true"
     inkscape:guide-bbox="true" /><g
     id="Layer_1"
     display="none"
     style="display:none"
     transform="translate(0,40)">
	
		<image
   sodipodi:absref="/Users/max/work/keyfight/graphics/characters/../../../tmp/inspiration/bighead1.jpg"
   xlink:href="../../../tmp/inspiration/bighead1.jpg"
   style="display:inline;overflow:visible"
   display="inline"
   overflow="visible"
   width="128"
   height="232"
   transform="translate(11.5,-20.3335)"
   id="image3504">
	</image>
</g><g
     id="eyes-hit"
     display="none"
     style="display:none"
     transform="translate(0,40)">
	<g
   display="inline"
   id="g3540"
   style="display:inline">
		<g
   id="g3542">
			<path
   d="m 32.18,91.841 c 5.342,-4.599 10.684,-9.198 16.025,-13.796 1.303,-1.122 -0.588,-2.995 -1.882,-1.882 -5.342,4.599 -10.684,9.198 -16.025,13.796 -1.302,1.122 0.589,2.996 1.882,1.882 l 0,0 z"
   id="path3544"
   inkscape:connector-curvature="0" />
		</g>
	</g>
	<g
   display="inline"
   id="g3546"
   style="display:inline">
		<g
   id="g3548">
			<path
   d="M 48.454,89.953 C 43.032,85.354 37.609,80.755 32.187,76.157 c -1.31,-1.111 -3.216,0.776 -1.896,1.896 5.422,4.599 10.845,9.198 16.267,13.796 1.311,1.11 3.217,-0.777 1.896,-1.896 l 0,0 z"
   id="path3550"
   inkscape:connector-curvature="0" />
		</g>
	</g>
	<g
   display="inline"
   id="g3552"
   style="display:inline">
		<g
   id="g3554">
			<path
   d="m 63.289,91.277 c 5.342,-4.599 10.684,-9.197 16.025,-13.796 1.303,-1.122 -0.588,-2.995 -1.881,-1.882 -5.342,4.599 -10.684,9.197 -16.026,13.796 -1.303,1.122 0.589,2.996 1.882,1.882 l 0,0 z"
   id="path3556"
   inkscape:connector-curvature="0" />
		</g>
	</g>
	<g
   display="inline"
   id="g3558"
   style="display:inline">
		<g
   id="g3560">
			<path
   d="M 79.564,89.389 C 74.141,84.79 68.719,80.192 63.296,75.593 c -1.31,-1.111 -3.216,0.776 -1.896,1.896 5.422,4.599 10.845,9.197 16.267,13.796 1.311,1.111 3.217,-0.777 1.897,-1.896 l 0,0 z"
   id="path3562"
   inkscape:connector-curvature="0" />
		</g>
	</g>
</g><g
     id="mouth-open"
     display="none"
     style="display:none"
     transform="translate(0,40)">
	<path
   display="inline"
   stroke-miterlimit="10"
   d="m 28.396,106.623 c 5.983,-0.047 23.021,10.672 24.602,1.321 1.411,-8.349 -7.78,-9.425 -15.469,-9.13 -7.688,0.295 -9.133,-0.024 -9.133,-0.024"
   id="path3565"
   inkscape:connector-curvature="0"
   style="fill:#ffffff;stroke:#000000;stroke-width:2.66109991;stroke-miterlimit:10;display:inline" />
</g><g
     id="mouth-hit"
     display="none"
     style="display:none"
     transform="translate(0,40)">
	<path
   display="inline"
   stroke-miterlimit="10"
   d="m 27.503,103.144 c 15.18,-3.031 27.749,-1.211 39.523,3.958"
   id="path3571"
   inkscape:connector-curvature="0"
   style="fill:none;stroke:#000000;stroke-width:2.66109991;stroke-miterlimit:10;display:inline" />
</g><g
     inkscape:groupmode="layer"
     id="layer1"
     inkscape:label="torso"
     style="display:inline"
     transform="translate(0,40)"><path
       style="fill:#f1e8d9;stroke:#000000;stroke-width:2.66109991;stroke-miterlimit:10"
       inkscape:connector-curvature="0"
       id="path3517-3"
       d="m 109.42776,150.011 c -0.206,3.008 1.775,13.012 3.845,13.603 2.07,0.591 11.826,2.068 13.896,1.478 2.07,-0.59 7.413,-7.706 7.365,-15.141"
       stroke-miterlimit="10" /><path
       style="fill:#4d4d4d;fill-opacity:1;stroke:#000000;stroke-width:2.66109991;stroke-miterlimit:10"
       inkscape:connector-curvature="0"
       id="path3519-3"
       d="m 134.53376,149.951 c -0.016,-2.382 -0.86,-7.923 -1.155,-11.175 -0.295,-3.254 -2.365,-12.124 -2.957,-13.602 -0.592,-1.479 -5.409,-6.174 -5.409,-6.174 l -14.124,4.028 c -1.138,7.513 -1.63,15.742 -1.461,26.982 0.022,1.431 25.106,-0.059 25.106,-0.059 z"
       stroke-miterlimit="10" /><g
       style="fill:#4d4d4d;fill-opacity:1;display:inline"
       id="torso-5"
       transform="matrix(-1,0,0,1,177.21676,4)"><path
         stroke-miterlimit="10"
         d="m 47.691908,153.50938 c 0.296,5.618 1.493092,6.94362 1.493092,6.94362 l 60.04,0 c 0,0 -1.513,-42.284 -3.461,-44.255 -1.948,-1.972 -52.077263,1.89293 -52.077263,1.89293 0,0 -6.290829,29.80145 -5.994829,35.41845 z"
         id="path3522-8"
         inkscape:connector-curvature="0"
         style="fill:#4d4d4d;fill-opacity:1;stroke:#000000;stroke-width:2.66109991;stroke-miterlimit:10"
         sodipodi:nodetypes="sccccs" /></g><path
       style="fill:#f1e8d9;stroke:#000000;stroke-width:2.66109991;stroke-miterlimit:10"
       inkscape:connector-curvature="0"
       id="path3525-8"
       d="m 88.98676,149.236 c 0.206,3.008 -1.774,13.012 -3.845,13.603 -2.069,0.591 -11.826,2.068 -13.896,1.478 -2.07,-0.59 -7.412,-7.705 -7.364,-15.14"
       stroke-miterlimit="10" /><path
       style="fill:#4d4d4d;fill-opacity:1;stroke:#000000;stroke-width:2.66109991;stroke-miterlimit:10"
       inkscape:connector-curvature="0"
       id="path3527-1"
       d="m 63.88176,149.176 c 0.016,-2.383 0.859,-7.923 1.155,-11.176 0.295,-3.253 2.365,-12.124 2.956,-13.602 0.592,-1.479 5.409,-6.173 5.409,-6.173 l 14.125,4.027 c 1.137,7.514 1.63,15.743 1.46,26.982 -0.021,1.433 -25.105,-0.058 -25.105,-0.058 z"
       stroke-miterlimit="10" /><path
       inkscape:connector-curvature="0"
       style="fill:#ffffff;fill-opacity:1;stroke:#000000;stroke-width:0.76523292;stroke-miterlimit:4;stroke-dasharray:none"
       d="m 99.793349,133.60169 c -0.342721,0 -0.695044,0.12107 -0.956539,0.38262 -0.326852,0.32686 -0.416507,0.77362 -0.33479,1.19568 -0.428285,-0.0905 -0.910892,0.05 -1.243506,0.38261 -0.522975,0.52298 -0.522975,1.34228 0,1.86526 0.522974,0.52297 1.390119,0.52297 1.913086,0 0.103914,-0.10393 0.176518,-0.2103 0.239136,-0.33479 l 5.452274,5.45228 0.95655,-0.95654 -5.45228,-5.45228 c 0.12442,-0.0626 0.23086,-0.13529 0.33479,-0.23914 0.52297,-0.52297 0.52297,-1.3901 0,-1.91308 -0.26148,-0.26149 -0.56599,-0.38262 -0.908721,-0.38262 z m 16.643821,0 c -0.34273,0 -0.69505,0.12107 -0.95654,0.38262 -0.52297,0.52298 -0.52297,1.39011 0,1.91308 0.10391,0.10392 0.21031,0.17652 0.33478,0.23914 l -5.45228,5.45228 0.95654,0.95654 5.45229,-5.45228 c 0.0626,0.12443 0.13529,0.23085 0.23913,0.33479 0.52298,0.52297 1.39012,0.52297 1.91308,0 0.52297,-0.52298 0.52297,-1.34228 0,-1.86526 -0.32684,-0.32686 -0.77362,-0.46432 -1.19567,-0.38261 0.0817,-0.42206 -0.0557,-0.86882 -0.38262,-1.19568 -0.26147,-0.26149 -0.56598,-0.38262 -0.90871,-0.38262 z m -11.57416,10.13934 -5.452274,5.45228 c -0.06261,-0.12442 -0.135141,-0.23086 -0.239136,-0.33479 -0.522967,-0.52297 -1.390112,-0.52297 -1.913086,0 -0.522975,0.52298 -0.522975,1.34228 0,1.86526 0.332614,0.33262 0.815221,0.42525 1.243506,0.33479 -0.09045,0.42828 0.0015,0.91089 0.33479,1.24351 0.522975,0.52297 1.3423,0.52297 1.86526,0 0.52297,-0.52298 0.52297,-1.39011 0,-1.91309 -0.10393,-0.10391 -0.21031,-0.17652 -0.33479,-0.23914 l 5.45228,-5.45227 -0.95655,-0.95655 z m 6.45666,0 -0.95654,0.95655 5.45228,5.45227 c -0.12442,0.0626 -0.23085,0.13514 -0.33478,0.23914 -0.52297,0.52298 -0.52297,1.39011 0,1.91309 0.52297,0.52297 1.34229,0.52297 1.86525,0 0.33262,-0.33262 0.4731,-0.81523 0.38262,-1.24351 0.42205,0.0817 0.86883,-0.008 1.19567,-0.33479 0.52297,-0.52298 0.52297,-1.34228 0,-1.86526 -0.52296,-0.52297 -1.3901,-0.52297 -1.91308,0 -0.10392,0.10393 -0.17651,0.21031 -0.23913,0.33479 l -5.45229,-5.45228 z"
       id="rect4357" /><path
       inkscape:connector-curvature="0"
       style="fill:#ffffff;fill-opacity:1;stroke:#000000;stroke-width:1.03046572;stroke-miterlimit:4;stroke-dasharray:none"
       d="m 108.09216,134.70531 c -5.2818,0 -9.596211,3.47147 -9.596211,7.7929 0,2.93983 2.029131,5.48968 4.959111,6.82683 l 0,3.73544 9.2742,0 0,-3.73544 c 2.92996,-1.33715 4.89471,-3.887 4.89471,-6.82683 0,-4.32143 -4.25003,-7.7929 -9.53181,-7.7929 z"
       id="rect4317" /><path
       sodipodi:type="arc"
       style="fill:#000000;fill-opacity:1;stroke:none"
       id="path4319"
       sodipodi:cx="319.34711"
       sodipodi:cy="449.11172"
       sodipodi:rx="0.79549515"
       sodipodi:ry="0.79549515"
       d="m 320.1426,449.11172 a 0.79549515,0.79549515 0 1 1 -1.59099,0 0.79549515,0.79549515 0 1 1 1.59099,0 z"
       transform="matrix(2.8624047,0,0,2.8624047,-809.65523,-1140.7568)" /><path
       sodipodi:type="star"
       style="fill:#000000;fill-opacity:1;stroke:none"
       id="path4321"
       sodipodi:sides="3"
       sodipodi:cx="319.43549"
       sodipodi:cy="452.02853"
       sodipodi:r1="0.98821175"
       sodipodi:r2="0.49410588"
       sodipodi:arg1="-0.52359878"
       sodipodi:arg2="0.52359878"
       inkscape:flatsided="false"
       inkscape:rounded="0"
       inkscape:randomized="0"
       d="m 320.2913,451.53443 -0.42791,0.74116 -0.4279,0.74116 -0.42791,-0.74116 -0.42791,-0.74116 0.85582,0 z"
       transform="matrix(-2.0609314,0,0,-2.0609314,766.33219,1080.7708)" /><path
       transform="matrix(2.8624047,0,0,2.8624047,-802.36875,-1140.5747)"
       d="m 320.1426,449.11172 a 0.79549515,0.79549515 0 1 1 -1.59099,0 0.79549515,0.79549515 0 1 1 1.59099,0 z"
       sodipodi:ry="0.79549515"
       sodipodi:rx="0.79549515"
       sodipodi:cy="449.11172"
       sodipodi:cx="319.34711"
       id="path4323"
       style="fill:#000000;fill-opacity:1;stroke:none"
       sodipodi:type="arc" /><path
       inkscape:connector-curvature="0"
       style="fill:none;stroke:#000000;stroke-width:0.43386579;stroke-linecap:butt;stroke-linejoin:miter;stroke-miterlimit:4;stroke-opacity:1;stroke-dasharray:none"
       d="m 105.44733,151.63596 0,1.41279"
       id="path4325" /><path
       inkscape:connector-curvature="0"
       id="path4327"
       d="m 107.10197,151.63596 0,1.41279"
       style="fill:none;stroke:#000000;stroke-width:0.43386579;stroke-linecap:butt;stroke-linejoin:miter;stroke-miterlimit:4;stroke-opacity:1;stroke-dasharray:none" /><path
       inkscape:connector-curvature="0"
       style="fill:none;stroke:#000000;stroke-width:0.43386579;stroke-linecap:butt;stroke-linejoin:miter;stroke-miterlimit:4;stroke-opacity:1;stroke-dasharray:none"
       d="m 108.7566,151.63596 0,1.41279"
       id="path4329" /><path
       inkscape:connector-curvature="0"
       id="path4331"
       d="m 110.41124,151.63596 0,1.41279"
       style="fill:none;stroke:#000000;stroke-width:0.43386579;stroke-linecap:butt;stroke-linejoin:miter;stroke-miterlimit:4;stroke-opacity:1;stroke-dasharray:none" /></g><g
     inkscape:groupmode="layer"
     id="layer3"
     inkscape:label="head"
     style="display:inline"
     transform="translate(0,40)"><path
       transform="matrix(1.5558881,0,0,1.5558881,-29.971618,-40.155109)"
       style="color:#000000;fill:#f1e8d9;fill-opacity:1;fill-rule:nonzero;stroke:#000000;stroke-width:1.92815924;stroke-linecap:round;stroke-linejoin:round;stroke-miterlimit:4;stroke-opacity:1;stroke-dashoffset:0;marker:none;visibility:visible;display:inline;overflow:visible;enable-background:accumulate"
       d="m 115.35429,79.851768 c 0,15.885735 -13.19476,27.878922 -29.907879,27.878922 -16.713116,0 -27.96144,-11.993187 -27.96144,-27.878922 0,-15.885734 10.894427,-28.763666 27.607543,-28.763666 16.713116,0 30.261776,12.877932 30.261776,28.763666 z"
       id="path4421"
       inkscape:connector-curvature="0"
       sodipodi:nodetypes="sssss" /><path
       sodipodi:type="arc"
       style="color:#000000;fill:#f1e8d9;fill-opacity:1;fill-rule:nonzero;stroke:#000000;stroke-width:3.24621773;stroke-linecap:round;stroke-linejoin:round;stroke-miterlimit:4;stroke-opacity:1;stroke-dasharray:none;stroke-dashoffset:0;marker:none;visibility:visible;display:inline;overflow:visible;enable-background:accumulate"
       id="path4683"
       sodipodi:cx="32.423977"
       sodipodi:cy="93.83033"
       sodipodi:rx="8.2945051"
       sodipodi:ry="9.3501701"
       d="m 40.718482,93.83033 a 8.2945051,9.3501701 0 1 1 -16.58901,0 8.2945051,9.3501701 0 1 1 16.58901,0 z"
       transform="matrix(0.7432725,0,0,1,36.391287,-5.9271008)" /></g><g
     inkscape:groupmode="layer"
     id="layer4"
     inkscape:label="hair"
     style="display:inline"
     transform="translate(0,40)"><path
       style="fill:#b77a32;fill-opacity:1;stroke:#000000;stroke-width:3;stroke-linecap:round;stroke-linejoin:round;stroke-miterlimit:4;stroke-opacity:1;stroke-dasharray:none;display:inline"
       d="m 87.641308,51.81527 c -4.296816,-8.340858 1.019869,-13.511677 4.908425,-23.401755 5.72362,-14.557355 9.331547,-22.5961871 7.484117,-30.9096168 0,0 4.13618,11.4400737 11.44985,22.3471458 10.25938,10.476131 7.83196,31.015879 4.67409,29.958852 -20.661482,-0.5342 -19.244655,2.190194 -28.516482,2.005374 z"
       id="path4603"
       inkscape:connector-curvature="0"
       sodipodi:nodetypes="cscccc" /><path
       sodipodi:type="arc"
       style="color:#000000;fill:#b77a32;fill-opacity:1;fill-rule:nonzero;stroke:none;stroke-width:3;marker:none;visibility:visible;display:inline;overflow:visible;enable-background:accumulate"
       id="path12352"
       sodipodi:cx="83.248009"
       sodipodi:cy="107.51581"
       sodipodi:rx="1.9435333"
       sodipodi:ry="1.9435333"
       d="m 85.191542,107.51581 a 1.9435333,1.9435333 0 1 1 -3.887067,0 1.9435333,1.9435333 0 1 1 3.887067,0 z"
       transform="matrix(0.41666665,0,0,0.41666665,47.427612,21.583828)" /><path
       sodipodi:type="arc"
       style="color:#000000;fill:#b77a32;fill-opacity:1;fill-rule:nonzero;stroke:none;stroke-width:3;marker:none;visibility:visible;display:inline;overflow:visible;enable-background:accumulate"
       id="path12352-6"
       sodipodi:cx="83.248009"
       sodipodi:cy="107.51581"
       sodipodi:rx="1.9435333"
       sodipodi:ry="1.9435333"
       d="m 85.191542,107.51581 a 1.9435333,1.9435333 0 1 1 -3.887067,0 1.9435333,1.9435333 0 1 1 3.887067,0 z"
       transform="matrix(0.41666665,0,0,0.41666665,62.489998,25.956781)" /><path
       sodipodi:type="arc"
       style="color:#000000;fill:#b77a32;fill-opacity:1;fill-rule:nonzero;stroke:none;stroke-width:3;marker:none;visibility:visible;display:inline;overflow:visible;enable-background:accumulate"
       id="path12352-62"
       sodipodi:cx="83.248009"
       sodipodi:cy="107.51581"
       sodipodi:rx="1.9435333"
       sodipodi:ry="1.9435333"
       d="m 85.191542,107.51581 a 1.9435333,1.9435333 0 1 1 -3.887067,0 1.9435333,1.9435333 0 1 1 3.887067,0 z"
       transform="matrix(0.41666665,0,0,0.41666665,44.350354,12.999892)" /><path
       sodipodi:type="arc"
       style="color:#000000;fill:#b77a32;fill-opacity:1;fill-rule:nonzero;stroke:none;stroke-width:3;marker:none;visibility:visible;display:inline;overflow:visible;enable-background:accumulate"
       id="path12352-9"
       sodipodi:cx="83.248009"
       sodipodi:cy="107.51581"
       sodipodi:rx="1.9435333"
       sodipodi:ry="1.9435333"
       d="m 85.191542,107.51581 a 1.9435333,1.9435333 0 1 1 -3.887067,0 1.9435333,1.9435333 0 1 1 3.887067,0 z"
       transform="matrix(0.41666665,0,0,0.41666665,41.111132,17.534803)" /><path
       sodipodi:type="arc"
       style="color:#000000;fill:#b77a32;fill-opacity:1;fill-rule:nonzero;stroke:none;stroke-width:3;marker:none;visibility:visible;display:inline;overflow:visible;enable-background:accumulate"
       id="path12352-91"
       sodipodi:cx="83.248009"
       sodipodi:cy="107.51581"
       sodipodi:rx="1.9435333"
       sodipodi:ry="1.9435333"
       d="m 85.191542,107.51581 a 1.9435333,1.9435333 0 1 1 -3.887067,0 1.9435333,1.9435333 0 1 1 3.887067,0 z"
       transform="matrix(0.41666665,0,0,0.41666665,38.195832,25.956781)" /><path
       sodipodi:type="arc"
       style="color:#000000;fill:#b77a32;fill-opacity:1;fill-rule:nonzero;stroke:none;stroke-width:3;marker:none;visibility:visible;display:inline;overflow:visible;enable-background:accumulate"
       id="path12352-2"
       sodipodi:cx="83.248009"
       sodipodi:cy="107.51581"
       sodipodi:rx="1.9435333"
       sodipodi:ry="1.9435333"
       d="m 85.191542,107.51581 a 1.9435333,1.9435333 0 1 1 -3.887067,0 1.9435333,1.9435333 0 1 1 3.887067,0 z"
       transform="matrix(0.41666665,0,0,0.41666665,53.096254,16.886959)" /><path
       sodipodi:type="arc"
       style="color:#000000;fill:#b77a32;fill-opacity:1;fill-rule:nonzero;stroke:none;stroke-width:3;marker:none;visibility:visible;display:inline;overflow:visible;enable-background:accumulate"
       id="path12352-27"
       sodipodi:cx="83.248009"
       sodipodi:cy="107.51581"
       sodipodi:rx="1.9435333"
       sodipodi:ry="1.9435333"
       d="m 85.191542,107.51581 a 1.9435333,1.9435333 0 1 1 -3.887067,0 1.9435333,1.9435333 0 1 1 3.887067,0 z"
       transform="matrix(0.41666665,0,0,0.41666665,61.19431,15.267347)" /><path
       sodipodi:type="arc"
       style="color:#000000;fill:#b77a32;fill-opacity:1;fill-rule:nonzero;stroke:none;stroke-width:3;marker:none;visibility:visible;display:inline;overflow:visible;enable-background:accumulate"
       id="path12352-0"
       sodipodi:cx="83.248009"
       sodipodi:cy="107.51581"
       sodipodi:rx="1.9435333"
       sodipodi:ry="1.9435333"
       d="m 85.191542,107.51581 a 1.9435333,1.9435333 0 1 1 -3.887067,0 1.9435333,1.9435333 0 1 1 3.887067,0 z"
       transform="matrix(0.41666665,0,0,0.41666665,80.953565,15.267347)" /><path
       sodipodi:type="arc"
       style="color:#000000;fill:#b77a32;fill-opacity:1;fill-rule:nonzero;stroke:none;stroke-width:3;marker:none;visibility:visible;display:inline;overflow:visible;enable-background:accumulate"
       id="path12352-97"
       sodipodi:cx="83.248009"
       sodipodi:cy="107.51581"
       sodipodi:rx="1.9435333"
       sodipodi:ry="1.9435333"
       d="m 85.191542,107.51581 a 1.9435333,1.9435333 0 1 1 -3.887067,0 1.9435333,1.9435333 0 1 1 3.887067,0 z"
       transform="matrix(0.41666665,0,0,0.41666665,84.840632,13.647736)" /><path
       sodipodi:type="arc"
       style="color:#000000;fill:#b77a32;fill-opacity:1;fill-rule:nonzero;stroke:none;stroke-width:3;marker:none;visibility:visible;display:inline;overflow:visible;enable-background:accumulate"
       id="path12352-5"
       sodipodi:cx="83.248009"
       sodipodi:cy="107.51581"
       sodipodi:rx="1.9435333"
       sodipodi:ry="1.9435333"
       d="m 85.191542,107.51581 a 1.9435333,1.9435333 0 1 1 -3.887067,0 1.9435333,1.9435333 0 1 1 3.887067,0 z"
       transform="matrix(0.41666665,0,0,0.41666665,88.727699,5.873603)" /><path
       sodipodi:type="arc"
       style="color:#000000;fill:#b77a32;fill-opacity:1;fill-rule:nonzero;stroke:none;stroke-width:3;marker:none;visibility:visible;display:inline;overflow:visible;enable-background:accumulate"
       id="path12352-95"
       sodipodi:cx="83.248009"
       sodipodi:cy="107.51581"
       sodipodi:rx="1.9435333"
       sodipodi:ry="1.9435333"
       d="m 85.191542,107.51581 a 1.9435333,1.9435333 0 1 1 -3.887067,0 1.9435333,1.9435333 0 1 1 3.887067,0 z"
       transform="matrix(0.41666665,0,0,0.41666665,70.588054,10.732436)" /><path
       sodipodi:type="arc"
       style="color:#000000;fill:#b77a32;fill-opacity:1;fill-rule:nonzero;stroke:none;stroke-width:3;marker:none;visibility:visible;display:inline;overflow:visible;enable-background:accumulate"
       id="path12352-1"
       sodipodi:cx="83.248009"
       sodipodi:cy="107.51581"
       sodipodi:rx="1.9435333"
       sodipodi:ry="1.9435333"
       d="m 85.191542,107.51581 a 1.9435333,1.9435333 0 1 1 -3.887067,0 1.9435333,1.9435333 0 1 1 3.887067,0 z"
       transform="matrix(0.41666665,0,0,0.41666665,70.264132,20.450103)" /><path
       sodipodi:type="arc"
       style="color:#000000;fill:#b77a32;fill-opacity:1;fill-rule:nonzero;stroke:none;stroke-width:3;marker:none;visibility:visible;display:inline;overflow:visible;enable-background:accumulate"
       id="path12352-3"
       sodipodi:cx="83.248009"
       sodipodi:cy="107.51581"
       sodipodi:rx="1.9435333"
       sodipodi:ry="1.9435333"
       d="m 85.191542,107.51581 a 1.9435333,1.9435333 0 1 1 -3.887067,0 1.9435333,1.9435333 0 1 1 3.887067,0 z"
       transform="matrix(0.41666665,0,0,0.41666665,84.51671,21.097948)" /><path
       sodipodi:type="arc"
       style="color:#000000;fill:#b77a32;fill-opacity:1;fill-rule:nonzero;stroke:none;stroke-width:3;marker:none;visibility:visible;display:inline;overflow:visible;enable-background:accumulate"
       id="path12352-8"
       sodipodi:cx="83.248009"
       sodipodi:cy="107.51581"
       sodipodi:rx="1.9435333"
       sodipodi:ry="1.9435333"
       d="m 85.191542,107.51581 a 1.9435333,1.9435333 0 1 1 -3.887067,0 1.9435333,1.9435333 0 1 1 3.887067,0 z"
       transform="matrix(0.41666665,0,0,0.41666665,93.26261,11.380281)" /><path
       sodipodi:type="arc"
       style="color:#000000;fill:#b77a32;fill-opacity:1;fill-rule:nonzero;stroke:none;stroke-width:3;marker:none;visibility:visible;display:inline;overflow:visible;enable-background:accumulate"
       id="path12352-31"
       sodipodi:cx="83.248009"
       sodipodi:cy="107.51581"
       sodipodi:rx="1.9435333"
       sodipodi:ry="1.9435333"
       d="m 85.191542,107.51581 a 1.9435333,1.9435333 0 1 1 -3.887067,0 1.9435333,1.9435333 0 1 1 3.887067,0 z"
       transform="matrix(0.41666665,0,0,0.41666665,102.98028,17.858725)" /><path
       sodipodi:type="arc"
       style="color:#000000;fill:#b77a32;fill-opacity:1;fill-rule:nonzero;stroke:none;stroke-width:3;marker:none;visibility:visible;display:inline;overflow:visible;enable-background:accumulate"
       id="path12352-36"
       sodipodi:cx="83.248009"
       sodipodi:cy="107.51581"
       sodipodi:rx="1.9435333"
       sodipodi:ry="1.9435333"
       d="m 85.191542,107.51581 a 1.9435333,1.9435333 0 1 1 -3.887067,0 1.9435333,1.9435333 0 1 1 3.887067,0 z"
       transform="matrix(0.41666665,0,0,0.41666665,100.06498,24.985014)" /><path
       sodipodi:type="arc"
       style="color:#000000;fill:#b77a32;fill-opacity:1;fill-rule:nonzero;stroke:none;stroke-width:3;marker:none;visibility:visible;display:inline;overflow:visible;enable-background:accumulate"
       id="path12352-311"
       sodipodi:cx="83.248009"
       sodipodi:cy="107.51581"
       sodipodi:rx="1.9435333"
       sodipodi:ry="1.9435333"
       d="m 85.191542,107.51581 a 1.9435333,1.9435333 0 1 1 -3.887067,0 1.9435333,1.9435333 0 1 1 3.887067,0 z"
       transform="matrix(0.41666665,0,0,0.41666665,93.910454,19.478336)" /><path
       sodipodi:type="arc"
       style="color:#000000;fill:#b77a32;fill-opacity:1;fill-rule:nonzero;stroke:none;stroke-width:3;marker:none;visibility:visible;display:inline;overflow:visible;enable-background:accumulate"
       id="path12352-58"
       sodipodi:cx="83.248009"
       sodipodi:cy="107.51581"
       sodipodi:rx="1.9435333"
       sodipodi:ry="1.9435333"
       d="m 85.191542,107.51581 a 1.9435333,1.9435333 0 1 1 -3.887067,0 1.9435333,1.9435333 0 1 1 3.887067,0 z"
       transform="matrix(0.41666665,0,0,0.41666665,30.74562,19.154414)" /><path
       sodipodi:type="arc"
       style="color:#000000;fill:#b77a32;fill-opacity:1;fill-rule:nonzero;stroke:none;stroke-width:3;marker:none;visibility:visible;display:inline;overflow:visible;enable-background:accumulate"
       id="path12352-64"
       sodipodi:cx="83.248009"
       sodipodi:cy="107.51581"
       sodipodi:rx="1.9435333"
       sodipodi:ry="1.9435333"
       d="m 85.191542,107.51581 a 1.9435333,1.9435333 0 1 1 -3.887067,0 1.9435333,1.9435333 0 1 1 3.887067,0 z"
       transform="matrix(0.41666665,0,0,0.41666665,37.547987,11.380281)" /><path
       sodipodi:type="arc"
       style="color:#000000;fill:#b77a32;fill-opacity:1;fill-rule:nonzero;stroke:none;stroke-width:3;marker:none;visibility:visible;display:inline;overflow:visible;enable-background:accumulate"
       id="path12352-14"
       sodipodi:cx="83.248009"
       sodipodi:cy="107.51581"
       sodipodi:rx="1.9435333"
       sodipodi:ry="1.9435333"
       d="m 85.191542,107.51581 a 1.9435333,1.9435333 0 1 1 -3.887067,0 1.9435333,1.9435333 0 1 1 3.887067,0 z"
       transform="matrix(0.41666665,0,0,0.41666665,45.322121,5.873603)" /><path
       sodipodi:type="arc"
       style="color:#000000;fill:#b77a32;fill-opacity:1;fill-rule:nonzero;stroke:none;stroke-width:3;marker:none;visibility:visible;display:inline;overflow:visible;enable-background:accumulate"
       id="path12352-54"
       sodipodi:cx="83.248009"
       sodipodi:cy="107.51581"
       sodipodi:rx="1.9435333"
       sodipodi:ry="1.9435333"
       d="m 85.191542,107.51581 a 1.9435333,1.9435333 0 1 1 -3.887067,0 1.9435333,1.9435333 0 1 1 3.887067,0 z"
       transform="matrix(0.41666665,0,0,0.41666665,27.83032,27.900314)" /></g><g
     inkscape:groupmode="layer"
     id="layer5"
     inkscape:label="mouth-open"
     style="display:inline"
     transform="translate(0,40)"><g
       style="display:inline"
       id="mouth-close-3-5"
       transform="matrix(-1,0,0,1,170.89824,4.331886)"><path
         stroke-miterlimit="10"
         d="m 29.770456,105.51845 c 10.594223,4.16641 16.874906,7.36176 15.386148,0.29834 -2.040436,-9.680866 -18.045768,-6.468351 -18.388072,-6.625558"
         id="path3568-5-6"
         inkscape:connector-curvature="0"
         style="fill:#ffffff;fill-opacity:1;stroke:#000000;stroke-width:2.66109991;stroke-miterlimit:10"
         sodipodi:nodetypes="csc" /></g></g><g
     inkscape:groupmode="layer"
     id="layer6"
     inkscape:label="mouth-close"
     style="display:inline"
     transform="translate(0,40)"><g
       style="display:inline"
       id="mouth-close-3"
       transform="matrix(-1,0,0,1,170.58116,4.3016148)"><path
         stroke-miterlimit="10"
         d="m 31.066145,107.78591 c 10.594223,4.16641 36.748496,-5.85181 24.779893,-4.88442 -10.011318,0.80919 -32.946191,-1.93344 -29.077506,-3.710258"
         id="path3568-5"
         inkscape:connector-curvature="0"
         style="fill:#ffffff;fill-opacity:1;stroke:#000000;stroke-width:2.66109991;stroke-miterlimit:10"
         sodipodi:nodetypes="csc" /></g></g><g
     inkscape:groupmode="layer"
     id="layer7"
     inkscape:label="eyes"
     style="display:inline"
     transform="translate(0,40)"><circle
       d="m 41.807999,83.438004 c 0,1.469629 -1.19137,2.661 -2.661,2.661 -1.469629,0 -2.661,-1.191371 -2.661,-2.661 0,-1.46963 1.191371,-2.661 2.661,-2.661 1.46963,0 2.661,1.19137 2.661,2.661 z"
       style="stroke:#000000;stroke-width:2.66109991;stroke-miterlimit:10"
       sodipodi:ry="2.661"
       sodipodi:rx="2.661"
       sodipodi:cy="83.438004"
       sodipodi:cx="39.146999"
       id="circle3535-9"
       r="2.661"
       cy="83.438004"
       cx="39.146999"
       stroke-miterlimit="10"
       transform="matrix(-1.3872095,0,0,1.3872095,193.09674,-28.705961)" /><circle
       d="m 73.143002,83.438004 c 0,1.469629 -1.19137,2.661 -2.661,2.661 -1.469629,0 -2.661,-1.191371 -2.661,-2.661 0,-1.46963 1.191371,-2.661 2.661,-2.661 1.46963,0 2.661,1.19137 2.661,2.661 z"
       style="stroke:#000000;stroke-width:2.66109991;stroke-miterlimit:10"
       sodipodi:ry="2.661"
       sodipodi:rx="2.661"
       sodipodi:cy="83.438004"
       sodipodi:cx="70.482002"
       id="circle3537-0"
       r="2.661"
       cy="83.438004"
       cx="70.482002"
       stroke-miterlimit="10"
       transform="matrix(-1.3872095,0,0,1.3872095,219.33444,-28.705961)" /></g><g
     inkscape:groupmode="layer"
     id="layer8"
     inkscape:label="eyes-dead"
     style="display:inline"
     transform="translate(0,40)"><path
       style="fill:none;stroke:#000000;stroke-width:3;stroke-linecap:round;stroke-linejoin:round;stroke-miterlimit:4;stroke-opacity:1;stroke-dasharray:none;display:inline"
       d="m 127.6544,87.097005 20.62006,0.884219"
       id="path4984-6"
       inkscape:connector-curvature="0"
       sodipodi:nodetypes="cc" /><path
       style="fill:none;stroke:#000000;stroke-width:3;stroke-linecap:round;stroke-linejoin:round;stroke-miterlimit:4;stroke-opacity:1;stroke-dasharray:none;display:inline"
       d="m 137.89803,97.579177 -0.0409,-20.638963"
       id="path4984-6-8"
       inkscape:connector-curvature="0"
       sodipodi:nodetypes="cc" /><path
       style="fill:none;stroke:#000000;stroke-width:3;stroke-linecap:round;stroke-linejoin:round;stroke-miterlimit:4;stroke-opacity:1;stroke-dasharray:none;display:inline"
       d="m 111.15431,86.837864 20.62546,0.747644"
       id="path4984-6-3"
       inkscape:connector-curvature="0"
       sodipodi:nodetypes="cc" /><path
       style="fill:none;stroke:#000000;stroke-width:3;stroke-linecap:round;stroke-linejoin:round;stroke-miterlimit:4;stroke-opacity:1;stroke-dasharray:none;display:inline"
       d="m 121.46713,97.251968 -0.17755,-20.63824"
       id="path4984-6-8-6"
       inkscape:connector-curvature="0"
       sodipodi:nodetypes="cc" /></g><g
     inkscape:groupmode="layer"
     id="layer10"
     inkscape:label="legs"
     style="display:inline"
     transform="translate(0,40)"><g
       style="display:inline;fill:#2b2b2b;fill-opacity:1"
       id="leg-right-6"
       transform="matrix(-1,0,0,1,177.21676,4)"><polygon
         stroke-miterlimit="10"
         points="78.472,161.671 79.811,187.223 107.951,187.223 109.674,161.671 "
         id="polygon3512-6"
         style="fill:#2b2b2b;stroke:#000000;stroke-width:2.66109990999999990;stroke-miterlimit:10;fill-opacity:1" /><path
         stroke-miterlimit="10"
         d="m 77.034,191.974 c 1.873,3.236 31.033,1.13 31.033,1.13 v -5.826 c -5.694,0.252 -35.768,-3.477 -31.033,4.696 z"
         id="path3514-0"
         inkscape:connector-curvature="0"
         style="fill:#2b2b2b;stroke:#000000;stroke-width:2.86579989999999984;stroke-miterlimit:10;fill-opacity:1" /></g><g
       style="display:inline;fill:#2b2b2b;fill-opacity:1"
       id="leg-left-9"
       transform="matrix(-1,0,0,1,177.21676,4)"><polygon
         stroke-miterlimit="10"
         points="49.185,161.671 51.064,187.223 80.542,187.223 80.542,161.671 "
         id="polygon3507-4"
         style="fill:#2b2b2b;stroke:#000000;stroke-width:2.66109990999999990;stroke-miterlimit:10;fill-opacity:1" /><path
         stroke-miterlimit="10"
         d="m 49.185,191.514 c 1.769,2.957 29.288,1.031 29.288,1.031 v -5.322 c -5.374,0.231 -33.757,-3.177 -29.288,4.291 z"
         id="path3509-1"
         inkscape:connector-curvature="0"
         style="fill:#2b2b2b;stroke:#000000;stroke-width:2.66109990999999990;stroke-miterlimit:10;fill-opacity:1" /></g></g></svg>