<?xml version="1.0" encoding="UTF-8" standalone="no"?>
<!-- Generator: Adobe Illustrator 16.0.0, SVG Export Plug-In . SVG Version: 6.00 Build 0)  -->

<svg
   xmlns:dc="http://purl.org/dc/elements/1.1/"
   xmlns:cc="http://creativecommons.org/ns#"
   xmlns:rdf="http://www.w3.org/1999/02/22-rdf-syntax-ns#"
   xmlns:svg="http://www.w3.org/2000/svg"
   xmlns="http://www.w3.org/2000/svg"
   xmlns:xlink="http://www.w3.org/1999/xlink"
   xmlns:sodipodi="http://sodipodi.sourceforge.net/DTD/sodipodi-0.dtd"
   xmlns:inkscape="http://www.inkscape.org/namespaces/inkscape"
   version="1.1"
   x="0px"
   y="0px"
   width="200"
   height="240"
   viewBox="0 0 200 240"
   enable-background="new 0 0 150 200"
   xml:space="preserve"
   id="svg3501"
   inkscape:version="0.48.2 r9819"
   sodipodi:docname="char-beard.svg"><metadata
     id="metadata3577"><rdf:RDF><cc:Work
         rdf:about=""><dc:format>image/svg+xml</dc:format><dc:type
           rdf:resource="http://purl.org/dc/dcmitype/StillImage" /><dc:title /></cc:Work></rdf:RDF></metadata><defs
     id="defs3575"><inkscape:path-effect
       effect="spiro"
       id="path-effect6643"
       is_visible="true" /><inkscape:path-effect
       effect="spiro"
       id="path-effect13501"
       is_visible="true" /><inkscape:path-effect
       effect="spiro"
       id="path-effect13497"
       is_visible="true" /><inkscape:path-effect
       effect="spiro"
       id="path-effect13493"
       is_visible="true" /><inkscape:path-effect
       effect="spiro"
       id="path-effect13477"
       is_visible="true" /><inkscape:path-effect
       effect="spiro"
       id="path-effect13469"
       is_visible="true" /><inkscape:path-effect
       effect="spiro"
       id="path-effect13465"
       is_visible="true" /><inkscape:path-effect
       effect="spiro"
       id="path-effect13461"
       is_visible="true" /><inkscape:path-effect
       effect="spiro"
       id="path-effect6643-6"
       is_visible="true" /></defs><sodipodi:namedview
     pagecolor="#ffffff"
     bordercolor="#666666"
     borderopacity="1"
     objecttolerance="10"
     gridtolerance="10"
     guidetolerance="10"
     inkscape:pageopacity="0"
     inkscape:pageshadow="2"
     inkscape:window-width="1240"
     inkscape:window-height="975"
     id="namedview3573"
     showgrid="false"
     inkscape:zoom="2.5709929"
     inkscape:cx="89.028196"
     inkscape:cy="87.429955"
     inkscape:window-x="0"
     inkscape:window-y="0"
     inkscape:window-maximized="0"
     inkscape:current-layer="layer1"
     showguides="true"
     inkscape:guide-bbox="true" /><g
     id="Layer_1"
     display="none"
     style="display:none"
     transform="translate(0,40)">
	
		<image
   sodipodi:absref="/Users/max/work/keyfight/graphics/characters/../../../tmp/inspiration/bighead1.jpg"
   xlink:href="../../../tmp/inspiration/bighead1.jpg"
   id="image3504"
   transform="translate(11.5,-20.3335)"
   height="232"
   width="128"
   overflow="visible"
   display="inline"
   style="display:inline;overflow:visible">
	</image>
</g><g
     id="eyes-hit"
     display="none"
     style="display:none"
     transform="translate(0,40)">
	<g
   display="inline"
   id="g3540"
   style="display:inline">
		<g
   id="g3542">
			<path
   d="m 32.18,91.841 c 5.342,-4.599 10.684,-9.198 16.025,-13.796 1.303,-1.122 -0.588,-2.995 -1.882,-1.882 -5.342,4.599 -10.684,9.198 -16.025,13.796 -1.302,1.122 0.589,2.996 1.882,1.882 l 0,0 z"
   id="path3544"
   inkscape:connector-curvature="0" />
		</g>
	</g>
	<g
   display="inline"
   id="g3546"
   style="display:inline">
		<g
   id="g3548">
			<path
   d="M 48.454,89.953 C 43.032,85.354 37.609,80.755 32.187,76.157 c -1.31,-1.111 -3.216,0.776 -1.896,1.896 5.422,4.599 10.845,9.198 16.267,13.796 1.311,1.11 3.217,-0.777 1.896,-1.896 l 0,0 z"
   id="path3550"
   inkscape:connector-curvature="0" />
		</g>
	</g>
	<g
   display="inline"
   id="g3552"
   style="display:inline">
		<g
   id="g3554">
			<path
   d="m 63.289,91.277 c 5.342,-4.599 10.684,-9.197 16.025,-13.796 1.303,-1.122 -0.588,-2.995 -1.881,-1.882 -5.342,4.599 -10.684,9.197 -16.026,13.796 -1.303,1.122 0.589,2.996 1.882,1.882 l 0,0 z"
   id="path3556"
   inkscape:connector-curvature="0" />
		</g>
	</g>
	<g
   display="inline"
   id="g3558"
   style="display:inline">
		<g
   id="g3560">
			<path
   d="M 79.564,89.389 C 74.141,84.79 68.719,80.192 63.296,75.593 c -1.31,-1.111 -3.216,0.776 -1.896,1.896 5.422,4.599 10.845,9.197 16.267,13.796 1.311,1.111 3.217,-0.777 1.897,-1.896 l 0,0 z"
   id="path3562"
   inkscape:connector-curvature="0" />
		</g>
	</g>
</g><g
     id="mouth-open"
     display="none"
     style="display:none"
     transform="translate(0,40)">
	<path
   display="inline"
   stroke-miterlimit="10"
   d="m 28.396,106.623 c 5.983,-0.047 23.021,10.672 24.602,1.321 1.411,-8.349 -7.78,-9.425 -15.469,-9.13 -7.688,0.295 -9.133,-0.024 -9.133,-0.024"
   id="path3565"
   inkscape:connector-curvature="0"
   style="fill:#ffffff;stroke:#000000;stroke-width:2.66109991;stroke-miterlimit:10;display:inline" />
</g><g
     id="mouth-hit"
     display="none"
     style="display:none"
     transform="translate(0,40)">
	<path
   display="inline"
   stroke-miterlimit="10"
   d="m 27.503,103.144 c 15.18,-3.031 27.749,-1.211 39.523,3.958"
   id="path3571"
   inkscape:connector-curvature="0"
   style="fill:none;stroke:#000000;stroke-width:2.66109991;stroke-miterlimit:10;display:inline" />
</g><g
     inkscape:groupmode="layer"
     id="layer1"
     inkscape:label="torso"
     style="display:inline"
     transform="translate(0,40)"><path
       style="fill:#f1e8d9;stroke:#000000;stroke-width:2.66109991;stroke-miterlimit:10"
       inkscape:connector-curvature="0"
       id="path3517-3"
       d="m 109.42776,150.011 c -0.206,3.008 1.775,13.012 3.845,13.603 2.07,0.591 11.826,2.068 13.896,1.478 2.07,-0.59 7.413,-7.706 7.365,-15.141"
       stroke-miterlimit="10" /><path
       style="fill:#ff474c;fill-opacity:1;stroke:#000000;stroke-width:2.66109991;stroke-miterlimit:10"
       inkscape:connector-curvature="0"
       id="path3519-3"
       d="m 134.53376,149.951 c -0.016,-2.382 -0.86,-7.923 -1.155,-11.175 -0.295,-3.254 -2.365,-12.124 -2.957,-13.602 -0.592,-1.479 -5.409,-6.174 -5.409,-6.174 l -14.124,4.028 c -1.138,7.513 -1.63,15.742 -1.461,26.982 0.022,1.431 25.106,-0.059 25.106,-0.059 z"
       stroke-miterlimit="10" /><g
       style="fill:#ff474c;fill-opacity:1;display:inline"
       id="torso-5"
       transform="matrix(-1,0,0,1,177.21676,4)"><path
         stroke-miterlimit="10"
         d="m 47.691908,153.50938 c 0.296,5.618 1.493092,6.94362 1.493092,6.94362 l 60.04,0 c 0,0 -1.513,-42.284 -3.461,-44.255 -1.948,-1.972 -52.077263,1.89293 -52.077263,1.89293 0,0 -6.290829,29.80145 -5.994829,35.41845 z"
         id="path3522-8"
         inkscape:connector-curvature="0"
         style="fill:#ff474c;fill-opacity:1;stroke:#000000;stroke-width:2.66109991;stroke-miterlimit:10"
         sodipodi:nodetypes="sccccs" /></g><path
       style="fill:#f1e8d9;stroke:#000000;stroke-width:2.66109991;stroke-miterlimit:10"
       inkscape:connector-curvature="0"
       id="path3525-8"
       d="m 88.98676,149.236 c 0.206,3.008 -1.774,13.012 -3.845,13.603 -2.069,0.591 -11.826,2.068 -13.896,1.478 -2.07,-0.59 -7.412,-7.705 -7.364,-15.14"
       stroke-miterlimit="10" /><path
       style="fill:#ff474c;fill-opacity:1;stroke:#000000;stroke-width:2.66109991;stroke-miterlimit:10"
       inkscape:connector-curvature="0"
       id="path3527-1"
       d="m 63.88176,149.176 c 0.016,-2.383 0.859,-7.923 1.155,-11.176 0.295,-3.253 2.365,-12.124 2.956,-13.602 0.592,-1.479 5.409,-6.173 5.409,-6.173 l 14.125,4.027 c 1.137,7.514 1.63,15.743 1.46,26.982 -0.021,1.433 -25.105,-0.058 -25.105,-0.058 z"
       stroke-miterlimit="10" /><path
       sodipodi:type="spiral"
       style="fill:none;stroke:#c32883;stroke-width:3;stroke-linecap:butt;stroke-linejoin:miter;stroke-miterlimit:4;stroke-opacity:1;stroke-dasharray:none;display:inline"
       id="path6905"
       sodipodi:cx="99.183472"
       sodipodi:cy="182.82364"
       sodipodi:expansion="2.5799999"
       sodipodi:revolution="4"
       sodipodi:radius="16.617294"
       sodipodi:argument="-18.580635"
       sodipodi:t0="0.39899999"
       d="m 98.184791,181.63481 c 0.63199,-0.88472 1.915209,-0.88784 2.729189,-0.26489 1.21264,0.92806 1.19785,2.72562 0.28689,3.85523 -1.294874,1.60569 -3.719243,1.56529 -5.229152,0.29653 -2.068104,-1.73782 -1.993609,-4.90956 -0.291793,-6.86867 2.261987,-2.60398 6.309405,-2.48612 8.790705,-0.27085 3.2172,2.87227 3.04598,7.93107 0.23194,11.01143 -3.57337,3.91156 -9.78636,3.67632 -13.54646,0.17345 -4.690688,-4.36981 -4.380096,-11.88667 -0.09377,-16.41082 5.265944,-5.55813 14.243001,-5.16023 19.619071,0.009 3.74603,3.6016 5.37939,8.97659 4.5221,14.07393"
       transform="translate(5.8343218,-34.943588)" /></g><g
     inkscape:groupmode="layer"
     id="layer3"
     inkscape:label="head"
     style="display:inline"
     transform="translate(0,40)"><path
       sodipodi:type="arc"
       style="color:#000000;fill:#f1e8d9;fill-opacity:1;fill-rule:nonzero;stroke:#000000;stroke-width:1.92815924;stroke-linecap:round;stroke-linejoin:round;stroke-miterlimit:4;stroke-opacity:1;stroke-dasharray:none;stroke-dashoffset:0;marker:none;visibility:visible;display:inline;overflow:visible;enable-background:accumulate"
       id="path4421-5"
       sodipodi:cx="85.092514"
       sodipodi:cy="79.851768"
       sodipodi:rx="30.261774"
       sodipodi:ry="28.763666"
       d="m 115.35429,79.851768 a 30.261774,28.763666 0 1 1 -60.52355,0 30.261774,28.763666 0 1 1 60.52355,0 z"
       transform="matrix(1.5558881,0,0,1.5558881,-28.756805,-41.150978)" /><path
       sodipodi:type="arc"
       style="color:#000000;fill:#f1e8d9;fill-opacity:1;fill-rule:nonzero;stroke:#000000;stroke-width:3.24621773;stroke-linecap:round;stroke-linejoin:round;stroke-miterlimit:4;stroke-opacity:1;stroke-dasharray:none;stroke-dashoffset:0;marker:none;visibility:visible;display:inline;overflow:visible;enable-background:accumulate"
       id="path4683"
       sodipodi:cx="32.423977"
       sodipodi:cy="93.83033"
       sodipodi:rx="8.2945051"
       sodipodi:ry="9.3501701"
       d="m 40.718482,93.83033 a 8.2945051,9.3501701 0 1 1 -16.58901,0 8.2945051,9.3501701 0 1 1 16.58901,0 z"
       transform="matrix(0.7432725,0,0,1,37.363674,-4.565759)" /></g><g
     inkscape:groupmode="layer"
     id="layer4"
     inkscape:label="hair"
     style="display:inline"
     transform="translate(0,40)"><path
       style="fill:#000000;fill-opacity:1;stroke:#000000;stroke-width:1px;stroke-linecap:butt;stroke-linejoin:miter;stroke-opacity:1;display:inline"
       d="m 41.887113,82.262028 c 1.58665,-1.297677 17.574405,12.313718 17.62297,8.962766 1.057599,-1.784349 -6.945433,-19.156236 -5.082043,-21.028182 2.416144,-2.427238 16.935077,10.349317 18.695459,9.165061 0.91254,-0.06595 1.716403,-21.946018 3.414635,-22.971599 1.843673,-1.113415 12.083299,14.191893 15.644151,14.609071 2.553613,4.26177 6.265361,-16.81867 7.390141,-18.280874 3.389474,-2.959002 9.205674,16.758756 11.399554,16.59875 4.53197,-0.330529 12.4248,-15.151032 14.7428,-13.517548 2.51819,1.77456 3.36425,16.774592 4.77955,18.31131 -0.0792,1.457617 15.05238,-6.508309 16.67885,-5.60063 2.74719,1.533107 -7.55781,17.763035 -5.11835,19.050463 2.9722,1.568579 18.45631,-11.88393 18.82368,-10.939404 1.8496,4.755393 -9.70748,22.400242 -13.23901,29.687688 -0.33201,0.68511 -10.62515,-0.64406 -23.11599,-5.13261 -6.84199,-2.458656 -13.66275,-9.26841 -21.45074,-9.295468 -9.885473,-0.03435 -18.609099,2.577882 -27.251188,9.372628 -8.09894,6.36771 -16.339366,16.9533 -19.22866,16.71198 -3.298891,-1.21232 -1.512279,-1.84888 -3.836729,-7.09951 -4.579541,-10.3446 -11.666872,-27.9514 -10.86908,-28.603892 z"
       id="path6902"
       inkscape:connector-curvature="0"
       sodipodi:nodetypes="scscsccsscssssssscss"
       transform="translate(0,-40)" /></g><g
     inkscape:groupmode="layer"
     id="layer5"
     inkscape:label="mouth-open"
     style="display:inline"
     transform="translate(0,40)"><g
       style="display:inline"
       id="mouth-close-3-3"
       transform="matrix(-1,0,0,1,170.58116,4.3016141)"><path
         stroke-miterlimit="10"
         d="m 28.530002,103.01328 c 26.142119,-7.838456 25.954884,9.13565 7.825265,7.69835"
         id="path3568-5-3"
         inkscape:connector-curvature="0"
         style="fill:#ffffff;fill-opacity:1;stroke:#000000;stroke-width:2.66109991;stroke-miterlimit:10"
         sodipodi:nodetypes="cc" /></g><path
       inkscape:connector-curvature="0"
       id="path66-6"
       style="fill:#000000;fill-opacity:1;fill-rule:evenodd;stroke:none;display:inline"
       d="m 138.27963,112.58865 c 0,0 -1.57193,0.94381 -2.07956,0.80086 -0.50794,-0.14402 -2.07215,0.14007 -2.60391,0.42607 -0.5319,0.28548 -1.33789,0.59856 -2.22707,0.60576 -0.88919,0.007 -2.14719,0.72483 -2.62735,0.85543 -0.48069,0.13076 -1.29821,-0.11623 -2.12373,0.29547 -0.82579,0.4129 -1.82201,0.90823 -2.66351,1.09076 -0.28284,0.0606 -2.5139,0.20355 -2.36117,0.41785 l 6.90579,9.71913 c 3.63704,-2.60384 4.28761,-2.6045 8.77668,-2.38719 l 1.00383,-11.82413" /><path
       sodipodi:type="arc"
       style="color:#000000;fill:#000000;fill-opacity:1;fill-rule:nonzero;stroke:#000000;stroke-width:0.80000001;stroke-linecap:round;stroke-linejoin:round;stroke-miterlimit:4;stroke-opacity:1;stroke-dasharray:none;stroke-dashoffset:0;marker:none;visibility:visible;display:inline;overflow:visible;enable-background:accumulate"
       id="path6621-14"
       sodipodi:cx="167.97931"
       sodipodi:cy="167.88548"
       sodipodi:rx="0.86364686"
       sodipodi:ry="0.86364686"
       d="m 168.84296,167.88548 a 0.86364686,0.86364686 0 1 1 -1.7273,0 0.86364686,0.86364686 0 1 1 1.7273,0 z"
       transform="translate(-32.386762,-62.886636)" /><path
       transform="translate(-26.773052,-65.477576)"
       sodipodi:type="arc"
       style="color:#000000;fill:#000000;fill-opacity:1;fill-rule:nonzero;stroke:#000000;stroke-width:0.80000001;stroke-linecap:round;stroke-linejoin:round;stroke-miterlimit:4;stroke-opacity:1;stroke-dasharray:none;stroke-dashoffset:0;marker:none;visibility:visible;display:inline;overflow:visible;enable-background:accumulate"
       id="path6621-4-0"
       sodipodi:cx="167.97931"
       sodipodi:cy="167.88548"
       sodipodi:rx="0.86364686"
       sodipodi:ry="0.86364686"
       d="m 168.84296,167.88548 a 0.86364686,0.86364686 0 1 1 -1.7273,0 0.86364686,0.86364686 0 1 1 1.7273,0 z" /><path
       sodipodi:type="arc"
       style="color:#000000;fill:#000000;fill-opacity:1;fill-rule:nonzero;stroke:#000000;stroke-width:0.80000001;stroke-linecap:round;stroke-linejoin:round;stroke-miterlimit:4;stroke-opacity:1;stroke-dasharray:none;stroke-dashoffset:0;marker:none;visibility:visible;display:inline;overflow:visible;enable-background:accumulate"
       id="path6621-2-7"
       sodipodi:cx="167.97931"
       sodipodi:cy="167.88548"
       sodipodi:rx="0.86364686"
       sodipodi:ry="0.86364686"
       d="m 168.84296,167.88548 a 0.86364686,0.86364686 0 1 1 -1.7273,0 0.86364686,0.86364686 0 1 1 1.7273,0 z"
       transform="translate(-30.071082,-63.471576)" /><path
       sodipodi:type="arc"
       style="color:#000000;fill:#000000;fill-opacity:1;fill-rule:nonzero;stroke:#000000;stroke-width:0.80000001;stroke-linecap:round;stroke-linejoin:round;stroke-miterlimit:4;stroke-opacity:1;stroke-dasharray:none;stroke-dashoffset:0;marker:none;visibility:visible;display:inline;overflow:visible;enable-background:accumulate"
       id="path6621-3-1"
       sodipodi:cx="167.97931"
       sodipodi:cy="167.88548"
       sodipodi:rx="0.86364686"
       sodipodi:ry="0.86364686"
       d="m 168.84296,167.88548 a 0.86364686,0.86364686 0 1 1 -1.7273,0 0.86364686,0.86364686 0 1 1 1.7273,0 z"
       transform="translate(-40.806452,-66.155416)" /><path
       sodipodi:type="arc"
       style="color:#000000;fill:#000000;fill-opacity:1;fill-rule:nonzero;stroke:#000000;stroke-width:0.80000001;stroke-linecap:round;stroke-linejoin:round;stroke-miterlimit:4;stroke-opacity:1;stroke-dasharray:none;stroke-dashoffset:0;marker:none;visibility:visible;display:inline;overflow:visible;enable-background:accumulate"
       id="path6621-0-2"
       sodipodi:cx="167.97931"
       sodipodi:cy="167.88548"
       sodipodi:rx="0.86364686"
       sodipodi:ry="0.86364686"
       d="m 168.84296,167.88548 a 0.86364686,0.86364686 0 1 1 -1.7273,0 0.86364686,0.86364686 0 1 1 1.7273,0 z"
       transform="translate(-42.458052,-52.529756)" /><path
       sodipodi:type="arc"
       style="color:#000000;fill:#000000;fill-opacity:1;fill-rule:nonzero;stroke:#000000;stroke-width:0.80000001;stroke-linecap:round;stroke-linejoin:round;stroke-miterlimit:4;stroke-opacity:1;stroke-dasharray:none;stroke-dashoffset:0;marker:none;visibility:visible;display:inline;overflow:visible;enable-background:accumulate"
       id="path6621-94-4"
       sodipodi:cx="167.97931"
       sodipodi:cy="167.88548"
       sodipodi:rx="0.86364686"
       sodipodi:ry="0.86364686"
       d="m 168.84296,167.88548 a 0.86364686,0.86364686 0 1 1 -1.7273,0 0.86364686,0.86364686 0 1 1 1.7273,0 z"
       transform="translate(-46.862302,-49.157746)" /><path
       sodipodi:type="arc"
       style="color:#000000;fill:#000000;fill-opacity:1;fill-rule:nonzero;stroke:#000000;stroke-width:0.80000001;stroke-linecap:round;stroke-linejoin:round;stroke-miterlimit:4;stroke-opacity:1;stroke-dasharray:none;stroke-dashoffset:0;marker:none;visibility:visible;display:inline;overflow:visible;enable-background:accumulate"
       id="path6621-38-9"
       sodipodi:cx="167.97931"
       sodipodi:cy="167.88548"
       sodipodi:rx="0.86364686"
       sodipodi:ry="0.86364686"
       d="m 168.84296,167.88548 a 0.86364686,0.86364686 0 1 1 -1.7273,0 0.86364686,0.86364686 0 1 1 1.7273,0 z"
       transform="translate(-40.600002,-49.433016)" /><path
       sodipodi:type="arc"
       style="color:#000000;fill:#000000;fill-opacity:1;fill-rule:nonzero;stroke:#000000;stroke-width:0.80000001;stroke-linecap:round;stroke-linejoin:round;stroke-miterlimit:4;stroke-opacity:1;stroke-dasharray:none;stroke-dashoffset:0;marker:none;visibility:visible;display:inline;overflow:visible;enable-background:accumulate"
       id="path6621-7-8"
       sodipodi:cx="167.97931"
       sodipodi:cy="167.88548"
       sodipodi:rx="0.86364686"
       sodipodi:ry="0.86364686"
       d="m 168.84296,167.88548 a 0.86364686,0.86364686 0 1 1 -1.7273,0 0.86364686,0.86364686 0 1 1 1.7273,0 z"
       transform="translate(-37.021542,-65.191986)" /><path
       sodipodi:type="arc"
       style="color:#000000;fill:#000000;fill-opacity:1;fill-rule:nonzero;stroke:#000000;stroke-width:0.80000001;stroke-linecap:round;stroke-linejoin:round;stroke-miterlimit:4;stroke-opacity:1;stroke-dasharray:none;stroke-dashoffset:0;marker:none;visibility:visible;display:inline;overflow:visible;enable-background:accumulate"
       id="path6621-21-8"
       sodipodi:cx="167.97931"
       sodipodi:cy="167.88548"
       sodipodi:rx="0.86364686"
       sodipodi:ry="0.86364686"
       d="m 168.84296,167.88548 a 0.86364686,0.86364686 0 1 1 -1.7273,0 0.86364686,0.86364686 0 1 1 1.7273,0 z"
       transform="translate(-32.686102,-70.215596)" /><path
       sodipodi:type="arc"
       style="color:#000000;fill:#000000;fill-opacity:1;fill-rule:nonzero;stroke:#000000;stroke-width:0.80000001;stroke-linecap:round;stroke-linejoin:round;stroke-miterlimit:4;stroke-opacity:1;stroke-dasharray:none;stroke-dashoffset:0;marker:none;visibility:visible;display:inline;overflow:visible;enable-background:accumulate"
       id="path6621-28-8"
       sodipodi:cx="167.97931"
       sodipodi:cy="167.88548"
       sodipodi:rx="0.86364686"
       sodipodi:ry="0.86364686"
       d="m 168.84296,167.88548 a 0.86364686,0.86364686 0 1 1 -1.7273,0 0.86364686,0.86364686 0 1 1 1.7273,0 z"
       transform="translate(-32.686102,-65.880156)" /><path
       sodipodi:type="arc"
       style="color:#000000;fill:#000000;fill-opacity:1;fill-rule:nonzero;stroke:#000000;stroke-width:0.80000001;stroke-linecap:round;stroke-linejoin:round;stroke-miterlimit:4;stroke-opacity:1;stroke-dasharray:none;stroke-dashoffset:0;marker:none;visibility:visible;display:inline;overflow:visible;enable-background:accumulate"
       id="path6621-72-7"
       sodipodi:cx="167.97931"
       sodipodi:cy="167.88548"
       sodipodi:rx="0.86364686"
       sodipodi:ry="0.86364686"
       d="m 168.84296,167.88548 a 0.86364686,0.86364686 0 1 1 -1.7273,0 0.86364686,0.86364686 0 1 1 1.7273,0 z"
       transform="translate(-44.040822,-67.050036)" /><path
       sodipodi:type="arc"
       style="color:#000000;fill:#000000;fill-opacity:1;fill-rule:nonzero;stroke:#000000;stroke-width:0.80000001;stroke-linecap:round;stroke-linejoin:round;stroke-miterlimit:4;stroke-opacity:1;stroke-dasharray:none;stroke-dashoffset:0;marker:none;visibility:visible;display:inline;overflow:visible;enable-background:accumulate"
       id="path6621-46-7"
       sodipodi:cx="167.97931"
       sodipodi:cy="167.88548"
       sodipodi:rx="0.86364686"
       sodipodi:ry="0.86364686"
       d="m 168.84296,167.88548 a 0.86364686,0.86364686 0 1 1 -1.7273,0 0.86364686,0.86364686 0 1 1 1.7273,0 z"
       transform="translate(-51.404192,-63.884476)" /><path
       sodipodi:type="arc"
       style="color:#000000;fill:#000000;fill-opacity:1;fill-rule:nonzero;stroke:#000000;stroke-width:0.80000001;stroke-linecap:round;stroke-linejoin:round;stroke-miterlimit:4;stroke-opacity:1;stroke-dasharray:none;stroke-dashoffset:0;marker:none;visibility:visible;display:inline;overflow:visible;enable-background:accumulate"
       id="path6621-23-1"
       sodipodi:cx="167.97931"
       sodipodi:cy="167.88548"
       sodipodi:rx="0.86364686"
       sodipodi:ry="0.86364686"
       d="m 168.84296,167.88548 a 0.86364686,0.86364686 0 1 1 -1.7273,0 0.86364686,0.86364686 0 1 1 1.7273,0 z"
       transform="translate(-54.294482,-58.310336)" /><path
       sodipodi:type="arc"
       style="color:#000000;fill:#000000;fill-opacity:1;fill-rule:nonzero;stroke:#000000;stroke-width:0.80000001;stroke-linecap:round;stroke-linejoin:round;stroke-miterlimit:4;stroke-opacity:1;stroke-dasharray:none;stroke-dashoffset:0;marker:none;visibility:visible;display:inline;overflow:visible;enable-background:accumulate"
       id="path6621-49-5"
       sodipodi:cx="167.97931"
       sodipodi:cy="167.88548"
       sodipodi:rx="0.86364686"
       sodipodi:ry="0.86364686"
       d="m 168.84296,167.88548 a 0.86364686,0.86364686 0 1 1 -1.7273,0 0.86364686,0.86364686 0 1 1 1.7273,0 z"
       transform="translate(-51.748272,-51.015796)" /><path
       sodipodi:type="arc"
       style="color:#000000;fill:#000000;fill-opacity:1;fill-rule:nonzero;stroke:#000000;stroke-width:0.80000001;stroke-linecap:round;stroke-linejoin:round;stroke-miterlimit:4;stroke-opacity:1;stroke-dasharray:none;stroke-dashoffset:0;marker:none;visibility:visible;display:inline;overflow:visible;enable-background:accumulate"
       id="path6621-729-9"
       sodipodi:cx="167.97931"
       sodipodi:cy="167.88548"
       sodipodi:rx="0.86364686"
       sodipodi:ry="0.86364686"
       d="m 168.84296,167.88548 a 0.86364686,0.86364686 0 1 1 -1.7273,0 0.86364686,0.86364686 0 1 1 1.7273,0 z"
       transform="translate(-52.711702,-47.368516)" /><path
       sodipodi:type="arc"
       style="color:#000000;fill:#000000;fill-opacity:1;fill-rule:nonzero;stroke:#000000;stroke-width:0.80000001;stroke-linecap:round;stroke-linejoin:round;stroke-miterlimit:4;stroke-opacity:1;stroke-dasharray:none;stroke-dashoffset:0;marker:none;visibility:visible;display:inline;overflow:visible;enable-background:accumulate"
       id="path6621-6-6"
       sodipodi:cx="167.97931"
       sodipodi:cy="167.88548"
       sodipodi:rx="0.86364686"
       sodipodi:ry="0.86364686"
       d="m 168.84296,167.88548 a 0.86364686,0.86364686 0 1 1 -1.7273,0 0.86364686,0.86364686 0 1 1 1.7273,0 z"
       transform="translate(-60.281512,-50.534076)" /><path
       sodipodi:type="arc"
       style="color:#000000;fill:#000000;fill-opacity:1;fill-rule:nonzero;stroke:#000000;stroke-width:0.80000001;stroke-linecap:round;stroke-linejoin:round;stroke-miterlimit:4;stroke-opacity:1;stroke-dasharray:none;stroke-dashoffset:0;marker:none;visibility:visible;display:inline;overflow:visible;enable-background:accumulate"
       id="path6621-1-0"
       sodipodi:cx="167.97931"
       sodipodi:cy="167.88548"
       sodipodi:rx="0.86364686"
       sodipodi:ry="0.86364686"
       d="m 168.84296,167.88548 a 0.86364686,0.86364686 0 1 1 -1.7273,0 0.86364686,0.86364686 0 1 1 1.7273,0 z"
       transform="translate(-55.051462,-53.837266)" /><path
       sodipodi:type="arc"
       style="color:#000000;fill:#000000;fill-opacity:1;fill-rule:nonzero;stroke:#000000;stroke-width:0.80000001;stroke-linecap:round;stroke-linejoin:round;stroke-miterlimit:4;stroke-opacity:1;stroke-dasharray:none;stroke-dashoffset:0;marker:none;visibility:visible;display:inline;overflow:visible;enable-background:accumulate"
       id="path6621-27-8"
       sodipodi:cx="167.97931"
       sodipodi:cy="167.88548"
       sodipodi:rx="0.86364686"
       sodipodi:ry="0.86364686"
       d="m 168.84296,167.88548 a 0.86364686,0.86364686 0 1 1 -1.7273,0 0.86364686,0.86364686 0 1 1 1.7273,0 z"
       transform="translate(-61.107312,-61.269446)" /><path
       sodipodi:type="arc"
       style="color:#000000;fill:#000000;fill-opacity:1;fill-rule:nonzero;stroke:#000000;stroke-width:0.80000001;stroke-linecap:round;stroke-linejoin:round;stroke-miterlimit:4;stroke-opacity:1;stroke-dasharray:none;stroke-dashoffset:0;marker:none;visibility:visible;display:inline;overflow:visible;enable-background:accumulate"
       id="path6621-47-0"
       sodipodi:cx="167.97931"
       sodipodi:cy="167.88548"
       sodipodi:rx="0.86364686"
       sodipodi:ry="0.86364686"
       d="m 168.84296,167.88548 a 0.86364686,0.86364686 0 1 1 -1.7273,0 0.86364686,0.86364686 0 1 1 1.7273,0 z"
       transform="translate(-60.694412,-55.901766)" /><path
       sodipodi:type="arc"
       style="color:#000000;fill:#000000;fill-opacity:1;fill-rule:nonzero;stroke:#000000;stroke-width:0.80000001;stroke-linecap:round;stroke-linejoin:round;stroke-miterlimit:4;stroke-opacity:1;stroke-dasharray:none;stroke-dashoffset:0;marker:none;visibility:visible;display:inline;overflow:visible;enable-background:accumulate"
       id="path6621-30-5"
       sodipodi:cx="167.97931"
       sodipodi:cy="167.88548"
       sodipodi:rx="0.86364686"
       sodipodi:ry="0.86364686"
       d="m 168.84296,167.88548 a 0.86364686,0.86364686 0 1 1 -1.7273,0 0.86364686,0.86364686 0 1 1 1.7273,0 z"
       transform="translate(-58.561102,-62.783416)" /><path
       sodipodi:type="arc"
       style="color:#000000;fill:#000000;fill-opacity:1;fill-rule:nonzero;stroke:#000000;stroke-width:0.80000001;stroke-linecap:round;stroke-linejoin:round;stroke-miterlimit:4;stroke-opacity:1;stroke-dasharray:none;stroke-dashoffset:0;marker:none;visibility:visible;display:inline;overflow:visible;enable-background:accumulate"
       id="path6621-39-9"
       sodipodi:cx="167.97931"
       sodipodi:cy="167.88548"
       sodipodi:rx="0.86364686"
       sodipodi:ry="0.86364686"
       d="m 168.84296,167.88548 a 0.86364686,0.86364686 0 1 1 -1.7273,0 0.86364686,0.86364686 0 1 1 1.7273,0 z"
       transform="translate(-54.638562,-68.151096)" /></g><g
     inkscape:groupmode="layer"
     id="layer6"
     inkscape:label="mouth-close"
     style="display:inline"
     transform="translate(0,40)"><g
       style="display:inline"
       id="mouth-close-3"
       transform="matrix(-1,0,0,1,170.58116,4.3016148)"><path
         stroke-miterlimit="10"
         d="m 27.363138,104.0829 c 5.039714,-0.15376 10.566841,0.62293 22.216592,-0.95589"
         id="path3568-5"
         inkscape:connector-curvature="0"
         style="fill:#ffffff;fill-opacity:1;stroke:#000000;stroke-width:2.66109991;stroke-miterlimit:10"
         sodipodi:nodetypes="cc" /></g><path
       inkscape:connector-curvature="0"
       id="path66"
       style="fill:#000000;fill-opacity:1;fill-rule:evenodd;stroke:none"
       d="m 138.27963,112.58865 c 0,0 -1.57193,0.94381 -2.07956,0.80086 -0.50794,-0.14402 -2.07215,0.14007 -2.60391,0.42607 -0.5319,0.28548 -1.33789,0.59856 -2.22707,0.60576 -0.88919,0.007 -2.14719,0.72483 -2.62735,0.85543 -0.48069,0.13076 -1.29821,-0.11623 -2.12373,0.29547 -0.82579,0.4129 -1.82201,0.90823 -2.66351,1.09076 -0.28284,0.0606 -2.5139,0.20355 -2.36117,0.41785 l 6.90579,9.71913 c 3.63704,-2.60384 4.28761,-2.6045 8.77668,-2.38719 l 1.00383,-11.82413" /><path
       sodipodi:type="arc"
       style="color:#000000;fill:#000000;fill-opacity:1;fill-rule:nonzero;stroke:#000000;stroke-width:0.80000001;stroke-linecap:round;stroke-linejoin:round;stroke-miterlimit:4;stroke-opacity:1;stroke-dasharray:none;stroke-dashoffset:0;marker:none;visibility:visible;display:inline;overflow:visible;enable-background:accumulate"
       id="path6621"
       sodipodi:cx="167.97931"
       sodipodi:cy="167.88548"
       sodipodi:rx="0.86364686"
       sodipodi:ry="0.86364686"
       d="m 168.84296,167.88548 a 0.86364686,0.86364686 0 1 1 -1.7273,0 0.86364686,0.86364686 0 1 1 1.7273,0 z"
       transform="translate(-32.386758,-62.886642)" /><path
       transform="translate(-26.773046,-65.477579)"
       sodipodi:type="arc"
       style="color:#000000;fill:#000000;fill-opacity:1;fill-rule:nonzero;stroke:#000000;stroke-width:0.80000001;stroke-linecap:round;stroke-linejoin:round;stroke-miterlimit:4;stroke-opacity:1;stroke-dasharray:none;stroke-dashoffset:0;marker:none;visibility:visible;display:inline;overflow:visible;enable-background:accumulate"
       id="path6621-4"
       sodipodi:cx="167.97931"
       sodipodi:cy="167.88548"
       sodipodi:rx="0.86364686"
       sodipodi:ry="0.86364686"
       d="m 168.84296,167.88548 a 0.86364686,0.86364686 0 1 1 -1.7273,0 0.86364686,0.86364686 0 1 1 1.7273,0 z" /><path
       style="fill:none;stroke:#000000;stroke-width:1px;stroke-linecap:butt;stroke-linejoin:miter;stroke-opacity:1"
       d="m 121.94281,143.10639 -1.92686,10.18484"
       id="path6641"
       inkscape:path-effect="#path-effect6643"
       inkscape:original-d="m 121.94281,143.10639 c -0.7725,3.14641 -3.39783,6.87517 -1.92686,10.18484"
       inkscape:connector-curvature="0"
       transform="translate(0,-40)" /><path
       sodipodi:type="arc"
       style="color:#000000;fill:#000000;fill-opacity:1;fill-rule:nonzero;stroke:#000000;stroke-width:0.80000001;stroke-linecap:round;stroke-linejoin:round;stroke-miterlimit:4;stroke-opacity:1;stroke-dasharray:none;stroke-dashoffset:0;marker:none;visibility:visible;display:inline;overflow:visible;enable-background:accumulate"
       id="path6621-2"
       sodipodi:cx="167.97931"
       sodipodi:cy="167.88548"
       sodipodi:rx="0.86364686"
       sodipodi:ry="0.86364686"
       d="m 168.84296,167.88548 a 0.86364686,0.86364686 0 1 1 -1.7273,0 0.86364686,0.86364686 0 1 1 1.7273,0 z"
       transform="translate(-30.071076,-63.471579)" /><path
       sodipodi:type="arc"
       style="color:#000000;fill:#000000;fill-opacity:1;fill-rule:nonzero;stroke:#000000;stroke-width:0.80000001;stroke-linecap:round;stroke-linejoin:round;stroke-miterlimit:4;stroke-opacity:1;stroke-dasharray:none;stroke-dashoffset:0;marker:none;visibility:visible;display:inline;overflow:visible;enable-background:accumulate"
       id="path6621-3"
       sodipodi:cx="167.97931"
       sodipodi:cy="167.88548"
       sodipodi:rx="0.86364686"
       sodipodi:ry="0.86364686"
       d="m 168.84296,167.88548 a 0.86364686,0.86364686 0 1 1 -1.7273,0 0.86364686,0.86364686 0 1 1 1.7273,0 z"
       transform="translate(-40.806447,-66.155422)" /><path
       sodipodi:type="arc"
       style="color:#000000;fill:#000000;fill-opacity:1;fill-rule:nonzero;stroke:#000000;stroke-width:0.80000001;stroke-linecap:round;stroke-linejoin:round;stroke-miterlimit:4;stroke-opacity:1;stroke-dasharray:none;stroke-dashoffset:0;marker:none;visibility:visible;display:inline;overflow:visible;enable-background:accumulate"
       id="path6621-0"
       sodipodi:cx="167.97931"
       sodipodi:cy="167.88548"
       sodipodi:rx="0.86364686"
       sodipodi:ry="0.86364686"
       d="m 168.84296,167.88548 a 0.86364686,0.86364686 0 1 1 -1.7273,0 0.86364686,0.86364686 0 1 1 1.7273,0 z"
       transform="translate(-42.458043,-52.529758)" /><path
       sodipodi:type="arc"
       style="color:#000000;fill:#000000;fill-opacity:1;fill-rule:nonzero;stroke:#000000;stroke-width:0.80000001;stroke-linecap:round;stroke-linejoin:round;stroke-miterlimit:4;stroke-opacity:1;stroke-dasharray:none;stroke-dashoffset:0;marker:none;visibility:visible;display:inline;overflow:visible;enable-background:accumulate"
       id="path6621-9"
       sodipodi:cx="167.97931"
       sodipodi:cy="167.88548"
       sodipodi:rx="0.86364686"
       sodipodi:ry="0.86364686"
       d="m 168.84296,167.88548 a 0.86364686,0.86364686 0 1 1 -1.7273,0 0.86364686,0.86364686 0 1 1 1.7273,0 z"
       transform="translate(-45.417152,-57.209279)" /><path
       sodipodi:type="arc"
       style="color:#000000;fill:#000000;fill-opacity:1;fill-rule:nonzero;stroke:#000000;stroke-width:0.80000001;stroke-linecap:round;stroke-linejoin:round;stroke-miterlimit:4;stroke-opacity:1;stroke-dasharray:none;stroke-dashoffset:0;marker:none;visibility:visible;display:inline;overflow:visible;enable-background:accumulate"
       id="path6621-94"
       sodipodi:cx="167.97931"
       sodipodi:cy="167.88548"
       sodipodi:rx="0.86364686"
       sodipodi:ry="0.86364686"
       d="m 168.84296,167.88548 a 0.86364686,0.86364686 0 1 1 -1.7273,0 0.86364686,0.86364686 0 1 1 1.7273,0 z"
       transform="translate(-46.862298,-49.15775)" /><path
       sodipodi:type="arc"
       style="color:#000000;fill:#000000;fill-opacity:1;fill-rule:nonzero;stroke:#000000;stroke-width:0.80000001;stroke-linecap:round;stroke-linejoin:round;stroke-miterlimit:4;stroke-opacity:1;stroke-dasharray:none;stroke-dashoffset:0;marker:none;visibility:visible;display:inline;overflow:visible;enable-background:accumulate"
       id="path6621-38"
       sodipodi:cx="167.97931"
       sodipodi:cy="167.88548"
       sodipodi:rx="0.86364686"
       sodipodi:ry="0.86364686"
       d="m 168.84296,167.88548 a 0.86364686,0.86364686 0 1 1 -1.7273,0 0.86364686,0.86364686 0 1 1 1.7273,0 z"
       transform="translate(-40.599998,-49.433016)" /><path
       sodipodi:type="arc"
       style="color:#000000;fill:#000000;fill-opacity:1;fill-rule:nonzero;stroke:#000000;stroke-width:0.80000001;stroke-linecap:round;stroke-linejoin:round;stroke-miterlimit:4;stroke-opacity:1;stroke-dasharray:none;stroke-dashoffset:0;marker:none;visibility:visible;display:inline;overflow:visible;enable-background:accumulate"
       id="path6621-7"
       sodipodi:cx="167.97931"
       sodipodi:cy="167.88548"
       sodipodi:rx="0.86364686"
       sodipodi:ry="0.86364686"
       d="m 168.84296,167.88548 a 0.86364686,0.86364686 0 1 1 -1.7273,0 0.86364686,0.86364686 0 1 1 1.7273,0 z"
       transform="translate(-37.021541,-65.191991)" /><path
       sodipodi:type="arc"
       style="color:#000000;fill:#000000;fill-opacity:1;fill-rule:nonzero;stroke:#000000;stroke-width:0.80000001;stroke-linecap:round;stroke-linejoin:round;stroke-miterlimit:4;stroke-opacity:1;stroke-dasharray:none;stroke-dashoffset:0;marker:none;visibility:visible;display:inline;overflow:visible;enable-background:accumulate"
       id="path6621-21"
       sodipodi:cx="167.97931"
       sodipodi:cy="167.88548"
       sodipodi:rx="0.86364686"
       sodipodi:ry="0.86364686"
       d="m 168.84296,167.88548 a 0.86364686,0.86364686 0 1 1 -1.7273,0 0.86364686,0.86364686 0 1 1 1.7273,0 z"
       transform="translate(-32.686102,-70.215594)" /><path
       sodipodi:type="arc"
       style="color:#000000;fill:#000000;fill-opacity:1;fill-rule:nonzero;stroke:#000000;stroke-width:0.80000001;stroke-linecap:round;stroke-linejoin:round;stroke-miterlimit:4;stroke-opacity:1;stroke-dasharray:none;stroke-dashoffset:0;marker:none;visibility:visible;display:inline;overflow:visible;enable-background:accumulate"
       id="path6621-28"
       sodipodi:cx="167.97931"
       sodipodi:cy="167.88548"
       sodipodi:rx="0.86364686"
       sodipodi:ry="0.86364686"
       d="m 168.84296,167.88548 a 0.86364686,0.86364686 0 1 1 -1.7273,0 0.86364686,0.86364686 0 1 1 1.7273,0 z"
       transform="translate(-32.686102,-65.880156)" /><path
       sodipodi:type="arc"
       style="color:#000000;fill:#000000;fill-opacity:1;fill-rule:nonzero;stroke:#000000;stroke-width:0.80000001;stroke-linecap:round;stroke-linejoin:round;stroke-miterlimit:4;stroke-opacity:1;stroke-dasharray:none;stroke-dashoffset:0;marker:none;visibility:visible;display:inline;overflow:visible;enable-background:accumulate"
       id="path6621-72"
       sodipodi:cx="167.97931"
       sodipodi:cy="167.88548"
       sodipodi:rx="0.86364686"
       sodipodi:ry="0.86364686"
       d="m 168.84296,167.88548 a 0.86364686,0.86364686 0 1 1 -1.7273,0 0.86364686,0.86364686 0 1 1 1.7273,0 z"
       transform="translate(-44.040822,-67.050036)" /><path
       sodipodi:type="arc"
       style="color:#000000;fill:#000000;fill-opacity:1;fill-rule:nonzero;stroke:#000000;stroke-width:0.80000001;stroke-linecap:round;stroke-linejoin:round;stroke-miterlimit:4;stroke-opacity:1;stroke-dasharray:none;stroke-dashoffset:0;marker:none;visibility:visible;display:inline;overflow:visible;enable-background:accumulate"
       id="path6621-46"
       sodipodi:cx="167.97931"
       sodipodi:cy="167.88548"
       sodipodi:rx="0.86364686"
       sodipodi:ry="0.86364686"
       d="m 168.84296,167.88548 a 0.86364686,0.86364686 0 1 1 -1.7273,0 0.86364686,0.86364686 0 1 1 1.7273,0 z"
       transform="translate(-51.404186,-63.884478)" /><path
       sodipodi:type="arc"
       style="color:#000000;fill:#000000;fill-opacity:1;fill-rule:nonzero;stroke:#000000;stroke-width:0.80000001;stroke-linecap:round;stroke-linejoin:round;stroke-miterlimit:4;stroke-opacity:1;stroke-dasharray:none;stroke-dashoffset:0;marker:none;visibility:visible;display:inline;overflow:visible;enable-background:accumulate"
       id="path6621-23"
       sodipodi:cx="167.97931"
       sodipodi:cy="167.88548"
       sodipodi:rx="0.86364686"
       sodipodi:ry="0.86364686"
       d="m 168.84296,167.88548 a 0.86364686,0.86364686 0 1 1 -1.7273,0 0.86364686,0.86364686 0 1 1 1.7273,0 z"
       transform="translate(-54.294478,-58.310342)" /><path
       sodipodi:type="arc"
       style="color:#000000;fill:#000000;fill-opacity:1;fill-rule:nonzero;stroke:#000000;stroke-width:0.80000001;stroke-linecap:round;stroke-linejoin:round;stroke-miterlimit:4;stroke-opacity:1;stroke-dasharray:none;stroke-dashoffset:0;marker:none;visibility:visible;display:inline;overflow:visible;enable-background:accumulate"
       id="path6621-49"
       sodipodi:cx="167.97931"
       sodipodi:cy="167.88548"
       sodipodi:rx="0.86364686"
       sodipodi:ry="0.86364686"
       d="m 168.84296,167.88548 a 0.86364686,0.86364686 0 1 1 -1.7273,0 0.86364686,0.86364686 0 1 1 1.7273,0 z"
       transform="translate(-51.748268,-51.015795)" /><path
       sodipodi:type="arc"
       style="color:#000000;fill:#000000;fill-opacity:1;fill-rule:nonzero;stroke:#000000;stroke-width:0.80000001;stroke-linecap:round;stroke-linejoin:round;stroke-miterlimit:4;stroke-opacity:1;stroke-dasharray:none;stroke-dashoffset:0;marker:none;visibility:visible;display:inline;overflow:visible;enable-background:accumulate"
       id="path6621-729"
       sodipodi:cx="167.97931"
       sodipodi:cy="167.88548"
       sodipodi:rx="0.86364686"
       sodipodi:ry="0.86364686"
       d="m 168.84296,167.88548 a 0.86364686,0.86364686 0 1 1 -1.7273,0 0.86364686,0.86364686 0 1 1 1.7273,0 z"
       transform="translate(-52.711699,-47.368521)" /><path
       sodipodi:type="arc"
       style="color:#000000;fill:#000000;fill-opacity:1;fill-rule:nonzero;stroke:#000000;stroke-width:0.80000001;stroke-linecap:round;stroke-linejoin:round;stroke-miterlimit:4;stroke-opacity:1;stroke-dasharray:none;stroke-dashoffset:0;marker:none;visibility:visible;display:inline;overflow:visible;enable-background:accumulate"
       id="path6621-6"
       sodipodi:cx="167.97931"
       sodipodi:cy="167.88548"
       sodipodi:rx="0.86364686"
       sodipodi:ry="0.86364686"
       d="m 168.84296,167.88548 a 0.86364686,0.86364686 0 1 1 -1.7273,0 0.86364686,0.86364686 0 1 1 1.7273,0 z"
       transform="translate(-60.281512,-50.53408)" /><path
       sodipodi:type="arc"
       style="color:#000000;fill:#000000;fill-opacity:1;fill-rule:nonzero;stroke:#000000;stroke-width:0.80000001;stroke-linecap:round;stroke-linejoin:round;stroke-miterlimit:4;stroke-opacity:1;stroke-dasharray:none;stroke-dashoffset:0;marker:none;visibility:visible;display:inline;overflow:visible;enable-background:accumulate"
       id="path6621-1"
       sodipodi:cx="167.97931"
       sodipodi:cy="167.88548"
       sodipodi:rx="0.86364686"
       sodipodi:ry="0.86364686"
       d="m 168.84296,167.88548 a 0.86364686,0.86364686 0 1 1 -1.7273,0 0.86364686,0.86364686 0 1 1 1.7273,0 z"
       transform="translate(-55.051459,-53.837271)" /><path
       sodipodi:type="arc"
       style="color:#000000;fill:#000000;fill-opacity:1;fill-rule:nonzero;stroke:#000000;stroke-width:0.80000001;stroke-linecap:round;stroke-linejoin:round;stroke-miterlimit:4;stroke-opacity:1;stroke-dasharray:none;stroke-dashoffset:0;marker:none;visibility:visible;display:inline;overflow:visible;enable-background:accumulate"
       id="path6621-27"
       sodipodi:cx="167.97931"
       sodipodi:cy="167.88548"
       sodipodi:rx="0.86364686"
       sodipodi:ry="0.86364686"
       d="m 168.84296,167.88548 a 0.86364686,0.86364686 0 1 1 -1.7273,0 0.86364686,0.86364686 0 1 1 1.7273,0 z"
       transform="translate(-61.10731,-61.269451)" /><path
       sodipodi:type="arc"
       style="color:#000000;fill:#000000;fill-opacity:1;fill-rule:nonzero;stroke:#000000;stroke-width:0.80000001;stroke-linecap:round;stroke-linejoin:round;stroke-miterlimit:4;stroke-opacity:1;stroke-dasharray:none;stroke-dashoffset:0;marker:none;visibility:visible;display:inline;overflow:visible;enable-background:accumulate"
       id="path6621-47"
       sodipodi:cx="167.97931"
       sodipodi:cy="167.88548"
       sodipodi:rx="0.86364686"
       sodipodi:ry="0.86364686"
       d="m 168.84296,167.88548 a 0.86364686,0.86364686 0 1 1 -1.7273,0 0.86364686,0.86364686 0 1 1 1.7273,0 z"
       transform="translate(-60.694411,-55.901765)" /><path
       sodipodi:type="arc"
       style="color:#000000;fill:#000000;fill-opacity:1;fill-rule:nonzero;stroke:#000000;stroke-width:0.80000001;stroke-linecap:round;stroke-linejoin:round;stroke-miterlimit:4;stroke-opacity:1;stroke-dasharray:none;stroke-dashoffset:0;marker:none;visibility:visible;display:inline;overflow:visible;enable-background:accumulate"
       id="path6621-30"
       sodipodi:cx="167.97931"
       sodipodi:cy="167.88548"
       sodipodi:rx="0.86364686"
       sodipodi:ry="0.86364686"
       d="m 168.84296,167.88548 a 0.86364686,0.86364686 0 1 1 -1.7273,0 0.86364686,0.86364686 0 1 1 1.7273,0 z"
       transform="translate(-58.5611,-62.783414)" /><path
       sodipodi:type="arc"
       style="color:#000000;fill:#000000;fill-opacity:1;fill-rule:nonzero;stroke:#000000;stroke-width:0.80000001;stroke-linecap:round;stroke-linejoin:round;stroke-miterlimit:4;stroke-opacity:1;stroke-dasharray:none;stroke-dashoffset:0;marker:none;visibility:visible;display:inline;overflow:visible;enable-background:accumulate"
       id="path6621-39"
       sodipodi:cx="167.97931"
       sodipodi:cy="167.88548"
       sodipodi:rx="0.86364686"
       sodipodi:ry="0.86364686"
       d="m 168.84296,167.88548 a 0.86364686,0.86364686 0 1 1 -1.7273,0 0.86364686,0.86364686 0 1 1 1.7273,0 z"
       transform="translate(-54.63856,-68.1511)" /></g><g
     inkscape:groupmode="layer"
     id="layer7"
     inkscape:label="eyes"
     style="display:inline"
     transform="translate(0,40)"><circle
       d="m 41.807999,83.438004 c 0,1.469629 -1.19137,2.661 -2.661,2.661 -1.469629,0 -2.661,-1.191371 -2.661,-2.661 0,-1.46963 1.191371,-2.661 2.661,-2.661 1.46963,0 2.661,1.19137 2.661,2.661 z"
       style="stroke:#000000;stroke-width:2.66109991;stroke-miterlimit:10"
       sodipodi:ry="2.661"
       sodipodi:rx="2.661"
       sodipodi:cy="83.438004"
       sodipodi:cx="39.146999"
       id="circle3535-9"
       r="2.661"
       cy="83.438004"
       cx="39.146999"
       stroke-miterlimit="10"
       transform="matrix(-0.84604453,0,0,0.84604453,173.02681,16.756348)" /><circle
       d="m 73.143002,83.438004 c 0,1.469629 -1.19137,2.661 -2.661,2.661 -1.469629,0 -2.661,-1.191371 -2.661,-2.661 0,-1.46963 1.191371,-2.661 2.661,-2.661 1.46963,0 2.661,1.19137 2.661,2.661 z"
       style="stroke:#000000;stroke-width:2.66109991;stroke-miterlimit:10"
       sodipodi:ry="2.661"
       sodipodi:rx="2.661"
       sodipodi:cy="83.438004"
       sodipodi:cx="70.482002"
       id="circle3537-0"
       r="2.661"
       cy="83.438004"
       cx="70.482002"
       stroke-miterlimit="10"
       transform="matrix(-0.84604453,0,0,0.84604453,179.26509,16.756348)" /></g><g
     inkscape:groupmode="layer"
     id="layer8"
     inkscape:label="eyes-dead"
     style="display:inline"
     transform="translate(0,40)"><path
       style="fill:none;stroke:#000000;stroke-width:1.98097038;stroke-linecap:round;stroke-linejoin:round;stroke-miterlimit:4;stroke-opacity:1;stroke-dasharray:none;display:inline"
       d="m 134.57912,92.269952 9.97476,-9.286433"
       id="path4984-6"
       inkscape:connector-curvature="0"
       sodipodi:nodetypes="cc" /><path
       style="fill:none;stroke:#000000;stroke-width:1.98097038;stroke-linecap:round;stroke-linejoin:round;stroke-miterlimit:4;stroke-opacity:1;stroke-dasharray:none;display:inline"
       d="M 144.25693,92.312297 134.53275,82.76379"
       id="path4984-6-8"
       inkscape:connector-curvature="0"
       sodipodi:nodetypes="cc" /><path
       style="fill:none;stroke:#000000;stroke-width:1.94259083;stroke-linecap:round;stroke-linejoin:round;stroke-miterlimit:4;stroke-opacity:1;stroke-dasharray:none;display:inline"
       d="m 115.51708,81.973059 8.965,9.911369"
       id="path4984-6-3"
       inkscape:connector-curvature="0"
       sodipodi:nodetypes="cc" /><path
       style="fill:none;stroke:#000000;stroke-width:1.94259083;stroke-linecap:round;stroke-linejoin:round;stroke-miterlimit:4;stroke-opacity:1;stroke-dasharray:none;display:inline"
       d="m 115.33917,91.461802 9.4996,-9.400227"
       id="path4984-6-8-6"
       inkscape:connector-curvature="0"
       sodipodi:nodetypes="cc" /></g><g
     inkscape:groupmode="layer"
     id="layer10"
     inkscape:label="legs"
     style="display:inline"
     transform="translate(0,40)"><polygon
       style="fill:#b44f4f;fill-opacity:1;stroke:#000000;stroke-width:2.66109990999999990;stroke-miterlimit:10;stroke-opacity:1"
       id="polygon3512-6"
       points="107.951,187.223 109.674,161.671 78.472,161.671 79.811,187.223 "
       stroke-miterlimit="10"
       transform="matrix(-1,0,0,1,177.21676,4)" /><path
       style="fill:#2b2b2b;fill-opacity:1;stroke:#000000;stroke-width:2.8657999;stroke-miterlimit:10"
       inkscape:connector-curvature="0"
       id="path3514-0"
       d="m 100.18276,195.974 c -1.873,3.236 -31.033,1.13 -31.033,1.13 v -5.826 c 5.694,0.252 35.768,-3.477 31.033,4.696 z"
       stroke-miterlimit="10" /><polygon
       style="fill:#b44f4f;fill-opacity:1;stroke:#000000;stroke-width:2.66109990999999990;stroke-miterlimit:10"
       id="polygon3507-4"
       points="80.542,187.223 80.542,161.671 49.185,161.671 51.064,187.223 "
       stroke-miterlimit="10"
       transform="matrix(-1,0,0,1,177.21676,4)" /><path
       style="fill:#2b2b2b;fill-opacity:1;stroke:#000000;stroke-width:2.66109991;stroke-miterlimit:10"
       inkscape:connector-curvature="0"
       id="path3509-1"
       d="m 128.03176,195.514 c -1.769,2.957 -29.288,1.031 -29.288,1.031 v -5.322 c 5.374,0.231 33.757,-3.177 29.288,4.291 z"
       stroke-miterlimit="10" /></g></svg>