<?xml version="1.0" encoding="UTF-8" standalone="no"?>
<!-- Generator: Adobe Illustrator 16.0.0, SVG Export Plug-In . SVG Version: 6.00 Build 0)  -->

<svg
   xmlns:dc="http://purl.org/dc/elements/1.1/"
   xmlns:cc="http://creativecommons.org/ns#"
   xmlns:rdf="http://www.w3.org/1999/02/22-rdf-syntax-ns#"
   xmlns:svg="http://www.w3.org/2000/svg"
   xmlns="http://www.w3.org/2000/svg"
   xmlns:xlink="http://www.w3.org/1999/xlink"
   xmlns:sodipodi="http://sodipodi.sourceforge.net/DTD/sodipodi-0.dtd"
   xmlns:inkscape="http://www.inkscape.org/namespaces/inkscape"
   version="1.1"
   x="0px"
   y="0px"
   width="200"
   height="240"
   viewBox="0 0 200 240"
   enable-background="new 0 0 150 200"
   xml:space="preserve"
   id="svg3501"
   inkscape:version="0.48.2 r9819"
   sodipodi:docname="char-girl.svg"><metadata
     id="metadata3577"><rdf:RDF><cc:Work
         rdf:about=""><dc:format>image/svg+xml</dc:format><dc:type
           rdf:resource="http://purl.org/dc/dcmitype/StillImage" /><dc:title /></cc:Work></rdf:RDF></metadata><defs
     id="defs3575"><inkscape:path-effect
       effect="spiro"
       id="path-effect13501"
       is_visible="true" /><inkscape:path-effect
       effect="spiro"
       id="path-effect13497"
       is_visible="true" /><inkscape:path-effect
       effect="spiro"
       id="path-effect13493"
       is_visible="true" /><inkscape:path-effect
       effect="spiro"
       id="path-effect13477"
       is_visible="true" /><inkscape:path-effect
       effect="spiro"
       id="path-effect13469"
       is_visible="true" /><inkscape:path-effect
       effect="spiro"
       id="path-effect13465"
       is_visible="true" /><inkscape:path-effect
       effect="spiro"
       id="path-effect13461"
       is_visible="true" /></defs><sodipodi:namedview
     pagecolor="#ffffff"
     bordercolor="#666666"
     borderopacity="1"
     objecttolerance="10"
     gridtolerance="10"
     guidetolerance="10"
     inkscape:pageopacity="0"
     inkscape:pageshadow="2"
     inkscape:window-width="1240"
     inkscape:window-height="975"
     id="namedview3573"
     showgrid="false"
     inkscape:zoom="3.2406102"
     inkscape:cx="67.507382"
     inkscape:cy="82.966122"
     inkscape:window-x="0"
     inkscape:window-y="0"
     inkscape:window-maximized="0"
     inkscape:current-layer="layer4"
     showguides="true"
     inkscape:guide-bbox="true" /><g
     id="Layer_1"
     display="none"
     style="display:none"
     transform="translate(0,40)">
	
		<image
   sodipodi:absref="/Users/max/work/keyfight/graphics/characters/../../../tmp/inspiration/bighead1.jpg"
   xlink:href="../../../tmp/inspiration/bighead1.jpg"
   id="image3504"
   transform="translate(11.5,-20.3335)"
   height="232"
   width="128"
   overflow="visible"
   display="inline"
   style="display:inline;overflow:visible">
	</image>
</g><g
     id="eyes-hit"
     display="none"
     style="display:none"
     transform="translate(0,40)">
	<g
   display="inline"
   id="g3540"
   style="display:inline">
		<g
   id="g3542">
			<path
   d="m 32.18,91.841 c 5.342,-4.599 10.684,-9.198 16.025,-13.796 1.303,-1.122 -0.588,-2.995 -1.882,-1.882 -5.342,4.599 -10.684,9.198 -16.025,13.796 -1.302,1.122 0.589,2.996 1.882,1.882 l 0,0 z"
   id="path3544"
   inkscape:connector-curvature="0" />
		</g>
	</g>
	<g
   display="inline"
   id="g3546"
   style="display:inline">
		<g
   id="g3548">
			<path
   d="M 48.454,89.953 C 43.032,85.354 37.609,80.755 32.187,76.157 c -1.31,-1.111 -3.216,0.776 -1.896,1.896 5.422,4.599 10.845,9.198 16.267,13.796 1.311,1.11 3.217,-0.777 1.896,-1.896 l 0,0 z"
   id="path3550"
   inkscape:connector-curvature="0" />
		</g>
	</g>
	<g
   display="inline"
   id="g3552"
   style="display:inline">
		<g
   id="g3554">
			<path
   d="m 63.289,91.277 c 5.342,-4.599 10.684,-9.197 16.025,-13.796 1.303,-1.122 -0.588,-2.995 -1.881,-1.882 -5.342,4.599 -10.684,9.197 -16.026,13.796 -1.303,1.122 0.589,2.996 1.882,1.882 l 0,0 z"
   id="path3556"
   inkscape:connector-curvature="0" />
		</g>
	</g>
	<g
   display="inline"
   id="g3558"
   style="display:inline">
		<g
   id="g3560">
			<path
   d="M 79.564,89.389 C 74.141,84.79 68.719,80.192 63.296,75.593 c -1.31,-1.111 -3.216,0.776 -1.896,1.896 5.422,4.599 10.845,9.197 16.267,13.796 1.311,1.111 3.217,-0.777 1.897,-1.896 l 0,0 z"
   id="path3562"
   inkscape:connector-curvature="0" />
		</g>
	</g>
</g><g
     id="mouth-open"
     display="none"
     style="display:none"
     transform="translate(0,40)">
	<path
   display="inline"
   stroke-miterlimit="10"
   d="m 28.396,106.623 c 5.983,-0.047 23.021,10.672 24.602,1.321 1.411,-8.349 -7.78,-9.425 -15.469,-9.13 -7.688,0.295 -9.133,-0.024 -9.133,-0.024"
   id="path3565"
   inkscape:connector-curvature="0"
   style="fill:#ffffff;stroke:#000000;stroke-width:2.66109991;stroke-miterlimit:10;display:inline" />
</g><g
     id="mouth-hit"
     display="none"
     style="display:none"
     transform="translate(0,40)">
	<path
   display="inline"
   stroke-miterlimit="10"
   d="m 27.503,103.144 c 15.18,-3.031 27.749,-1.211 39.523,3.958"
   id="path3571"
   inkscape:connector-curvature="0"
   style="fill:none;stroke:#000000;stroke-width:2.66109991;stroke-miterlimit:10;display:inline" />
</g><g
     inkscape:groupmode="layer"
     id="layer1"
     inkscape:label="torso"
     style="display:inline"
     transform="translate(0,40)"><path
       style="fill:#f1e8d9;stroke:#000000;stroke-width:2.66109991;stroke-miterlimit:10"
       inkscape:connector-curvature="0"
       id="path3517-3"
       d="m 109.42776,150.011 c -0.206,3.008 1.775,13.012 3.845,13.603 2.07,0.591 11.826,2.068 13.896,1.478 2.07,-0.59 7.413,-7.706 7.365,-15.141"
       stroke-miterlimit="10" /><path
       style="fill:#f381ee;fill-opacity:1;stroke:#000000;stroke-width:2.66109991;stroke-miterlimit:10"
       inkscape:connector-curvature="0"
       id="path3519-3"
       d="m 134.53376,149.951 c -0.016,-2.382 -0.86,-7.923 -1.155,-11.175 -0.295,-3.254 -2.365,-12.124 -2.957,-13.602 -0.592,-1.479 -5.409,-6.174 -5.409,-6.174 l -14.124,4.028 c -1.138,7.513 -1.63,15.742 -1.461,26.982 0.022,1.431 25.106,-0.059 25.106,-0.059 z"
       stroke-miterlimit="10" /><g
       style="fill:#f381ee;fill-opacity:1;display:inline"
       id="torso-5"
       transform="matrix(-1,0,0,1,177.21676,4)"><path
         stroke-miterlimit="10"
         d="m 47.691908,153.50938 c 0.296,5.618 1.493092,6.94362 1.493092,6.94362 l 60.04,0 c 0,0 -1.513,-42.284 -3.461,-44.255 -1.948,-1.972 -52.077263,1.89293 -52.077263,1.89293 0,0 -6.290829,29.80145 -5.994829,35.41845 z"
         id="path3522-8"
         inkscape:connector-curvature="0"
         style="fill:#cf14c7;fill-opacity:1;stroke:#000000;stroke-width:2.66109990999999990;stroke-miterlimit:10"
         sodipodi:nodetypes="sccccs" /></g><path
       style="fill:#f1e8d9;stroke:#000000;stroke-width:2.66109991;stroke-miterlimit:10"
       inkscape:connector-curvature="0"
       id="path3525-8"
       d="m 88.98676,149.236 c 0.206,3.008 -1.774,13.012 -3.845,13.603 -2.069,0.591 -11.826,2.068 -13.896,1.478 -2.07,-0.59 -7.412,-7.705 -7.364,-15.14"
       stroke-miterlimit="10" /><path
       style="fill:#f381ee;fill-opacity:1;stroke:#000000;stroke-width:2.66109991;stroke-miterlimit:10"
       inkscape:connector-curvature="0"
       id="path3527-1"
       d="m 63.88176,149.176 c 0.016,-2.383 0.859,-7.923 1.155,-11.176 0.295,-3.253 2.365,-12.124 2.956,-13.602 0.592,-1.479 5.409,-6.173 5.409,-6.173 l 14.125,4.027 c 1.137,7.514 1.63,15.743 1.46,26.982 -0.021,1.433 -25.105,-0.058 -25.105,-0.058 z"
       stroke-miterlimit="10" /><path
       style="fill:none;stroke:#ffffff;stroke-width:1px;stroke-linecap:butt;stroke-linejoin:miter;stroke-opacity:1"
       d="m 118.95908,184.99493 4.16588,3.703"
       id="path13495"
       inkscape:path-effect="#path-effect13497"
       inkscape:original-d="m 118.95908,184.99493 c 1.55481,1.01353 2.58009,2.75153 4.16588,3.703"
       inkscape:connector-curvature="0"
       transform="translate(0,-40)" /><path
       style="fill:none;stroke:#fcfcfc;stroke-width:1px;stroke-linecap:butt;stroke-linejoin:miter;stroke-opacity:1;display:inline"
       d="m 95.429559,193.71242 c -1.357716,-1.76845 -2.1745,-3.94654 -2.314379,-6.17168 -0.07908,-1.25793 0.05264,-2.52083 0,-3.78015 -0.04412,-1.05558 -0.217421,-2.11583 -0.07715,-3.16298 0.132566,-0.98963 0.565315,-1.95951 1.311482,-2.62297 0.72738,-0.64676 1.724725,-0.96645 2.696345,-0.90876 0.971621,0.0577 1.909577,0.48212 2.626726,1.1402 0.795037,0.72956 1.325327,1.7609 1.379497,2.83858 0.0271,0.53885 -0.0632,1.08438 -0.2719,1.58191 -0.20869,0.49753 -0.53629,0.94599 -0.953305,1.28831 -0.533812,0.4382 -1.212682,0.69658 -1.902766,0.72418 -0.690085,0.0276 -1.387423,-0.17571 -1.954532,-0.56988"
       id="path13459"
       inkscape:path-effect="#path-effect13461"
       inkscape:original-d="m 95.429559,193.71242 c -0.963712,-1.89377 -1.928963,-4.05189 -2.314379,-6.17168 -0.212335,-1.16784 0,-2.58945 0,-3.78015 0,-1.05964 -0.07715,-2.10449 -0.07715,-3.16298 0,-1.11352 0.464688,-1.8758 1.311482,-2.62297 2.39137,-2.11003 3.247939,-1.67076 5.323071,0.23144 1.744447,1.59907 2.735527,4.16006 0.154292,5.7088 -1.029687,0.61782 -2.757295,0.3743 -3.857298,0.1543"
       inkscape:connector-curvature="0"
       transform="translate(0,-40)" /><path
       style="fill:none;stroke:#fcfcfc;stroke-width:1px;stroke-linecap:butt;stroke-linejoin:miter;stroke-opacity:1;display:inline"
       d="m 100.90692,187.30931 c -0.83197,-0.10895 -1.708059,0.19734 -2.290918,0.80093 -0.582859,0.60359 -0.85836,1.48984 -0.720416,2.31749 0.137943,0.82766 0.685987,1.57666 1.433099,1.95858 0.747115,0.38192 1.675185,0.38752 2.426845,0.0146 0.48304,-0.23963 0.88964,-0.62576 1.16823,-1.08742 0.27859,-0.46166 0.43016,-0.99677 0.45183,-1.53554 0.0237,-0.58867 -0.10722,-1.18288 -0.37606,-1.70712 -0.26884,-0.52423 -0.675,-0.97729 -1.16686,-1.30158"
       id="path13463"
       inkscape:path-effect="#path-effect13465"
       inkscape:original-d="m 100.90692,187.30931 c -3.412856,0.45419 -2.245918,5.09163 0.84861,5.09163 1.9759,0 1.62006,-0.63237 1.62006,-2.62296 0,-1.25019 -0.52287,-2.32867 -1.54292,-3.0087"
       inkscape:connector-curvature="0"
       transform="translate(0,-40)" /><path
       style="fill:none;stroke:#fcfcfc;stroke-width:1px;stroke-linecap:butt;stroke-linejoin:miter;stroke-opacity:1;display:inline"
       d="m 105.84426,191.93806 -0.30858,-7.32886"
       id="path13467"
       inkscape:path-effect="#path-effect13469"
       inkscape:original-d="m 105.84426,191.93806 c -0.12755,-2.43684 -0.30858,-4.89183 -0.30858,-7.32886"
       inkscape:connector-curvature="0"
       transform="translate(0,-40)" /><path
       style="fill:none;stroke:#fcfcfc;stroke-width:1px;stroke-linecap:butt;stroke-linejoin:miter;stroke-opacity:1;display:inline"
       d="m 106.30714,189.54654 c -0.16795,-0.36104 -0.16795,-0.79615 0,-1.15719 0.15609,-0.33555 0.44505,-0.59708 0.77146,-0.77146 0.53548,-0.28606 1.18576,-0.34921 1.76627,-0.1715 0.58051,0.1777 1.08402,0.59403 1.3676,1.13083 0.28359,0.53679 0.34373,1.18736 0.16335,1.76704 -0.18038,0.57968 -0.59903,1.08126 -1.13713,1.36237"
       id="path13475"
       inkscape:path-effect="#path-effect13477"
       inkscape:original-d="m 106.30714,189.54654 c -0.28451,-0.50225 -0.0761,-0.7003 0,-1.15719 0.0611,-0.36634 0.55171,-0.55171 0.77146,-0.77146 1.7389,-1.7389 2.16009,2.75591 2.16009,4.08874"
       inkscape:connector-curvature="0"
       transform="translate(0,-40)" /><path
       style="fill:none;stroke:#fcfcfc;stroke-width:1px;stroke-linecap:butt;stroke-linejoin:miter;stroke-opacity:1;display:inline"
       d="m 112.40167,188.3122 c 0.39658,0.44208 1.01655,0.67265 1.60563,0.59712 0.58907,-0.0755 1.13083,-0.45502 1.40306,-0.98285 0.18381,-0.35639 0.24671,-0.77472 0.17054,-1.16842 -0.0762,-0.3937 -0.29185,-0.75982 -0.60269,-1.01316 -0.31083,-0.25334 -0.71495,-0.39097 -1.11561,-0.37469 -0.40067,0.0163 -0.79399,0.18746 -1.0752,0.47333 -0.2503,0.25445 -0.4082,0.59146 -0.47717,0.94166 -0.069,0.3502 -0.0524,0.71349 0.0143,1.06414 0.21723,1.14289 0.99127,2.1664 2.0318,2.68667 1.04053,0.52027 2.32376,0.52539 3.36841,0.0134"
       id="path13491"
       inkscape:path-effect="#path-effect13493"
       inkscape:original-d="m 112.40167,188.3122 c 0.67679,-0.28271 2.51973,0.10323 3.00869,-0.38573 0.84269,-0.84268 -1.78632,-2.91957 -2.62296,-2.08294 -0.54828,0.54829 -0.46287,1.21133 -0.46287,2.0058 0,3.17251 3.06833,2.70011 5.40021,2.70011"
       inkscape:connector-curvature="0"
       transform="translate(0,-40)" /><path
       style="fill:none;stroke:#fcfcfc;stroke-width:1px;stroke-linecap:butt;stroke-linejoin:miter;stroke-opacity:1;display:inline"
       d="m 124.59073,185.30351 c -1.80044,1.41706 -3.20385,3.33325 -4.01159,5.47736 -0.88503,2.34927 -1.04851,4.96483 -0.46287,7.40602"
       id="path13499"
       inkscape:path-effect="#path-effect13501"
       inkscape:original-d="m 124.59073,185.30351 c -0.42243,1.91443 -3.5898,3.79021 -4.01159,5.47736 -0.59761,2.39046 -0.46287,4.94662 -0.46287,7.40602"
       inkscape:connector-curvature="0"
       transform="translate(0,-40)" /></g><g
     inkscape:groupmode="layer"
     id="layer3"
     inkscape:label="head"
     style="display:inline"
     transform="translate(0,40)"><path
       transform="matrix(1.5558881,0,0,1.5558881,-29.971618,-40.155109)"
       style="color:#000000;fill:#f1e8d9;fill-opacity:1;fill-rule:nonzero;stroke:#000000;stroke-width:1.92815924;stroke-linecap:round;stroke-linejoin:round;stroke-miterlimit:4;stroke-opacity:1;stroke-dashoffset:0;marker:none;visibility:visible;display:inline;overflow:visible;enable-background:accumulate"
       d="m 115.35429,79.851768 c 0,10.618039 -2.93688,17.074813 -11.19073,22.030872 -4.09481,2.45874 -10.795098,2.67472 -16.337154,2.67472 -8.046743,0 -14.142439,1.796 -19.53463,-3.05084 -5.807409,-5.220051 -10.806805,-13.417408 -10.806805,-21.654752 0,-15.885734 10.894427,-28.763666 27.607543,-28.763666 16.713116,0 30.261776,12.877932 30.261776,28.763666 z"
       id="path4421"
       inkscape:connector-curvature="0"
       sodipodi:nodetypes="sssssss" /><path
       sodipodi:type="arc"
       style="color:#000000;fill:#f1e8d9;fill-opacity:1;fill-rule:nonzero;stroke:#000000;stroke-width:3.24621773;stroke-linecap:round;stroke-linejoin:round;stroke-miterlimit:4;stroke-opacity:1;stroke-dasharray:none;stroke-dashoffset:0;marker:none;visibility:visible;display:inline;overflow:visible;enable-background:accumulate"
       id="path4683"
       sodipodi:cx="32.423977"
       sodipodi:cy="93.83033"
       sodipodi:rx="8.2945051"
       sodipodi:ry="9.3501701"
       d="m 40.718482,93.83033 a 8.2945051,9.3501701 0 1 1 -16.58901,0 8.2945051,9.3501701 0 1 1 16.58901,0 z"
       transform="matrix(0.7432725,0,0,1,36.391287,-5.9271008)" /></g><g
     inkscape:groupmode="layer"
     id="layer4"
     inkscape:label="hair"
     style="display:inline"
     transform="translate(0,40)"><path
       style="fill:#ffd521;fill-opacity:1;stroke:#000000;stroke-width:3;stroke-linecap:round;stroke-linejoin:round;stroke-miterlimit:4;stroke-opacity:1;stroke-dasharray:none;display:inline"
       d="m 97.552554,69.710574 c -4.916348,4.374404 1.912054,22.354355 -3.922719,25.405282 -10.978064,4.000199 -21.735397,5.057024 -39.147022,3.158699 -0.127343,-3.994686 -4.938918,-18.874743 -2.820797,-28.019795 2.51772,-10.870333 8.621971,-21.888972 17.654261,-28.440368 9.679706,-7.020987 26.308793,-8.455294 34.847243,-8.519879 12.96518,-0.09807 28.50589,4.25782 35.81956,15.164892 10.25938,10.476131 6.03787,19.752203 2.88,18.695176 -0.47944,-0.0124 -3.29487,7.314391 -4.84857,6.128678 -1.60329,-1.223568 -1.96309,-10.951342 -3.60273,-10.332324 -3.25327,1.228218 -5.48983,9.070009 -7.31036,8.321589 -3.38263,-1.390599 -0.18296,-9.965274 -3.00833,-9.329696 -3.44211,0.774316 -3.93316,9.880662 -6.40168,9.388362 -3.94926,-0.787607 -2.04533,-9.236334 -5.88784,-8.62684 -2.42068,0.383966 -3.32143,7.725231 -5.42538,8.66064 -2.44,1.084821 -6.07247,-4.104092 -8.825636,-1.654416 z"
       id="path4603"
       inkscape:connector-curvature="0"
       sodipodi:nodetypes="sccaasccssssssss" /></g><g
     inkscape:groupmode="layer"
     id="layer5"
     inkscape:label="mouth-open"
     style="display:inline"
     transform="translate(0,40)"><g
       style="display:inline"
       id="mouth-close-3-5"
       transform="matrix(-1,0,0,1,170.89824,4.331886)"><path
         stroke-miterlimit="10"
         d="m 28.227537,105.20987 c 10.594223,4.16641 7.925974,-1.89576 9.831638,-3.09609 8.371338,-5.272876 -13.108426,-4.925428 -13.45073,-5.082635"
         id="path3568-5-6"
         inkscape:connector-curvature="0"
         style="fill:#ffffff;fill-opacity:1;stroke:#000000;stroke-width:2.66109991;stroke-miterlimit:10"
         sodipodi:nodetypes="csc" /></g></g><g
     inkscape:groupmode="layer"
     id="layer6"
     inkscape:label="mouth-close"
     style="display:inline"
     transform="translate(0,40)"><g
       style="display:inline"
       id="mouth-close-3"
       transform="matrix(-1,0,0,1,170.58116,4.3016148)"><path
         stroke-miterlimit="10"
         d="m 27.363138,104.0829 c 10.594223,4.16641 25.639478,-0.91446 13.670875,0.0529 -10.011318,0.80919 -18.134166,-3.16778 -14.265481,-4.944598"
         id="path3568-5"
         inkscape:connector-curvature="0"
         style="fill:#ffffff;fill-opacity:1;stroke:#000000;stroke-width:2.66109991;stroke-miterlimit:10"
         sodipodi:nodetypes="csc" /></g></g><g
     inkscape:groupmode="layer"
     id="layer7"
     inkscape:label="eyes"
     style="display:inline"
     transform="translate(0,40)"><circle
       d="m 41.807999,83.438004 c 0,1.469629 -1.19137,2.661 -2.661,2.661 -1.469629,0 -2.661,-1.191371 -2.661,-2.661 0,-1.46963 1.191371,-2.661 2.661,-2.661 1.46963,0 2.661,1.19137 2.661,2.661 z"
       style="stroke:#000000;stroke-width:2.66109991;stroke-miterlimit:10"
       sodipodi:ry="2.661"
       sodipodi:rx="2.661"
       sodipodi:cy="83.438004"
       sodipodi:cx="39.146999"
       id="circle3535-9"
       r="2.661"
       cy="83.438004"
       cx="39.146999"
       stroke-miterlimit="10"
       transform="matrix(-0.84604453,0,0,0.84604453,170.43587,16.756348)" /><circle
       d="m 73.143002,83.438004 c 0,1.469629 -1.19137,2.661 -2.661,2.661 -1.469629,0 -2.661,-1.191371 -2.661,-2.661 0,-1.46963 1.191371,-2.661 2.661,-2.661 1.46963,0 2.661,1.19137 2.661,2.661 z"
       style="stroke:#000000;stroke-width:2.66109991;stroke-miterlimit:10"
       sodipodi:ry="2.661"
       sodipodi:rx="2.661"
       sodipodi:cy="83.438004"
       sodipodi:cx="70.482002"
       id="circle3537-0"
       r="2.661"
       cy="83.438004"
       cx="70.482002"
       stroke-miterlimit="10"
       transform="matrix(-0.84604453,0,0,0.84604453,183.04355,16.756348)" /></g><g
     inkscape:groupmode="layer"
     id="layer8"
     inkscape:label="eyes-dead"
     style="display:inline"
     transform="translate(0,40)"><path
       style="fill:none;stroke:#000000;stroke-width:1.98097038;stroke-linecap:round;stroke-linejoin:round;stroke-miterlimit:4;stroke-opacity:1;stroke-dasharray:none;display:inline"
       d="m 133.4271,92.719919 7.53904,-11.35326"
       id="path4984-6"
       inkscape:connector-curvature="0"
       sodipodi:nodetypes="cc" /><path
       style="fill:none;stroke:#000000;stroke-width:1.98097038;stroke-linecap:round;stroke-linejoin:round;stroke-miterlimit:4;stroke-opacity:1;stroke-dasharray:none;display:inline"
       d="M 142.84891,90.508292 131.16915,83.485693"
       id="path4984-6-8"
       inkscape:connector-curvature="0"
       sodipodi:nodetypes="cc" /><path
       style="fill:none;stroke:#000000;stroke-width:1.94259083;stroke-linecap:round;stroke-linejoin:round;stroke-miterlimit:4;stroke-opacity:1;stroke-dasharray:none;display:inline"
       d="m 116.85734,84.589679 12.50312,4.719992"
       id="path4984-6-3"
       inkscape:connector-curvature="0"
       sodipodi:nodetypes="cc" /><path
       style="fill:none;stroke:#000000;stroke-width:1.94259083;stroke-linecap:round;stroke-linejoin:round;stroke-miterlimit:4;stroke-opacity:1;stroke-dasharray:none;display:inline"
       d="m 121.03466,93.111293 4.15485,-12.702119"
       id="path4984-6-8-6"
       inkscape:connector-curvature="0"
       sodipodi:nodetypes="cc" /></g><g
     inkscape:groupmode="layer"
     id="layer10"
     inkscape:label="legs"
     style="display:inline"
     transform="translate(0,40)"><polygon
       style="fill:#ab1f58;fill-opacity:1;stroke:#000000;stroke-width:2.66109990999999990;stroke-miterlimit:10"
       id="polygon3512-6"
       points="107.951,187.223 109.674,161.671 78.472,161.671 79.811,187.223 "
       stroke-miterlimit="10"
       transform="matrix(-1,0,0,1,177.21676,4)" /><path
       style="fill:#2b2b2b;fill-opacity:1;stroke:#000000;stroke-width:2.8657999;stroke-miterlimit:10"
       inkscape:connector-curvature="0"
       id="path3514-0"
       d="m 100.18276,195.974 c -1.873,3.236 -31.033,1.13 -31.033,1.13 v -5.826 c 5.694,0.252 35.768,-3.477 31.033,4.696 z"
       stroke-miterlimit="10" /><polygon
       style="fill:#ab1f58;fill-opacity:1;stroke:#000000;stroke-width:2.66109990999999990;stroke-miterlimit:10"
       id="polygon3507-4"
       points="80.542,187.223 80.542,161.671 49.185,161.671 51.064,187.223 "
       stroke-miterlimit="10"
       transform="matrix(-1,0,0,1,177.21676,4)" /><path
       style="fill:#2b2b2b;fill-opacity:1;stroke:#000000;stroke-width:2.66109991;stroke-miterlimit:10"
       inkscape:connector-curvature="0"
       id="path3509-1"
       d="m 128.03176,195.514 c -1.769,2.957 -29.288,1.031 -29.288,1.031 v -5.322 c 5.374,0.231 33.757,-3.177 29.288,4.291 z"
       stroke-miterlimit="10" /></g></svg>