<?xml version="1.0" encoding="UTF-8" standalone="no"?>
<!-- Generator: Adobe Illustrator 16.0.0, SVG Export Plug-In . SVG Version: 6.00 Build 0)  -->

<svg
   xmlns:dc="http://purl.org/dc/elements/1.1/"
   xmlns:cc="http://creativecommons.org/ns#"
   xmlns:rdf="http://www.w3.org/1999/02/22-rdf-syntax-ns#"
   xmlns:svg="http://www.w3.org/2000/svg"
   xmlns="http://www.w3.org/2000/svg"
   xmlns:xlink="http://www.w3.org/1999/xlink"
   xmlns:sodipodi="http://sodipodi.sourceforge.net/DTD/sodipodi-0.dtd"
   xmlns:inkscape="http://www.inkscape.org/namespaces/inkscape"
   version="1.1"
   x="0px"
   y="0px"
   width="200"
   height="240"
   viewBox="0 0 200 240"
   enable-background="new 0 0 150 200"
   xml:space="preserve"
   id="svg3501"
   inkscape:version="0.48.2 r9819"
   sodipodi:docname="char-duce.svg"><metadata
     id="metadata3577"><rdf:RDF><cc:Work
         rdf:about=""><dc:format>image/svg+xml</dc:format><dc:type
           rdf:resource="http://purl.org/dc/dcmitype/StillImage" /><dc:title /></cc:Work></rdf:RDF></metadata><defs
     id="defs3575"><inkscape:path-effect
       effect="spiro"
       id="path-effect13501"
       is_visible="true" /><inkscape:path-effect
       effect="spiro"
       id="path-effect13497"
       is_visible="true" /><inkscape:path-effect
       effect="spiro"
       id="path-effect13493"
       is_visible="true" /><inkscape:path-effect
       effect="spiro"
       id="path-effect13477"
       is_visible="true" /><inkscape:path-effect
       effect="spiro"
       id="path-effect13469"
       is_visible="true" /><inkscape:path-effect
       effect="spiro"
       id="path-effect13465"
       is_visible="true" /><inkscape:path-effect
       effect="spiro"
       id="path-effect13461"
       is_visible="true" /></defs><sodipodi:namedview
     pagecolor="#ffffff"
     bordercolor="#666666"
     borderopacity="1"
     objecttolerance="10"
     gridtolerance="10"
     guidetolerance="10"
     inkscape:pageopacity="0"
     inkscape:pageshadow="2"
     inkscape:window-width="1240"
     inkscape:window-height="975"
     id="namedview3573"
     showgrid="false"
     inkscape:zoom="2.3157613"
     inkscape:cx="155.43118"
     inkscape:cy="72.368679"
     inkscape:window-x="0"
     inkscape:window-y="0"
     inkscape:window-maximized="0"
     inkscape:current-layer="layer8"
     showguides="true"
     inkscape:guide-bbox="true" /><g
     id="Layer_1"
     display="none"
     style="display:none"
     transform="translate(0,40)">
	
		<image
   sodipodi:absref="/Users/max/work/keyfight/graphics/characters/../../../tmp/inspiration/bighead1.jpg"
   xlink:href="../../../tmp/inspiration/bighead1.jpg"
   style="display:inline;overflow:visible"
   display="inline"
   overflow="visible"
   width="128"
   height="232"
   transform="translate(11.5,-20.3335)"
   id="image3504">
	</image>
</g><g
     id="eyes-hit"
     display="none"
     style="display:none"
     transform="translate(0,40)">
	<g
   display="inline"
   id="g3540"
   style="display:inline">
		<g
   id="g3542">
			<path
   d="m 32.18,91.841 c 5.342,-4.599 10.684,-9.198 16.025,-13.796 1.303,-1.122 -0.588,-2.995 -1.882,-1.882 -5.342,4.599 -10.684,9.198 -16.025,13.796 -1.302,1.122 0.589,2.996 1.882,1.882 l 0,0 z"
   id="path3544"
   inkscape:connector-curvature="0" />
		</g>
	</g>
	<g
   display="inline"
   id="g3546"
   style="display:inline">
		<g
   id="g3548">
			<path
   d="M 48.454,89.953 C 43.032,85.354 37.609,80.755 32.187,76.157 c -1.31,-1.111 -3.216,0.776 -1.896,1.896 5.422,4.599 10.845,9.198 16.267,13.796 1.311,1.11 3.217,-0.777 1.896,-1.896 l 0,0 z"
   id="path3550"
   inkscape:connector-curvature="0" />
		</g>
	</g>
	<g
   display="inline"
   id="g3552"
   style="display:inline">
		<g
   id="g3554">
			<path
   d="m 63.289,91.277 c 5.342,-4.599 10.684,-9.197 16.025,-13.796 1.303,-1.122 -0.588,-2.995 -1.881,-1.882 -5.342,4.599 -10.684,9.197 -16.026,13.796 -1.303,1.122 0.589,2.996 1.882,1.882 l 0,0 z"
   id="path3556"
   inkscape:connector-curvature="0" />
		</g>
	</g>
	<g
   display="inline"
   id="g3558"
   style="display:inline">
		<g
   id="g3560">
			<path
   d="M 79.564,89.389 C 74.141,84.79 68.719,80.192 63.296,75.593 c -1.31,-1.111 -3.216,0.776 -1.896,1.896 5.422,4.599 10.845,9.197 16.267,13.796 1.311,1.111 3.217,-0.777 1.897,-1.896 l 0,0 z"
   id="path3562"
   inkscape:connector-curvature="0" />
		</g>
	</g>
</g><g
     id="mouth-open"
     display="none"
     style="display:none"
     transform="translate(0,40)">
	<path
   display="inline"
   stroke-miterlimit="10"
   d="m 28.396,106.623 c 5.983,-0.047 23.021,10.672 24.602,1.321 1.411,-8.349 -7.78,-9.425 -15.469,-9.13 -7.688,0.295 -9.133,-0.024 -9.133,-0.024"
   id="path3565"
   inkscape:connector-curvature="0"
   style="fill:#ffffff;stroke:#000000;stroke-width:2.66109991;stroke-miterlimit:10;display:inline" />
</g><g
     id="mouth-hit"
     display="none"
     style="display:none"
     transform="translate(0,40)">
	<path
   display="inline"
   stroke-miterlimit="10"
   d="m 27.503,103.144 c 15.18,-3.031 27.749,-1.211 39.523,3.958"
   id="path3571"
   inkscape:connector-curvature="0"
   style="fill:none;stroke:#000000;stroke-width:2.66109991;stroke-miterlimit:10;display:inline" />
</g><g
     inkscape:groupmode="layer"
     id="layer1"
     inkscape:label="torso"
     style="display:inline"
     transform="translate(0,40)"><path
       style="fill:#f1e8d9;stroke:#000000;stroke-width:2.66109991;stroke-miterlimit:10"
       inkscape:connector-curvature="0"
       id="path3517-3"
       d="m 109.42776,150.011 c -0.206,3.008 1.775,13.012 3.845,13.603 2.07,0.591 11.826,2.068 13.896,1.478 2.07,-0.59 7.413,-7.706 7.365,-15.141"
       stroke-miterlimit="10" /><path
       style="fill:#ffffff;fill-opacity:1;stroke:#000000;stroke-width:2.66109990999999990;stroke-miterlimit:10"
       inkscape:connector-curvature="0"
       id="path3519-3"
       d="m 134.53376,149.951 c -0.016,-2.382 -0.86,-7.923 -1.155,-11.175 -0.295,-3.254 -2.365,-12.124 -2.957,-13.602 -0.592,-1.479 -5.409,-6.174 -5.409,-6.174 l -14.124,4.028 c -1.138,7.513 -1.63,15.742 -1.461,26.982 0.022,1.431 25.106,-0.059 25.106,-0.059 z"
       stroke-miterlimit="10" /><g
       style="fill:#ffffff;fill-opacity:1;display:inline"
       id="torso-5"
       transform="matrix(-1,0,0,1,177.21676,4)"><path
         stroke-miterlimit="10"
         d="m 47.691908,153.50938 c 0.296,5.618 1.493092,6.94362 1.493092,6.94362 l 60.04,0 c 0,0 -1.513,-42.284 -3.461,-44.255 -1.948,-1.972 -52.077263,1.89293 -52.077263,1.89293 0,0 -6.290829,29.80145 -5.994829,35.41845 z"
         id="path3522-8"
         inkscape:connector-curvature="0"
         style="fill:#ffffff;fill-opacity:1;stroke:#000000;stroke-width:2.66109990999999990;stroke-miterlimit:10"
         sodipodi:nodetypes="sccccs" /></g><path
       style="fill:#ff940c;fill-opacity:1;stroke:none;display:inline"
       d="m 92.575158,165.32271 9.030612,11.30567 8.1805,-11.84721 15.80736,14.11923 -9.74462,24.39171 -37.198952,-0.0136 0.03883,-23.14379 z"
       id="path4900"
       inkscape:connector-curvature="0"
       sodipodi:nodetypes="cccccccc"
       transform="translate(0,-40)" /><path
       style="fill:#f1e8d9;stroke:#000000;stroke-width:2.66109991;stroke-miterlimit:10"
       inkscape:connector-curvature="0"
       id="path3525-8"
       d="m 88.98676,149.236 c 0.206,3.008 -1.774,13.012 -3.845,13.603 -2.069,0.591 -11.826,2.068 -13.896,1.478 -2.07,-0.59 -7.412,-7.705 -7.364,-15.14"
       stroke-miterlimit="10" /><path
       style="fill:#ffffff;fill-opacity:1;stroke:#000000;stroke-width:2.66109990999999990;stroke-miterlimit:10"
       inkscape:connector-curvature="0"
       id="path3527-1"
       d="m 63.88176,149.176 c 0.016,-2.383 0.859,-7.923 1.155,-11.176 0.295,-3.253 2.365,-12.124 2.956,-13.602 0.592,-1.479 5.409,-6.173 5.409,-6.173 l 14.125,4.027 c 1.137,7.514 1.63,15.743 1.46,26.982 -0.021,1.433 -25.105,-0.058 -25.105,-0.058 z"
       stroke-miterlimit="10" /></g><g
     inkscape:groupmode="layer"
     id="layer3"
     inkscape:label="head"
     style="display:inline"
     transform="translate(0,40)"><path
       transform="matrix(1.5558881,0,0,1.5558881,-29.971618,-40.155109)"
       style="color:#000000;fill:#f1e8d9;fill-opacity:1;fill-rule:nonzero;stroke:#000000;stroke-width:1.92815924;stroke-linecap:round;stroke-linejoin:round;stroke-miterlimit:4;stroke-opacity:1;stroke-dashoffset:0;marker:none;visibility:visible;display:inline;overflow:visible;enable-background:accumulate"
       d="m 115.35429,79.851768 c 0,10.618039 -3.90215,19.438515 -13.17406,22.030872 -11.631461,3.25207 -14.166757,3.66638 -19.708813,3.66638 -8.046743,0 -12.555776,-1.77399 -17.947967,-6.620828 -5.807409,-5.220051 -7.038479,-10.83908 -7.038479,-19.076424 0,-15.885734 10.894427,-28.763666 27.607543,-28.763666 16.713116,0 30.261776,12.877932 30.261776,28.763666 z"
       id="path4421"
       inkscape:connector-curvature="0"
       sodipodi:nodetypes="sssssss" /><path
       sodipodi:type="arc"
       style="color:#000000;fill:#f1e8d9;fill-opacity:1;fill-rule:nonzero;stroke:#000000;stroke-width:3.24621773;stroke-linecap:round;stroke-linejoin:round;stroke-miterlimit:4;stroke-opacity:1;stroke-dasharray:none;stroke-dashoffset:0;marker:none;visibility:visible;display:inline;overflow:visible;enable-background:accumulate"
       id="path4683"
       sodipodi:cx="32.423977"
       sodipodi:cy="93.83033"
       sodipodi:rx="8.2945051"
       sodipodi:ry="9.3501701"
       d="m 40.718482,93.83033 c 0,5.163956 -3.713576,9.35017 -8.294505,9.35017 -4.580929,0 -8.294505,-4.186214 -8.294505,-9.35017 0,-5.163956 3.713576,-9.35017 8.294505,-9.35017 4.580929,0 8.294505,4.186214 8.294505,9.35017 z"
       transform="matrix(0.7432725,0,0,1,36.391287,-5.9271008)" /></g><g
     inkscape:groupmode="layer"
     id="layer4"
     inkscape:label="hair"
     style="display:inline"
     transform="translate(0,40)"><path
       style="fill:#d8a43f;fill-opacity:1;stroke:#000000;stroke-width:3;stroke-linecap:round;stroke-linejoin:round;stroke-miterlimit:4;stroke-opacity:1;stroke-dasharray:none;display:inline"
       d="m 93.23238,68.476239 c -6.316164,1.84715 -3.951039,6.616578 -5.157054,11.519008 -10.978064,4.000199 -15.872304,1.662601 -33.283929,-0.235729 -0.127343,-3.994681 0.182564,-3.53116 5.510967,-13.824932 18.388032,-1.211677 21.434988,-1.126853 32.930016,2.541653 z"
       id="path4603"
       inkscape:connector-curvature="0"
       sodipodi:nodetypes="ccccc" /></g><g
     inkscape:groupmode="layer"
     id="layer5"
     inkscape:label="mouth-open"
     style="display:inline"
     transform="translate(0,40)"><g
       style="display:inline"
       id="mouth-close-3-5"
       transform="matrix(-1,0,0,1,170.89824,4.331886)"><path
         stroke-miterlimit="10"
         d="m 29.770456,105.51845 c 10.594223,4.16641 11.238945,-0.23265 10.678062,-0.92169 -3.023636,-3.71446 -12.367049,-3.62995 -14.976426,-4.758763"
         id="path3568-5-6"
         inkscape:connector-curvature="0"
         style="fill:#ffffff;fill-opacity:1;stroke:#000000;stroke-width:2.66109991;stroke-miterlimit:10"
         sodipodi:nodetypes="csc" /></g><path
       style="fill:#d8a43f;fill-opacity:1;stroke:#000000;stroke-width:1.97914517;stroke-linecap:round;stroke-linejoin:round;stroke-miterlimit:4;stroke-opacity:1;stroke-dasharray:none;display:inline"
       d="m 148.50678,95.021877 c 0.1533,5.847353 -1.37222,4.365056 -1.85926,7.599263 -8.16815,-0.75543 -9.85403,0.78826 -22.57508,2.93033 -0.084,-2.63535 1.35478,-5.4154 3.0185,-10.66344 9.04502,0.743558 13.8324,0.490934 21.41584,0.133847 z"
       id="path4603-9"
       inkscape:connector-curvature="0"
       sodipodi:nodetypes="ccccc" /></g><g
     inkscape:groupmode="layer"
     id="layer6"
     inkscape:label="mouth-close"
     style="display:inline"
     transform="translate(0,40)"><g
       style="display:inline"
       id="mouth-close-3"
       transform="matrix(-1,0,0,1,170.58116,4.3016148)"><path
         stroke-miterlimit="10"
         d="m 27.363138,104.0829 c 5.039714,-0.15376 14.420564,0.0724 17.881154,1.03979"
         id="path3568-5"
         inkscape:connector-curvature="0"
         style="fill:#ffffff;fill-opacity:1;stroke:#000000;stroke-width:2.66109991;stroke-miterlimit:10"
         sodipodi:nodetypes="cc" /></g><path
       style="fill:#d8a43f;fill-opacity:1;stroke:#000000;stroke-width:1.97914517;stroke-linecap:round;stroke-linejoin:round;stroke-miterlimit:4;stroke-opacity:1;stroke-dasharray:none;display:inline"
       d="m 148.50678,95.02188 c 0.1533,5.84735 -1.37222,4.365056 -1.85926,7.59926 -8.16815,-0.75543 -9.85403,0.78826 -22.57508,2.93033 -0.084,-2.63535 1.35478,-5.4154 3.0185,-10.663437 9.04502,0.743558 13.8324,0.490934 21.41584,0.133847 z"
       id="path4603-9-6"
       inkscape:connector-curvature="0"
       sodipodi:nodetypes="ccccc" /></g><g
     inkscape:groupmode="layer"
     id="layer7"
     inkscape:label="eyes"
     style="display:inline"
     transform="translate(0,40)"><circle
       d="m 41.807999,83.438004 c 0,1.469629 -1.19137,2.661 -2.661,2.661 -1.469629,0 -2.661,-1.191371 -2.661,-2.661 0,-1.46963 1.191371,-2.661 2.661,-2.661 1.46963,0 2.661,1.19137 2.661,2.661 z"
       style="stroke:#000000;stroke-width:2.66109991;stroke-miterlimit:10"
       sodipodi:ry="2.661"
       sodipodi:rx="2.661"
       sodipodi:cy="83.438004"
       sodipodi:cx="39.146999"
       id="circle3535-9"
       r="2.661"
       cy="83.438004"
       cx="39.146999"
       stroke-miterlimit="10"
       transform="matrix(-0.84604453,0,0,0.84604453,173.02681,16.756348)" /><circle
       d="m 73.143002,83.438004 c 0,1.469629 -1.19137,2.661 -2.661,2.661 -1.469629,0 -2.661,-1.191371 -2.661,-2.661 0,-1.46963 1.191371,-2.661 2.661,-2.661 1.46963,0 2.661,1.19137 2.661,2.661 z"
       style="stroke:#000000;stroke-width:2.66109991;stroke-miterlimit:10"
       sodipodi:ry="2.661"
       sodipodi:rx="2.661"
       sodipodi:cy="83.438004"
       sodipodi:cx="70.482002"
       id="circle3537-0"
       r="2.661"
       cy="83.438004"
       cx="70.482002"
       stroke-miterlimit="10"
       transform="matrix(-0.84604453,0,0,0.84604453,179.26509,16.756348)" /></g><g
     inkscape:groupmode="layer"
     id="layer8"
     inkscape:label="eyes-dead"
     style="display:inline"
     transform="translate(0,40)"><path
       style="fill:none;stroke:#000000;stroke-width:1.98097038;stroke-linecap:round;stroke-linejoin:round;stroke-miterlimit:4;stroke-opacity:1;stroke-dasharray:none;display:inline"
       d="m 134.57912,92.269952 9.97476,-9.286433"
       id="path4984-6"
       inkscape:connector-curvature="0"
       sodipodi:nodetypes="cc" /><path
       style="fill:none;stroke:#000000;stroke-width:1.98097038;stroke-linecap:round;stroke-linejoin:round;stroke-miterlimit:4;stroke-opacity:1;stroke-dasharray:none;display:inline"
       d="M 144.25693,92.312297 134.53275,82.76379"
       id="path4984-6-8"
       inkscape:connector-curvature="0"
       sodipodi:nodetypes="cc" /><path
       style="fill:none;stroke:#000000;stroke-width:1.94259083;stroke-linecap:round;stroke-linejoin:round;stroke-miterlimit:4;stroke-opacity:1;stroke-dasharray:none;display:inline"
       d="m 115.51708,81.973059 8.965,9.911369"
       id="path4984-6-3"
       inkscape:connector-curvature="0"
       sodipodi:nodetypes="cc" /><path
       style="fill:none;stroke:#000000;stroke-width:1.94259083;stroke-linecap:round;stroke-linejoin:round;stroke-miterlimit:4;stroke-opacity:1;stroke-dasharray:none;display:inline"
       d="m 115.33917,91.461802 9.4996,-9.400227"
       id="path4984-6-8-6"
       inkscape:connector-curvature="0"
       sodipodi:nodetypes="cc" /></g><g
     inkscape:groupmode="layer"
     id="layer10"
     inkscape:label="legs"
     style="display:inline"
     transform="translate(0,40)"><polygon
       style="fill:#ffffff;fill-opacity:1;stroke:#000000;stroke-width:2.66109990999999990;stroke-miterlimit:10"
       id="polygon3512-6"
       points="107.951,187.223 109.674,161.671 78.472,161.671 79.811,187.223 "
       stroke-miterlimit="10"
       transform="matrix(-1,0,0,1,177.21676,4)" /><path
       style="fill:#2b2b2b;fill-opacity:1;stroke:#000000;stroke-width:2.8657999;stroke-miterlimit:10"
       inkscape:connector-curvature="0"
       id="path3514-0"
       d="m 100.18276,195.974 c -1.873,3.236 -31.033,1.13 -31.033,1.13 v -5.826 c 5.694,0.252 35.768,-3.477 31.033,4.696 z"
       stroke-miterlimit="10" /><polygon
       style="fill:#ffffff;fill-opacity:1;stroke:#000000;stroke-width:2.66109990999999990;stroke-miterlimit:10"
       id="polygon3507-4"
       points="80.542,187.223 80.542,161.671 49.185,161.671 51.064,187.223 "
       stroke-miterlimit="10"
       transform="matrix(-1,0,0,1,177.21676,4)" /><path
       style="fill:#2b2b2b;fill-opacity:1;stroke:#000000;stroke-width:2.66109991;stroke-miterlimit:10"
       inkscape:connector-curvature="0"
       id="path3509-1"
       d="m 128.03176,195.514 c -1.769,2.957 -29.288,1.031 -29.288,1.031 v -5.322 c 5.374,0.231 33.757,-3.177 29.288,4.291 z"
       stroke-miterlimit="10" /><path
       style="fill:#ff940c;fill-opacity:1;stroke:none;display:inline"
       d="m 98.166644,167.16796 c 5.917986,-0.3727 11.482276,0.0943 17.259786,-0.36163 l 9.35237,23.21774 -15.35679,-0.3504 z"
       id="path4900-8"
       inkscape:connector-curvature="0"
       sodipodi:nodetypes="ccccc" /><path
       style="fill:#ff940c;fill-opacity:1;stroke:none;display:inline"
       d="m 95.504763,167.03186 c -5.917986,-0.3727 -11.226736,-0.0761 -17.259784,0.0643 l -7.757719,23.13355 16.638451,-0.86247 z"
       id="path4900-8-3"
       inkscape:connector-curvature="0"
       sodipodi:nodetypes="ccccc" /></g></svg>