<?xml version="1.0" encoding="UTF-8" standalone="no"?>
<!-- Generator: Adobe Illustrator 16.0.0, SVG Export Plug-In . SVG Version: 6.00 Build 0)  -->

<svg
   xmlns:dc="http://purl.org/dc/elements/1.1/"
   xmlns:cc="http://creativecommons.org/ns#"
   xmlns:rdf="http://www.w3.org/1999/02/22-rdf-syntax-ns#"
   xmlns:svg="http://www.w3.org/2000/svg"
   xmlns="http://www.w3.org/2000/svg"
   xmlns:xlink="http://www.w3.org/1999/xlink"
   xmlns:sodipodi="http://sodipodi.sourceforge.net/DTD/sodipodi-0.dtd"
   xmlns:inkscape="http://www.inkscape.org/namespaces/inkscape"
   version="1.1"
   x="0px"
   y="0px"
   width="200"
   height="240"
   viewBox="0 0 200 240"
   enable-background="new 0 0 150 200"
   xml:space="preserve"
   id="svg3501"
   inkscape:version="0.48.2 r9819"
   sodipodi:docname="char-chinese.svg"><metadata
     id="metadata3577"><rdf:RDF><cc:Work
         rdf:about=""><dc:format>image/svg+xml</dc:format><dc:type
           rdf:resource="http://purl.org/dc/dcmitype/StillImage" /><dc:title /></cc:Work></rdf:RDF></metadata><defs
     id="defs3575"><inkscape:path-effect
       effect="skeletal"
       id="path-effect4089"
       is_visible="true"
       pattern="m 0,-34.699947 10,5 0,-10 z"
       copytype="single_stretched"
       prop_scale="0.4"
       scale_y_rel="false"
       spacing="0"
       normal_offset="0"
       tang_offset="0"
       prop_units="false"
       vertical_pattern="false"
       fuse_tolerance="0" /><inkscape:path-effect
       effect="skeletal"
       id="path-effect4085"
       is_visible="true"
       pattern="M 0,0 0,10 10,5 z"
       copytype="single_stretched"
       prop_scale="1"
       scale_y_rel="false"
       spacing="0"
       normal_offset="0"
       tang_offset="0"
       prop_units="false"
       vertical_pattern="false"
       fuse_tolerance="0" /><inkscape:path-effect
       effect="spiro"
       id="path-effect3994"
       is_visible="true" /><inkscape:path-effect
       effect="spiro"
       id="path-effect3965"
       is_visible="true" /><inkscape:path-effect
       effect="skeletal"
       id="path-effect3922"
       is_visible="true"
       pattern="m -8.0103787,-36.45371 c 0,-2.76 2.24,-5 5,-5 2.75999996,0 5,2.24 5,5 0,2.76 -2.24000004,5 -5,5 -2.76,0 -5,-2.24 -5,-5 z"
       copytype="single_stretched"
       prop_scale="1"
       scale_y_rel="false"
       spacing="0"
       normal_offset="0"
       tang_offset="0"
       prop_units="false"
       vertical_pattern="false"
       fuse_tolerance="0" /><inkscape:path-effect
       effect="spiro"
       id="path-effect3920"
       is_visible="true" /><inkscape:path-effect
       effect="spiro"
       id="path-effect6643"
       is_visible="true" /><inkscape:path-effect
       effect="spiro"
       id="path-effect13501"
       is_visible="true" /><inkscape:path-effect
       effect="spiro"
       id="path-effect13497"
       is_visible="true" /><inkscape:path-effect
       effect="spiro"
       id="path-effect13493"
       is_visible="true" /><inkscape:path-effect
       effect="spiro"
       id="path-effect13477"
       is_visible="true" /><inkscape:path-effect
       effect="spiro"
       id="path-effect13469"
       is_visible="true" /><inkscape:path-effect
       effect="spiro"
       id="path-effect13465"
       is_visible="true" /><inkscape:path-effect
       effect="spiro"
       id="path-effect13461"
       is_visible="true" /><inkscape:path-effect
       effect="spiro"
       id="path-effect6643-6"
       is_visible="true" /></defs><sodipodi:namedview
     pagecolor="#ffffff"
     bordercolor="#666666"
     borderopacity="1"
     objecttolerance="10"
     gridtolerance="10"
     guidetolerance="10"
     inkscape:pageopacity="0"
     inkscape:pageshadow="2"
     inkscape:window-width="1240"
     inkscape:window-height="975"
     id="namedview3573"
     showgrid="false"
     inkscape:zoom="1.6212242"
     inkscape:cx="71.704359"
     inkscape:cy="59.98325"
     inkscape:window-x="0"
     inkscape:window-y="0"
     inkscape:window-maximized="0"
     inkscape:current-layer="layer4"
     showguides="true"
     inkscape:guide-bbox="true" /><g
     id="Layer_1"
     display="none"
     style="display:none"
     transform="translate(0,40)">
	
		<image
   sodipodi:absref="/Users/max/work/keyfight/graphics/characters/../../../tmp/inspiration/bighead1.jpg"
   xlink:href="../../../tmp/inspiration/bighead1.jpg"
   style="display:inline;overflow:visible"
   display="inline"
   overflow="visible"
   width="128"
   height="232"
   transform="translate(11.5,-20.3335)"
   id="image3504">
	</image>
</g><g
     id="eyes-hit"
     display="none"
     style="display:none"
     transform="translate(0,40)">
	<g
   display="inline"
   id="g3540"
   style="display:inline">
		<g
   id="g3542">
			<path
   d="m 32.18,91.841 c 5.342,-4.599 10.684,-9.198 16.025,-13.796 1.303,-1.122 -0.588,-2.995 -1.882,-1.882 -5.342,4.599 -10.684,9.198 -16.025,13.796 -1.302,1.122 0.589,2.996 1.882,1.882 l 0,0 z"
   id="path3544"
   inkscape:connector-curvature="0" />
		</g>
	</g>
	<g
   display="inline"
   id="g3546"
   style="display:inline">
		<g
   id="g3548">
			<path
   d="M 48.454,89.953 C 43.032,85.354 37.609,80.755 32.187,76.157 c -1.31,-1.111 -3.216,0.776 -1.896,1.896 5.422,4.599 10.845,9.198 16.267,13.796 1.311,1.11 3.217,-0.777 1.896,-1.896 l 0,0 z"
   id="path3550"
   inkscape:connector-curvature="0" />
		</g>
	</g>
	<g
   display="inline"
   id="g3552"
   style="display:inline">
		<g
   id="g3554">
			<path
   d="m 63.289,91.277 c 5.342,-4.599 10.684,-9.197 16.025,-13.796 1.303,-1.122 -0.588,-2.995 -1.881,-1.882 -5.342,4.599 -10.684,9.197 -16.026,13.796 -1.303,1.122 0.589,2.996 1.882,1.882 l 0,0 z"
   id="path3556"
   inkscape:connector-curvature="0" />
		</g>
	</g>
	<g
   display="inline"
   id="g3558"
   style="display:inline">
		<g
   id="g3560">
			<path
   d="M 79.564,89.389 C 74.141,84.79 68.719,80.192 63.296,75.593 c -1.31,-1.111 -3.216,0.776 -1.896,1.896 5.422,4.599 10.845,9.197 16.267,13.796 1.311,1.111 3.217,-0.777 1.897,-1.896 l 0,0 z"
   id="path3562"
   inkscape:connector-curvature="0" />
		</g>
	</g>
</g><g
     id="mouth-open"
     display="none"
     style="display:none"
     transform="translate(0,40)">
	<path
   display="inline"
   stroke-miterlimit="10"
   d="m 28.396,106.623 c 5.983,-0.047 23.021,10.672 24.602,1.321 1.411,-8.349 -7.78,-9.425 -15.469,-9.13 -7.688,0.295 -9.133,-0.024 -9.133,-0.024"
   id="path3565"
   inkscape:connector-curvature="0"
   style="fill:#ffffff;stroke:#000000;stroke-width:2.66109991;stroke-miterlimit:10;display:inline" />
</g><g
     id="mouth-hit"
     display="none"
     style="display:none"
     transform="translate(0,40)">
	<path
   display="inline"
   stroke-miterlimit="10"
   d="m 27.503,103.144 c 15.18,-3.031 27.749,-1.211 39.523,3.958"
   id="path3571"
   inkscape:connector-curvature="0"
   style="fill:none;stroke:#000000;stroke-width:2.66109991;stroke-miterlimit:10;display:inline" />
</g><g
     inkscape:groupmode="layer"
     id="layer1"
     inkscape:label="torso"
     style="display:inline"
     transform="translate(0,40)"><path
       style="fill:#f1e8d9;stroke:#000000;stroke-width:2.66109991;stroke-miterlimit:10"
       inkscape:connector-curvature="0"
       id="path3517-3"
       d="m 109.42776,150.011 c -0.206,3.008 1.775,13.012 3.845,13.603 2.07,0.591 11.826,2.068 13.896,1.478 2.07,-0.59 7.413,-7.706 7.365,-15.141"
       stroke-miterlimit="10" /><path
       style="fill:#e71900;fill-opacity:1;stroke:#000000;stroke-width:2.66109990999999990;stroke-miterlimit:10"
       inkscape:connector-curvature="0"
       id="path3519-3"
       d="m 134.53376,149.951 c -0.016,-2.382 -0.86,-7.923 -1.155,-11.175 -0.295,-3.254 -2.365,-12.124 -2.957,-13.602 -0.592,-1.479 -5.409,-6.174 -5.409,-6.174 l -14.124,4.028 c -1.138,7.513 -1.63,15.742 -1.461,26.982 0.022,1.431 25.106,-0.059 25.106,-0.059 z"
       stroke-miterlimit="10" /><g
       style="fill:#e71900;fill-opacity:1;display:inline"
       id="torso-5"
       transform="matrix(-1,0,0,1,177.21676,4)"><path
         stroke-miterlimit="10"
         d="m 47.691908,153.50938 c 0.296,5.618 1.493092,6.94362 1.493092,6.94362 l 60.04,0 c 0,0 -1.513,-42.284 -3.461,-44.255 -1.948,-1.972 -52.077263,1.89293 -52.077263,1.89293 0,0 -6.290829,29.80145 -5.994829,35.41845 z"
         id="path3522-8"
         inkscape:connector-curvature="0"
         style="fill:#e71900;fill-opacity:1;stroke:#000000;stroke-width:2.66109990999999990;stroke-miterlimit:10"
         sodipodi:nodetypes="sccccs" /></g><path
       style="fill:#f1e8d9;stroke:#000000;stroke-width:2.66109991;stroke-miterlimit:10"
       inkscape:connector-curvature="0"
       id="path3525-8"
       d="m 88.98676,149.236 c 0.206,3.008 -1.774,13.012 -3.845,13.603 -2.069,0.591 -11.826,2.068 -13.896,1.478 -2.07,-0.59 -7.412,-7.705 -7.364,-15.14"
       stroke-miterlimit="10" /><path
       style="fill:#e71900;fill-opacity:1;stroke:#000000;stroke-width:2.66109990999999990;stroke-miterlimit:10"
       inkscape:connector-curvature="0"
       id="path3527-1"
       d="m 63.88176,149.176 c 0.016,-2.383 0.859,-7.923 1.155,-11.176 0.295,-3.253 2.365,-12.124 2.956,-13.602 0.592,-1.479 5.409,-6.173 5.409,-6.173 l 14.125,4.027 c 1.137,7.514 1.63,15.743 1.46,26.982 -0.021,1.433 -25.105,-0.058 -25.105,-0.058 z"
       stroke-miterlimit="10" /><path
       style="color:#000000;fill:#000000;fill-opacity:1;fill-rule:nonzero;stroke:#000000;stroke-width:0.61466759;stroke-linecap:round;stroke-linejoin:round;stroke-miterlimit:4;stroke-opacity:1;stroke-dasharray:none;stroke-dashoffset:0;marker:none;visibility:visible;display:inline;overflow:visible;enable-background:accumulate"
       id="path3996-7"
       d="m 109.18736,138.90726 c 2.21909,-0.30079 4.46336,-0.29281 6.69615,-0.2919 0.0562,0.0159 -0.15274,0.87058 -0.20892,0.85469 l 0,0 c -2.17375,-0.0313 -4.36551,-0.051 -6.51321,-0.45397 -0.007,-0.002 0.0188,-0.1108 0.026,-0.10882 z"
       inkscape:connector-curvature="0" /><path
       style="color:#000000;fill:#000000;fill-opacity:1;fill-rule:nonzero;stroke:#000000;stroke-width:0.61466759;stroke-linecap:round;stroke-linejoin:round;stroke-miterlimit:4;stroke-opacity:1;stroke-dasharray:none;stroke-dashoffset:0;marker:none;visibility:visible;display:inline;overflow:visible;enable-background:accumulate"
       id="path3996-9-9"
       d="m 109.54935,139.01308 c -2.21765,0.31123 -4.46193,0.31381 -6.6947,0.32341 -0.0563,-0.0157 0.14864,-0.87128 0.2049,-0.85566 l 0,0 c 2.17387,0.0211 4.3657,0.0304 6.51526,0.42331 0.007,0.002 -0.0183,0.11089 -0.0255,0.10894 z"
       inkscape:connector-curvature="0" /><path
       style="color:#000000;fill:#000000;fill-opacity:1;fill-rule:nonzero;stroke:#000000;stroke-width:0.61466759;stroke-linecap:round;stroke-linejoin:round;stroke-miterlimit:4;stroke-opacity:1;stroke-dasharray:none;stroke-dashoffset:0;marker:none;visibility:visible;display:inline;overflow:visible;enable-background:accumulate"
       id="path3996-6"
       d="m 109.18736,145.4496 c 2.21909,-0.30079 4.46336,-0.29281 6.69615,-0.2919 0.0562,0.0159 -0.15274,0.87058 -0.20892,0.85469 l 0,0 c -2.17375,-0.0313 -4.36551,-0.051 -6.51321,-0.45397 -0.007,-0.002 0.0188,-0.1108 0.026,-0.10882 z"
       inkscape:connector-curvature="0" /><path
       style="color:#000000;fill:#000000;fill-opacity:1;fill-rule:nonzero;stroke:#000000;stroke-width:0.61466759;stroke-linecap:round;stroke-linejoin:round;stroke-miterlimit:4;stroke-opacity:1;stroke-dasharray:none;stroke-dashoffset:0;marker:none;visibility:visible;display:inline;overflow:visible;enable-background:accumulate"
       id="path3996-9-5"
       d="m 109.54935,145.55542 c -2.21765,0.31123 -4.46193,0.31381 -6.6947,0.32341 -0.0563,-0.0157 0.14864,-0.87128 0.2049,-0.85566 l 0,0 c 2.17387,0.0211 4.3657,0.0304 6.51526,0.42331 0.007,0.002 -0.0183,0.11089 -0.0255,0.10894 z"
       inkscape:connector-curvature="0" /><path
       style="color:#000000;fill:#000000;fill-opacity:1;fill-rule:nonzero;stroke:#000000;stroke-width:0.61466759;stroke-linecap:round;stroke-linejoin:round;stroke-miterlimit:4;stroke-opacity:1;stroke-dasharray:none;stroke-dashoffset:0;marker:none;visibility:visible;display:inline;overflow:visible;enable-background:accumulate"
       id="path3996-1"
       d="m 108.96928,151.99195 c 2.21909,-0.30079 4.46336,-0.29281 6.69615,-0.2919 0.0562,0.0159 -0.15274,0.87058 -0.20892,0.85469 l 0,0 c -2.17375,-0.0313 -4.36551,-0.051 -6.51321,-0.45397 -0.007,-0.002 0.0188,-0.1108 0.026,-0.10882 z"
       inkscape:connector-curvature="0" /><path
       style="color:#000000;fill:#000000;fill-opacity:1;fill-rule:nonzero;stroke:#000000;stroke-width:0.61466759;stroke-linecap:round;stroke-linejoin:round;stroke-miterlimit:4;stroke-opacity:1;stroke-dasharray:none;stroke-dashoffset:0;marker:none;visibility:visible;display:inline;overflow:visible;enable-background:accumulate"
       id="path3996-9-7"
       d="m 109.33127,152.09777 c -2.21765,0.31123 -4.46193,0.31381 -6.6947,0.32341 -0.0563,-0.0157 0.14864,-0.87128 0.2049,-0.85566 l 0,0 c 2.17387,0.0211 4.3657,0.0304 6.51526,0.42331 0.007,0.002 -0.0183,0.11089 -0.0255,0.10894 z"
       inkscape:connector-curvature="0" /><path
       style="color:#000000;fill:#000000;fill-opacity:1;fill-rule:nonzero;stroke:#000000;stroke-width:0.61466759;stroke-linecap:round;stroke-linejoin:round;stroke-miterlimit:4;stroke-opacity:1;stroke-dasharray:none;stroke-dashoffset:0;marker:none;visibility:visible;display:inline;overflow:visible;enable-background:accumulate"
       id="path3996-97"
       d="m 108.75121,158.09813 c 2.21909,-0.30079 4.46336,-0.29281 6.69615,-0.2919 0.0562,0.0159 -0.15274,0.87058 -0.20893,0.85469 l 0,0 c -2.17374,-0.0313 -4.3655,-0.051 -6.5132,-0.45397 -0.007,-0.002 0.0188,-0.1108 0.026,-0.10882 z"
       inkscape:connector-curvature="0" /><path
       style="color:#000000;fill:#000000;fill-opacity:1;fill-rule:nonzero;stroke:#000000;stroke-width:0.61466759;stroke-linecap:round;stroke-linejoin:round;stroke-miterlimit:4;stroke-opacity:1;stroke-dasharray:none;stroke-dashoffset:0;marker:none;visibility:visible;display:inline;overflow:visible;enable-background:accumulate"
       id="path3996-9-3"
       d="m 109.1132,158.20395 c -2.21765,0.31123 -4.46194,0.31381 -6.69471,0.32341 -0.0563,-0.0157 0.14864,-0.87128 0.2049,-0.85566 l 0,0 c 2.17387,0.0211 4.3657,0.0304 6.51527,0.42331 0.007,0.002 -0.0183,0.11089 -0.0255,0.10894 z"
       inkscape:connector-curvature="0" /><path
       style="color:#000000;fill:#000000;fill-opacity:1;fill-rule:nonzero;stroke:#000000;stroke-width:0.61466759;stroke-linecap:round;stroke-linejoin:round;stroke-miterlimit:4;stroke-opacity:1;stroke-dasharray:none;stroke-dashoffset:0;marker:none;visibility:visible;display:inline;overflow:visible;enable-background:accumulate"
       id="path3996-5"
       d="m 109.18736,132.80107 c 2.21909,-0.30079 4.46336,-0.29281 6.69615,-0.2919 0.0562,0.0159 -0.15274,0.87058 -0.20893,0.85469 l 0,0 c -2.17374,-0.0313 -4.36551,-0.051 -6.5132,-0.45397 -0.007,-0.002 0.0188,-0.1108 0.026,-0.10882 z"
       inkscape:connector-curvature="0" /><path
       style="color:#000000;fill:#000000;fill-opacity:1;fill-rule:nonzero;stroke:#000000;stroke-width:0.61466759;stroke-linecap:round;stroke-linejoin:round;stroke-miterlimit:4;stroke-opacity:1;stroke-dasharray:none;stroke-dashoffset:0;marker:none;visibility:visible;display:inline;overflow:visible;enable-background:accumulate"
       id="path3996-9-92"
       d="m 109.54935,132.90689 c -2.21766,0.31123 -4.46193,0.31381 -6.6947,0.32341 -0.0563,-0.0157 0.14864,-0.87128 0.2049,-0.85566 l 0,0 c 2.17387,0.0211 4.36569,0.0304 6.51526,0.42331 0.007,0.002 -0.0183,0.11089 -0.0255,0.10894 z"
       inkscape:connector-curvature="0" /></g><g
     inkscape:groupmode="layer"
     id="layer3"
     inkscape:label="head"
     style="display:inline"
     transform="translate(0,40)"><path
       sodipodi:type="arc"
       style="color:#000000;fill:#f1e8d9;fill-opacity:1;fill-rule:nonzero;stroke:#000000;stroke-width:1.92815924;stroke-linecap:round;stroke-linejoin:round;stroke-miterlimit:4;stroke-opacity:1;stroke-dasharray:none;stroke-dashoffset:0;marker:none;visibility:visible;display:inline;overflow:visible;enable-background:accumulate"
       id="path4421-5"
       sodipodi:cx="85.092514"
       sodipodi:cy="79.851768"
       sodipodi:rx="30.261774"
       sodipodi:ry="28.763666"
       d="m 115.35429,79.851768 a 30.261774,28.763666 0 1 1 -60.52355,0 30.261774,28.763666 0 1 1 60.52355,0 z"
       transform="matrix(1.5558881,0,0,1.5558881,-28.756805,-41.150978)" /><path
       sodipodi:type="arc"
       style="color:#000000;fill:#f1e8d9;fill-opacity:1;fill-rule:nonzero;stroke:#000000;stroke-width:3.24621773;stroke-linecap:round;stroke-linejoin:round;stroke-miterlimit:4;stroke-opacity:1;stroke-dasharray:none;stroke-dashoffset:0;marker:none;visibility:visible;display:inline;overflow:visible;enable-background:accumulate"
       id="path4683"
       sodipodi:cx="32.423977"
       sodipodi:cy="93.83033"
       sodipodi:rx="8.2945051"
       sodipodi:ry="9.3501701"
       d="m 40.718482,93.83033 a 8.2945051,9.3501701 0 1 1 -16.58901,0 8.2945051,9.3501701 0 1 1 16.58901,0 z"
       transform="matrix(0.7432725,0,0,1,37.363674,-4.565759)" /></g><g
     inkscape:groupmode="layer"
     id="layer4"
     inkscape:label="hair"
     style="display:inline"
     transform="translate(0,40)"><path
       style="fill:#c7a738;stroke:#000000;stroke-width:3;stroke-linecap:butt;stroke-linejoin:miter;stroke-opacity:1;display:inline;stroke-miterlimit:4;stroke-dasharray:none;fill-opacity:1"
       d="M 38.163657,106.75432 168.57432,110.24356 107.2944,58.340993 z"
       id="path4073"
       inkscape:connector-curvature="0"
       transform="translate(0,-40)"
       sodipodi:nodetypes="cccc" /><path
       style="fill:#000000;fill-opacity:1;fill-rule:evenodd;stroke:none"
       d="m 106.84739,23.002607 -50.907213,37.68494 2.480258,3.138204 z"
       id="path4087"
       inkscape:path-effect="#path-effect4089"
       inkscape:original-d="M 106.84739,23.002607 57.180306,62.256649"
       inkscape:connector-curvature="0"
       sodipodi:nodetypes="cc" /></g><g
     inkscape:groupmode="layer"
     id="layer5"
     inkscape:label="mouth-open"
     style="display:inline"
     transform="translate(0,40)"><path
       sodipodi:type="arc"
       style="color:#000000;fill:#ffffff;fill-opacity:1;fill-rule:nonzero;stroke:#000000;stroke-width:2;stroke-linecap:round;stroke-linejoin:round;stroke-miterlimit:4;stroke-opacity:1;stroke-dasharray:none;stroke-dashoffset:0;marker:none;visibility:visible;display:inline;overflow:visible;enable-background:accumulate"
       id="path3926"
       sodipodi:cx="123.05944"
       sodipodi:cy="115.93926"
       sodipodi:rx="3.7048001"
       sodipodi:ry="3.7048001"
       d="m 126.76424,115.93926 a 3.7048001,3.7048001 0 1 1 -7.4096,0 3.7048001,3.7048001 0 1 1 7.4096,0 z"
       transform="translate(10.413493,-4.3538146)" /><path
       inkscape:connector-curvature="0"
       id="path124-4"
       style="fill:#231f20;fill-opacity:1;fill-rule:evenodd;stroke:#000000;stroke-width:2;stroke-linecap:round;stroke-linejoin:round;stroke-miterlimit:4;stroke-opacity:1;stroke-dasharray:none;display:inline"
       d="m 137.10609,104.69952 c 4.61004,-2.40484 8.88923,-1.23831 11.12723,0.0556 3.75344,2.16812 3.91553,8.85976 3.42782,15.50292 -0.76248,10.37948 -2.4348,26.97097 2.31262,36.60366 0.12122,0.24577 0.0956,0.42593 0.0727,0.38552 -0.1022,-0.1678 -0.14166,-0.5267 -0.4283,-0.55379 0.18967,0.67738 0.24196,0.78767 0.7929,1.22215 0,0 -0.33085,-0.002 -0.76295,-0.50911 -0.43115,-0.50626 -1.04342,-1.36809 -1.77072,-2.78514 -0.17921,-0.34891 -0.36507,-0.7311 -0.55569,-1.14894 -5.08398,-11.12057 -0.20536,-31.07191 -0.84804,-43.60477 -0.0979,-1.89954 -0.89368,-3.50103 -2.57741,-4.52876 -2.09776,-1.27967 -5.57312,-1.67089 -10.79019,-0.63936" /><path
       inkscape:connector-curvature="0"
       id="path126-2"
       style="fill:#231f20;fill-opacity:1;fill-rule:evenodd;stroke:#000000;stroke-width:2;stroke-linecap:round;stroke-linejoin:round;stroke-miterlimit:4;stroke-opacity:1;stroke-dasharray:none;display:inline"
       d="m 137.10609,104.69952 c -4.60814,-2.40484 -8.8878,-1.23831 -11.12675,0.0556 -3.75297,2.16812 -3.91506,8.85976 -3.42687,15.50292 0.762,10.37948 2.43432,26.97097 -2.3131,36.60366 -0.12169,0.24577 -0.0965,0.42593 -0.0727,0.38552 0.10173,-0.1678 0.14166,-0.5267 0.42877,-0.55379 -0.19062,0.67738 -0.24243,0.78767 -0.79337,1.22215 0,0 0.3318,-0.002 0.76247,-0.50911 0.43116,-0.50626 1.0439,-1.36809 1.7712,-2.78514 0.17873,-0.34891 0.36507,-0.7311 0.55569,-1.14894 5.08303,-11.12057 0.20488,-31.07191 0.84804,-43.60477 0.097,-1.89954 0.89321,-3.50103 2.57741,-4.52876 2.09776,-1.27967 5.57359,-1.67089 10.78924,-0.63936" /></g><g
     inkscape:groupmode="layer"
     id="layer6"
     inkscape:label="mouth-close"
     style="display:inline"
     transform="translate(0,40)"><path
       inkscape:connector-curvature="0"
       id="path124"
       style="fill:#231f20;fill-opacity:1;fill-rule:evenodd;stroke:#000000;stroke-width:2;stroke-linecap:round;stroke-linejoin:round;stroke-miterlimit:4;stroke-opacity:1;stroke-dasharray:none;display:inline"
       d="m 137.10609,104.69952 c 4.61004,-2.40484 8.88923,-1.23831 11.12723,0.0556 3.75344,2.16812 3.91553,8.85976 3.42782,15.50292 -0.76248,10.37948 -2.4348,26.97097 2.31262,36.60366 0.12122,0.24577 0.0956,0.42593 0.0727,0.38552 -0.1022,-0.1678 -0.14166,-0.5267 -0.4283,-0.55379 0.18967,0.67738 0.24196,0.78767 0.7929,1.22215 0,0 -0.33085,-0.002 -0.76295,-0.50911 -0.43115,-0.50626 -1.04342,-1.36809 -1.77072,-2.78514 -0.17921,-0.34891 -0.36507,-0.7311 -0.55569,-1.14894 -5.08398,-11.12057 -0.20536,-31.07191 -0.84804,-43.60477 -0.0979,-1.89954 -0.89368,-3.50103 -2.57741,-4.52876 -2.09776,-1.27967 -5.57312,-1.67089 -10.79019,-0.63936" /><path
       inkscape:connector-curvature="0"
       id="path126"
       style="fill:#231f20;fill-opacity:1;fill-rule:evenodd;stroke:#000000;stroke-width:2;stroke-linecap:round;stroke-linejoin:round;stroke-miterlimit:4;stroke-opacity:1;stroke-dasharray:none;display:inline"
       d="m 137.10609,104.69952 c -4.60814,-2.40484 -8.8878,-1.23831 -11.12675,0.0556 -3.75297,2.16812 -3.91506,8.85976 -3.42687,15.50292 0.762,10.37948 2.43432,26.97097 -2.3131,36.60366 -0.12169,0.24577 -0.0965,0.42593 -0.0727,0.38552 0.10173,-0.1678 0.14166,-0.5267 0.42877,-0.55379 -0.19062,0.67738 -0.24243,0.78767 -0.79337,1.22215 0,0 0.3318,-0.002 0.76247,-0.50911 0.43116,-0.50626 1.0439,-1.36809 1.7712,-2.78514 0.17873,-0.34891 0.36507,-0.7311 0.55569,-1.14894 5.08303,-11.12057 0.20488,-31.07191 0.84804,-43.60477 0.097,-1.89954 0.89321,-3.50103 2.57741,-4.52876 2.09776,-1.27967 5.57359,-1.67089 10.78924,-0.63936" /><path
       style="fill:none;stroke:#000000;stroke-width:2;stroke-linecap:butt;stroke-linejoin:miter;stroke-miterlimit:4;stroke-opacity:1;stroke-dasharray:none"
       d="m 140.18163,150.48402 -9.61246,0.20026 -3.20415,-1.0013"
       id="path3963"
       inkscape:path-effect="#path-effect3965"
       inkscape:original-d="m 140.18163,150.48402 c -5.19398,-0.64841 -4.40774,0.20026 -9.61246,0.20026 -3.76331,0.41848 -0.31729,0.91991 -3.20415,-1.0013"
       inkscape:connector-curvature="0"
       transform="translate(0,-40)"
       sodipodi:nodetypes="ccc" /></g><g
     inkscape:groupmode="layer"
     id="layer7"
     inkscape:label="eyes"
     style="display:inline"
     transform="translate(0,40)"><path
       style="color:#000000;fill:#000000;fill-opacity:1;fill-rule:nonzero;stroke:#000000;stroke-width:0.93581736;stroke-linecap:round;stroke-linejoin:round;stroke-miterlimit:4;stroke-opacity:1;stroke-dasharray:none;stroke-dashoffset:0;marker:none;visibility:visible;display:inline;overflow:visible;enable-background:accumulate"
       id="path3886"
       d="m 101.72535,84.449456 c 0.42824,-0.0228 0.85594,-0.0605 1.28471,-0.0683 0.95081,-0.0174 7.09206,0.005 7.17767,0.007 4.20195,0.056 1.2063,-0.0726 5.41,0.28777 2.10394,0.18038 2.65072,0.12646 4.74882,0.36531 1.74129,0.32474 0.88335,0.22799 2.62463,0.55273 0.16498,0.0639 -0.73799,2.39704 -0.90296,2.33319 l 0,0 c -1.7724,-0.17182 -0.94558,0.0779 -2.71797,-0.094 -2.08173,-0.21793 -1.91571,-0.22279 -3.9972,-0.44304 -5.3958,-0.57094 -4.68916,-0.74092 -10.01043,-1.83925 -1.29236,-0.26674 -2.43887,-0.60105 -3.68167,-0.94958 -0.0107,-0.005 0.0537,-0.15587 0.0644,-0.15132 z"
       inkscape:connector-curvature="0"
       sodipodi:nodetypes="cccscccccssccc" /><path
       style="color:#000000;fill:#000000;fill-opacity:1;fill-rule:nonzero;stroke:#000000;stroke-width:0.93581736;stroke-linecap:round;stroke-linejoin:round;stroke-miterlimit:4;stroke-opacity:1;stroke-dasharray:none;stroke-dashoffset:0;marker:none;visibility:visible;display:inline;overflow:visible;enable-background:accumulate"
       id="path3886-4"
       d="m 150.2173,86.518123 c -4.14739,-0.677306 -3.353,-0.507053 -6.70406,-0.809856 -2.10309,-0.190035 -1.30546,-0.187332 -3.41308,-0.317862 -1.77124,0.01624 -0.90957,0.07052 -2.68079,0.08676 -0.1736,0.03416 0.30886,2.488982 0.48243,2.454866 l 0,0 c 1.77522,0.13976 0.69224,-0.0088 2.46746,0.130889 1.41196,0.09821 2.05037,0.01442 3.63774,0.03521 4.98828,-0.79648 3.59006,-0.767578 6.2103,-1.580006 z"
       inkscape:connector-curvature="0"
       sodipodi:nodetypes="csccccccc" /></g><g
     inkscape:groupmode="layer"
     id="layer8"
     inkscape:label="eyes-dead"
     style="display:inline"
     transform="translate(0,40)"><path
       style="color:#000000;fill:#000000;fill-opacity:1;fill-rule:nonzero;stroke:#000000;stroke-width:0.93581736;stroke-linecap:round;stroke-linejoin:round;stroke-miterlimit:4;stroke-opacity:1;stroke-dasharray:none;stroke-dashoffset:0;marker:none;visibility:visible;display:inline;overflow:visible;enable-background:accumulate"
       id="path3886-1"
       d="m 101.23468,93.281616 c 0.42824,-0.0228 3.30931,-2.459358 4.39232,-3.121392 1.27793,-0.835192 3.76637,-2.393858 5.21497,-3.155131 2.6754,-0.543715 2.73284,-1.108471 4.8648,-1.456855 2.08402,-0.340549 2.54168,-0.745852 4.63978,-0.507002 1.74129,0.32474 0.88335,0.22799 2.62463,0.55273 0.16498,0.0639 -0.73799,2.39704 -0.90296,2.33319 l 0,0 c -1.7724,-0.17182 -0.94558,0.0779 -2.71797,-0.094 -2.08173,-0.21793 -1.52256,0.178174 -3.61556,0.592831 -2.45862,0.48709 -3.70781,1.766977 -8.32033,3.449142 -1.23973,0.452124 -5.00128,1.906847 -6.24408,1.558317 0.69805,0.322117 0.0537,-0.15587 0.0644,-0.15132 z"
       inkscape:connector-curvature="0"
       sodipodi:nodetypes="cccscccccssccc" /><path
       style="color:#000000;fill:#000000;fill-opacity:1;fill-rule:nonzero;stroke:#000000;stroke-width:0.93581736;stroke-linecap:round;stroke-linejoin:round;stroke-miterlimit:4;stroke-opacity:1;stroke-dasharray:none;stroke-dashoffset:0;marker:none;visibility:visible;display:inline;overflow:visible;enable-background:accumulate"
       id="path3886-4-4"
       d="m 148.69075,91.533918 c -1.96661,-1.004423 -3.24396,-2.088119 -4.90491,-3.263234 -1.72385,-1.219611 -1.57806,-0.841566 -3.57664,-1.953447 -0.57181,-0.256358 -1.01861,-0.856312 -2.78983,-0.840072 -0.1736,0.03416 0.30886,2.488982 0.48243,2.454866 l 0,0 c 1.77522,0.13976 0.99482,-0.05205 2.79458,1.057721 1.79976,1.109767 1.23257,0.450576 2.81994,1.398197 2.58943,1.111703 3.20843,0.922527 5.17443,1.145969 z"
       inkscape:connector-curvature="0"
       sodipodi:nodetypes="cscccczcc" /></g><g
     inkscape:groupmode="layer"
     id="layer10"
     inkscape:label="legs"
     style="display:inline"
     transform="translate(0,40)"><polygon
       style="fill:#343434;fill-opacity:1;stroke:#000000;stroke-width:2.66109990999999990;stroke-miterlimit:10;stroke-opacity:1"
       id="polygon3512-6"
       points="107.951,187.223 109.674,161.671 78.472,161.671 79.811,187.223 "
       stroke-miterlimit="10"
       transform="matrix(-1,0,0,1,177.21676,4)" /><path
       style="fill:#bc0000;fill-opacity:1;stroke:#000000;stroke-width:2.86579989999999984;stroke-miterlimit:10"
       inkscape:connector-curvature="0"
       id="path3514-0"
       d="m 100.18276,195.974 c -1.873,3.236 -31.033,1.13 -31.033,1.13 v -5.826 c 5.694,0.252 35.768,-3.477 31.033,4.696 z"
       stroke-miterlimit="10" /><polygon
       style="fill:#343434;fill-opacity:1;stroke:#000000;stroke-width:2.66109990999999990;stroke-miterlimit:10"
       id="polygon3507-4"
       points="80.542,187.223 80.542,161.671 49.185,161.671 51.064,187.223 "
       stroke-miterlimit="10"
       transform="matrix(-1,0,0,1,177.21676,4)" /><path
       style="fill:#bc0000;fill-opacity:1;stroke:#000000;stroke-width:2.66109990999999990;stroke-miterlimit:10"
       inkscape:connector-curvature="0"
       id="path3509-1"
       d="m 128.03176,195.514 c -1.769,2.957 -29.288,1.031 -29.288,1.031 v -5.322 c 5.374,0.231 33.757,-3.177 29.288,4.291 z"
       stroke-miterlimit="10" /></g></svg>