<?xml version="1.0" encoding="UTF-8" standalone="no"?>
<!-- Generator: Adobe Illustrator 16.0.0, SVG Export Plug-In . SVG Version: 6.00 Build 0)  -->

<svg
   xmlns:dc="http://purl.org/dc/elements/1.1/"
   xmlns:cc="http://creativecommons.org/ns#"
   xmlns:rdf="http://www.w3.org/1999/02/22-rdf-syntax-ns#"
   xmlns:svg="http://www.w3.org/2000/svg"
   xmlns="http://www.w3.org/2000/svg"
   xmlns:xlink="http://www.w3.org/1999/xlink"
   xmlns:sodipodi="http://sodipodi.sourceforge.net/DTD/sodipodi-0.dtd"
   xmlns:inkscape="http://www.inkscape.org/namespaces/inkscape"
   version="1.1"
   x="0px"
   y="0px"
   width="200"
   height="240"
   viewBox="0 0 200 240"
   enable-background="new 0 0 150 200"
   xml:space="preserve"
   id="svg3501"
   inkscape:version="0.48.2 r9819"
   sodipodi:docname="char-base.svg"><metadata
     id="metadata3577"><rdf:RDF><cc:Work
         rdf:about=""><dc:format>image/svg+xml</dc:format><dc:type
           rdf:resource="http://purl.org/dc/dcmitype/StillImage" /><dc:title /></cc:Work></rdf:RDF></metadata><defs
     id="defs3575" /><sodipodi:namedview
     pagecolor="#ffffff"
     bordercolor="#666666"
     borderopacity="1"
     objecttolerance="10"
     gridtolerance="10"
     guidetolerance="10"
     inkscape:pageopacity="0"
     inkscape:pageshadow="2"
     inkscape:window-width="1240"
     inkscape:window-height="975"
     id="namedview3573"
     showgrid="false"
     inkscape:zoom="4.3659047"
     inkscape:cx="118.76483"
     inkscape:cy="113.15737"
     inkscape:window-x="0"
     inkscape:window-y="0"
     inkscape:window-maximized="0"
     inkscape:current-layer="layer4"
     showguides="true"
     inkscape:guide-bbox="true" /><g
     inkscape:groupmode="layer"
     id="layer123"
     inkscape:label="base"
     style="display:none"
     sodipodi:insensitive="true"
     transform="translate(0,40)"><g
       style="display:inline"
       id="leg-left"
       transform="matrix(-1,0,0,1,149.99895,0)">
	<polygon
   stroke-miterlimit="10"
   points="80.542,161.671 49.185,161.671 51.064,187.223 80.542,187.223 "
   id="polygon3507"
   style="fill:#37657a;stroke:#000000;stroke-width:2.66109991;stroke-miterlimit:10" />
	<path
   stroke-miterlimit="10"
   d="m 49.185,191.514 c 1.769,2.957 29.288,1.031 29.288,1.031 v -5.322 c -5.374,0.231 -33.757,-3.177 -29.288,4.291 z"
   id="path3509"
   inkscape:connector-curvature="0"
   style="fill:#274049;stroke:#000000;stroke-width:2.66109991;stroke-miterlimit:10" />
</g><g
       style="display:inline"
       id="leg-right"
       transform="matrix(-1,0,0,1,149.99895,0)">
	<polygon
   stroke-miterlimit="10"
   points="109.674,161.671 78.472,161.671 79.811,187.223 107.951,187.223 "
   id="polygon3512"
   style="fill:#37657a;stroke:#000000;stroke-width:2.66109991;stroke-miterlimit:10" />
	<path
   stroke-miterlimit="10"
   d="m 77.034,191.974 c 1.873,3.236 31.033,1.13 31.033,1.13 v -5.826 c -5.694,0.252 -35.768,-3.477 -31.033,4.696 z"
   id="path3514"
   inkscape:connector-curvature="0"
   style="fill:#274049;stroke:#000000;stroke-width:2.8657999;stroke-miterlimit:10" />
</g><g
       style="display:inline"
       id="arm-left"
       transform="matrix(-1,0,0,1,149.99895,0)">
	<path
   stroke-miterlimit="10"
   d="m 67.789,146.011 c 0.206,3.008 -1.775,13.012 -3.845,13.603 -2.07,0.591 -11.826,2.068 -13.896,1.478 -2.07,-0.59 -7.413,-7.706 -7.365,-15.141"
   id="path3517"
   inkscape:connector-curvature="0"
   style="fill:#f1e8d9;stroke:#000000;stroke-width:2.66109991;stroke-miterlimit:10" />
	<path
   stroke-miterlimit="10"
   d="m 42.683,145.951 c 0.016,-2.382 0.86,-7.923 1.155,-11.175 0.295,-3.254 2.365,-12.124 2.957,-13.602 0.592,-1.479 5.409,-6.174 5.409,-6.174 l 14.124,4.028 c 1.138,7.513 1.63,15.742 1.461,26.982 -0.022,1.431 -25.106,-0.059 -25.106,-0.059 z"
   id="path3519"
   inkscape:connector-curvature="0"
   style="fill:#ffffff;stroke:#000000;stroke-width:2.66109991;stroke-miterlimit:10" />
</g><g
       style="display:inline"
       id="torso"
       transform="matrix(-1,0,0,1,149.99895,0)">
	<path
   stroke-miterlimit="10"
   d="m 53.083,121.803 c 0,0 -4.179,26.391 -3.883,32.008 0.296,5.618 -0.015,6.642 -0.015,6.642 h 60.04 c 0,0 -1.513,-42.284 -3.461,-44.255 -1.948,-1.972 -52.68,3.61 -52.68,3.61"
   id="path3522"
   inkscape:connector-curvature="0"
   style="fill:#ffffff;stroke:#000000;stroke-width:2.66109991;stroke-miterlimit:10" />
</g><g
       style="display:inline"
       id="arm-right"
       transform="matrix(-1,0,0,1,149.99895,0)">
	<path
   stroke-miterlimit="10"
   d="m 88.23,145.236 c -0.206,3.008 1.774,13.012 3.845,13.603 2.069,0.591 11.826,2.068 13.896,1.478 2.07,-0.59 7.412,-7.705 7.364,-15.14"
   id="path3525"
   inkscape:connector-curvature="0"
   style="fill:#f1e8d9;stroke:#000000;stroke-width:2.66109991;stroke-miterlimit:10" />
	<path
   stroke-miterlimit="10"
   d="m 113.335,145.176 c -0.016,-2.383 -0.859,-7.923 -1.155,-11.176 -0.295,-3.253 -2.365,-12.124 -2.956,-13.602 -0.592,-1.479 -5.409,-6.173 -5.409,-6.173 l -14.125,4.027 c -1.137,7.514 -1.63,15.743 -1.46,26.982 0.021,1.433 25.105,-0.058 25.105,-0.058 z"
   id="path3527"
   inkscape:connector-curvature="0"
   style="fill:#ffffff;stroke:#000000;stroke-width:2.66109991;stroke-miterlimit:10" />
</g><g
       style="display:inline"
       id="head"
       transform="matrix(-1,0,0,1,149.99895,0)">
	<path
   stroke-miterlimit="10"
   d="M 98.272,34.651 C 92.398,30.159 66.941,31.99 66.941,31.99 c -7.244,0 -20.106,2.07 -20.106,2.07 0,0 -11.236,2.661 -14.193,6.209 -2.957,3.548 -5.027,18.924 -5.027,18.924 -0.591,18.923 0,50.562 0,50.562 0,0 17.15,9.463 22.472,10.94 5.322,1.477 19.812,1.479 28.385,0 8.574,-1.479 25.429,-5.915 29.863,-8.279 4.436,-2.365 8.28,-6.801 10.054,-6.801 1.774,0 12.419,-6.801 11.532,-10.349 -0.888,-3.548 -1.774,-11.828 -5.913,-11.828 -4.141,0 -9.76,3.253 -11.237,4.731 -1.478,1.479 0.705,-1.001 0.58,-2.07 -1.557,-13.312 -4.433,-43.307 -15.079,-51.448 z"
   id="path3530"
   inkscape:connector-curvature="0"
   style="fill:#f1e8d9;stroke:#000000;stroke-width:2.66109991;stroke-miterlimit:10" />
</g><g
       style="display:inline"
       id="hair_1_"
       transform="matrix(-1,0,0,1,149.99895,0)">
	<path
   id="hair"
   stroke-miterlimit="10"
   d="m 20.814,56.236 c 0,0 -1.774,-25.429 0,-30.751 C 22.588,20.163 30.867,9.813 42.99,8.039 55.114,6.265 86.973,5.182 102.127,7.727 c 12.419,2.086 21.88,6.521 20.697,15.392 -1.183,8.871 0.037,61.207 0.037,61.207 0,0 -14.074,14.488 -12.456,-1.479 0.168,-1.662 -2.269,9.631 -2.957,7.983 -1.354,-3.243 -2.388,-29.371 -4.015,-32.519 -0.931,-1.803 0.873,-6.664 -0.124,-8.285 -1.598,-2.597 -5.618,10.94 -10.123,6.505 -2.143,-2.109 6.71,-12.715 4.209,-15.967 -1.485,-1.93 -6.184,5.882 -8.618,5.871 C 85.15,46.417 85.825,38.399 82.611,36.721 76.577,33.57 62.17,34.752 55.408,35.538 49.457,36.23 36.572,37.798 32.345,42.043 29.152,45.25 27.509,59.488 27.509,59.488 l -6.695,-3.252 z"
   inkscape:connector-curvature="0"
   style="fill:#6d4a21;stroke:#000000;stroke-width:2.66109991;stroke-miterlimit:10" />
</g><g
       style="display:inline"
       id="eyes"
       transform="matrix(-1,0,0,1,149.99895,0)">
	<circle
   stroke-miterlimit="10"
   cx="39.146999"
   cy="83.438004"
   r="2.661"
   id="circle3535"
   sodipodi:cx="39.146999"
   sodipodi:cy="83.438004"
   sodipodi:rx="2.661"
   sodipodi:ry="2.661"
   style="stroke:#000000;stroke-width:2.66109991;stroke-miterlimit:10"
   d="m 41.807999,83.438004 c 0,1.469629 -1.19137,2.661 -2.661,2.661 -1.469629,0 -2.661,-1.191371 -2.661,-2.661 0,-1.46963 1.191371,-2.661 2.661,-2.661 1.46963,0 2.661,1.19137 2.661,2.661 z" />
	<circle
   stroke-miterlimit="10"
   cx="70.482002"
   cy="83.438004"
   r="2.661"
   id="circle3537"
   sodipodi:cx="70.482002"
   sodipodi:cy="83.438004"
   sodipodi:rx="2.661"
   sodipodi:ry="2.661"
   style="stroke:#000000;stroke-width:2.66109991;stroke-miterlimit:10"
   d="m 73.143002,83.438004 c 0,1.469629 -1.19137,2.661 -2.661,2.661 -1.469629,0 -2.661,-1.191371 -2.661,-2.661 0,-1.46963 1.191371,-2.661 2.661,-2.661 1.46963,0 2.661,1.19137 2.661,2.661 z" />
</g><g
       style="display:inline"
       id="mouth-close"
       transform="matrix(-1,0,0,1,149.99895,0)">
	<path
   stroke-miterlimit="10"
   d="m 27.503,103.251 c 15.783,6.207 46.028,4.137 51.16,2.955"
   id="path3568"
   inkscape:connector-curvature="0"
   style="fill:none;stroke:#000000;stroke-width:2.66109991;stroke-miterlimit:10" />
</g></g><g
     inkscape:groupmode="layer"
     id="g4953"
     inkscape:label="hidden"
     style="display:none"
     sodipodi:insensitive="true"
     transform="translate(0,40)" /><g
     id="Layer_1"
     display="none"
     style="display:none"
     transform="translate(0,40)">
	
		<image
   sodipodi:absref="/Users/max/work/keyfight/graphics/characters/../../../tmp/inspiration/bighead1.jpg"
   xlink:href="../../../tmp/inspiration/bighead1.jpg"
   id="image3504"
   transform="translate(11.5,-20.3335)"
   height="232"
   width="128"
   overflow="visible"
   display="inline"
   style="display:inline;overflow:visible">
	</image>
</g><g
     id="eyes-hit"
     display="none"
     style="display:none"
     transform="translate(0,40)">
	<g
   display="inline"
   id="g3540"
   style="display:inline">
		<g
   id="g3542">
			<path
   d="m 32.18,91.841 c 5.342,-4.599 10.684,-9.198 16.025,-13.796 1.303,-1.122 -0.588,-2.995 -1.882,-1.882 -5.342,4.599 -10.684,9.198 -16.025,13.796 -1.302,1.122 0.589,2.996 1.882,1.882 l 0,0 z"
   id="path3544"
   inkscape:connector-curvature="0" />
		</g>
	</g>
	<g
   display="inline"
   id="g3546"
   style="display:inline">
		<g
   id="g3548">
			<path
   d="M 48.454,89.953 C 43.032,85.354 37.609,80.755 32.187,76.157 c -1.31,-1.111 -3.216,0.776 -1.896,1.896 5.422,4.599 10.845,9.198 16.267,13.796 1.311,1.11 3.217,-0.777 1.896,-1.896 l 0,0 z"
   id="path3550"
   inkscape:connector-curvature="0" />
		</g>
	</g>
	<g
   display="inline"
   id="g3552"
   style="display:inline">
		<g
   id="g3554">
			<path
   d="m 63.289,91.277 c 5.342,-4.599 10.684,-9.197 16.025,-13.796 1.303,-1.122 -0.588,-2.995 -1.881,-1.882 -5.342,4.599 -10.684,9.197 -16.026,13.796 -1.303,1.122 0.589,2.996 1.882,1.882 l 0,0 z"
   id="path3556"
   inkscape:connector-curvature="0" />
		</g>
	</g>
	<g
   display="inline"
   id="g3558"
   style="display:inline">
		<g
   id="g3560">
			<path
   d="M 79.564,89.389 C 74.141,84.79 68.719,80.192 63.296,75.593 c -1.31,-1.111 -3.216,0.776 -1.896,1.896 5.422,4.599 10.845,9.197 16.267,13.796 1.311,1.111 3.217,-0.777 1.897,-1.896 l 0,0 z"
   id="path3562"
   inkscape:connector-curvature="0" />
		</g>
	</g>
</g><g
     id="mouth-open"
     display="none"
     style="display:none"
     transform="translate(0,40)">
	<path
   display="inline"
   stroke-miterlimit="10"
   d="m 28.396,106.623 c 5.983,-0.047 23.021,10.672 24.602,1.321 1.411,-8.349 -7.78,-9.425 -15.469,-9.13 -7.688,0.295 -9.133,-0.024 -9.133,-0.024"
   id="path3565"
   inkscape:connector-curvature="0"
   style="fill:#ffffff;stroke:#000000;stroke-width:2.66109991;stroke-miterlimit:10;display:inline" />
</g><g
     id="mouth-hit"
     display="none"
     style="display:none"
     transform="translate(0,40)">
	<path
   display="inline"
   stroke-miterlimit="10"
   d="m 27.503,103.144 c 15.18,-3.031 27.749,-1.211 39.523,3.958"
   id="path3571"
   inkscape:connector-curvature="0"
   style="fill:none;stroke:#000000;stroke-width:2.66109991;stroke-miterlimit:10;display:inline" />
</g><g
     inkscape:groupmode="layer"
     id="layer321"
     inkscape:label="new"
     style="display:none"
     transform="translate(0,40)" /><g
     inkscape:groupmode="layer"
     id="layer1"
     inkscape:label="torso"
     style="display:inline"
     transform="translate(0,40)"><g
       style="display:inline"
       id="arm-left-2"
       transform="matrix(-1,0,0,1,177.21676,4)"><path
         stroke-miterlimit="10"
         d="m 67.789,146.011 c 0.206,3.008 -1.775,13.012 -3.845,13.603 -2.07,0.591 -11.826,2.068 -13.896,1.478 -2.07,-0.59 -7.413,-7.706 -7.365,-15.141"
         id="path3517-3"
         inkscape:connector-curvature="0"
         style="fill:#f1e8d9;stroke:#000000;stroke-width:2.66109991;stroke-miterlimit:10" /><path
         stroke-miterlimit="10"
         d="m 42.683,145.951 c 0.016,-2.382 0.86,-7.923 1.155,-11.175 0.295,-3.254 2.365,-12.124 2.957,-13.602 0.592,-1.479 5.409,-6.174 5.409,-6.174 l 14.124,4.028 c 1.138,7.513 1.63,15.742 1.461,26.982 -0.022,1.431 -25.106,-0.059 -25.106,-0.059 z"
         id="path3519-3"
         inkscape:connector-curvature="0"
         style="fill:#ffffff;stroke:#000000;stroke-width:2.66109991;stroke-miterlimit:10" /></g><g
       style="display:inline"
       id="torso-5"
       transform="matrix(-1,0,0,1,177.21676,4)"><path
         stroke-miterlimit="10"
         d="m 47.691908,153.50938 c 0.296,5.618 1.493092,6.94362 1.493092,6.94362 l 60.04,0 c 0,0 -1.513,-42.284 -3.461,-44.255 -1.948,-1.972 -52.077263,1.89293 -52.077263,1.89293 0,0 -6.290829,29.80145 -5.994829,35.41845 z"
         id="path3522-8"
         inkscape:connector-curvature="0"
         style="fill:#ffffff;stroke:#000000;stroke-width:2.66109991;stroke-miterlimit:10"
         sodipodi:nodetypes="sccccs" /></g><g
       style="display:inline"
       id="arm-right-1"
       transform="matrix(-1,0,0,1,177.21676,4)"><path
         stroke-miterlimit="10"
         d="m 88.23,145.236 c -0.206,3.008 1.774,13.012 3.845,13.603 2.069,0.591 11.826,2.068 13.896,1.478 2.07,-0.59 7.412,-7.705 7.364,-15.14"
         id="path3525-8"
         inkscape:connector-curvature="0"
         style="fill:#f1e8d9;stroke:#000000;stroke-width:2.66109991;stroke-miterlimit:10" /><path
         stroke-miterlimit="10"
         d="m 113.335,145.176 c -0.016,-2.383 -0.859,-7.923 -1.155,-11.176 -0.295,-3.253 -2.365,-12.124 -2.956,-13.602 -0.592,-1.479 -5.409,-6.173 -5.409,-6.173 l -14.125,4.027 c -1.137,7.514 -1.63,15.743 -1.46,26.982 0.021,1.433 25.105,-0.058 25.105,-0.058 z"
         id="path3527-1"
         inkscape:connector-curvature="0"
         style="fill:#ffffff;stroke:#000000;stroke-width:2.66109991;stroke-miterlimit:10" /></g></g><g
     inkscape:groupmode="layer"
     id="layer3"
     inkscape:label="head"
     style="display:inline"
     transform="translate(0,40)"><path
       sodipodi:type="arc"
       style="color:#000000;fill:#f1e8d9;fill-opacity:1;fill-rule:nonzero;stroke:#000000;stroke-width:1.92815924;stroke-linecap:round;stroke-linejoin:round;stroke-miterlimit:4;stroke-opacity:1;stroke-dasharray:none;stroke-dashoffset:0;marker:none;visibility:visible;display:inline;overflow:visible;enable-background:accumulate"
       id="path4421"
       sodipodi:cx="85.092514"
       sodipodi:cy="79.851768"
       sodipodi:rx="30.261774"
       sodipodi:ry="28.763666"
       d="m 115.35429,79.851768 a 30.261774,28.763666 0 1 1 -60.52355,0 30.261774,28.763666 0 1 1 60.52355,0 z"
       transform="matrix(1.5558881,0,0,1.5558881,-29.971618,-40.155109)" /><path
       sodipodi:type="arc"
       style="color:#000000;fill:#f1e8d9;fill-opacity:1;fill-rule:nonzero;stroke:#000000;stroke-width:3.24621773;stroke-linecap:round;stroke-linejoin:round;stroke-miterlimit:4;stroke-opacity:1;stroke-dasharray:none;stroke-dashoffset:0;marker:none;visibility:visible;display:inline;overflow:visible;enable-background:accumulate"
       id="path4683"
       sodipodi:cx="32.423977"
       sodipodi:cy="93.83033"
       sodipodi:rx="8.2945051"
       sodipodi:ry="9.3501701"
       d="m 40.718482,93.83033 a 8.2945051,9.3501701 0 1 1 -16.58901,0 8.2945051,9.3501701 0 1 1 16.58901,0 z"
       transform="matrix(0.7432725,0,0,1,33.638163,-5.6517884)" /></g><g
     inkscape:groupmode="layer"
     id="layer4"
     inkscape:label="hair"
     style="display:inline"
     transform="translate(0,40)"><path
       style="fill:#6d4a21;fill-opacity:1;stroke:#000000;stroke-width:3;stroke-linecap:round;stroke-linejoin:round;stroke-miterlimit:4;stroke-opacity:1;stroke-dasharray:none;display:inline"
       d="M 61.727531,59.265481 C 65.924842,50.874109 70.207374,43.402866 78.297155,36.511571 90.823146,25.841282 105.76835,14.563228 103.92092,6.2497983 c 0,0 7.05148,11.4400737 14.36515,22.3471457 5.99243,8.936668 12.62674,12.688603 19.19246,20.468778 9.03477,10.705925 11.38562,26.696268 11.38562,26.696268 0,0 -7.16865,-11.119794 -13.59495,-13.319127 -2.17196,-0.743331 -0.22676,6.005788 -2.41257,5.95123 -2.92929,-0.07312 -2.26591,-5.202968 -5.31958,-4.93835 -2.2546,0.195374 1.8447,5.52962 -0.8681,6.237743 -1.47493,0.385 -4.8324,-5.818026 -6.38858,-5.347621 -9.0144,2.724889 -23.226305,10.118377 -31.271989,8.603227 -16.757471,-3.155739 -33.603736,5.420579 -33.460629,6.42233 0,0 3.04321,-13.835234 6.179779,-20.105941 z"
       id="path4603"
       inkscape:connector-curvature="0"
       sodipodi:nodetypes="ascsscssssssca" /></g><g
     inkscape:groupmode="layer"
     id="layer5"
     inkscape:label="mouth-open"
     style="display:inline"
     transform="translate(0,40)"><g
       style="display:inline"
       id="mouth-close-3-4"
       transform="matrix(-1,0,0,1,169.91985,-1.4226545)"><path
         stroke-miterlimit="10"
         d="m 26.587016,105.8681 c 20.362919,1.75793 27.473476,7.37499 7.181642,10.21418"
         id="path3568-5-4"
         inkscape:connector-curvature="0"
         style="fill:#ffffff;fill-opacity:1;stroke:#000000;stroke-width:2.66109991;stroke-miterlimit:10"
         sodipodi:nodetypes="cc" /></g></g><g
     inkscape:groupmode="layer"
     id="layer6"
     inkscape:label="mouth-close"
     style="display:inline"
     transform="translate(0,40)"><g
       style="display:inline"
       id="mouth-close-3"
       transform="matrix(-1,0,0,1,170.58116,4.3016148)"><path
         stroke-miterlimit="10"
         d="m 27.503,103.251 c 15.783,6.207 40.297251,6.85157 52.064855,1.44691"
         id="path3568-5"
         inkscape:connector-curvature="0"
         style="fill:none;stroke:#000000;stroke-width:2.66109991;stroke-miterlimit:10"
         sodipodi:nodetypes="cc" /></g></g><g
     inkscape:groupmode="layer"
     id="layer7"
     inkscape:label="eyes"
     style="display:inline"
     transform="translate(0,40)"><g
       style="display:inline"
       id="eyes-2"
       transform="matrix(-1,0,0,1,177.21676,3.9999964)"><circle
         stroke-miterlimit="10"
         cx="39.146999"
         cy="83.438004"
         r="2.661"
         id="circle3535-9"
         sodipodi:cx="39.146999"
         sodipodi:cy="83.438004"
         sodipodi:rx="2.661"
         sodipodi:ry="2.661"
         style="stroke:#000000;stroke-width:2.66109991;stroke-miterlimit:10"
         d="m 41.807999,83.438004 c 0,1.469629 -1.19137,2.661 -2.661,2.661 -1.469629,0 -2.661,-1.191371 -2.661,-2.661 0,-1.46963 1.191371,-2.661 2.661,-2.661 1.46963,0 2.661,1.19137 2.661,2.661 z" /><circle
         stroke-miterlimit="10"
         cx="70.482002"
         cy="83.438004"
         r="2.661"
         id="circle3537-0"
         sodipodi:cx="70.482002"
         sodipodi:cy="83.438004"
         sodipodi:rx="2.661"
         sodipodi:ry="2.661"
         style="stroke:#000000;stroke-width:2.66109991;stroke-miterlimit:10"
         d="m 73.143002,83.438004 c 0,1.469629 -1.19137,2.661 -2.661,2.661 -1.469629,0 -2.661,-1.191371 -2.661,-2.661 0,-1.46963 1.191371,-2.661 2.661,-2.661 1.46963,0 2.661,1.19137 2.661,2.661 z" /></g></g><g
     inkscape:groupmode="layer"
     id="layer8"
     inkscape:label="eyes-dead"
     style="display:inline"
     transform="translate(0,40)"><path
       style="fill:none;stroke:#000000;stroke-width:3;stroke-linecap:round;stroke-linejoin:round;stroke-miterlimit:4;stroke-opacity:1;stroke-dasharray:none;display:inline"
       d="M 130.59314,94.596421 145.51059,80.333244"
       id="path4984-6"
       inkscape:connector-curvature="0"
       sodipodi:nodetypes="cc" /><path
       style="fill:none;stroke:#000000;stroke-width:3;stroke-linecap:round;stroke-linejoin:round;stroke-miterlimit:4;stroke-opacity:1;stroke-dasharray:none;display:inline"
       d="M 145.24888,94.465565 130.33143,80.202389"
       id="path4984-6-8"
       inkscape:connector-curvature="0"
       sodipodi:nodetypes="cc" /><path
       style="fill:none;stroke:#000000;stroke-width:3;stroke-linecap:round;stroke-linejoin:round;stroke-miterlimit:4;stroke-opacity:1;stroke-dasharray:none;display:inline"
       d="M 99.842249,94.269283 114.7597,80.006106"
       id="path4984-6-3"
       inkscape:connector-curvature="0"
       sodipodi:nodetypes="cc" /><path
       style="fill:none;stroke:#000000;stroke-width:3;stroke-linecap:round;stroke-linejoin:round;stroke-miterlimit:4;stroke-opacity:1;stroke-dasharray:none;display:inline"
       d="M 114.49799,94.138427 99.580539,79.875251"
       id="path4984-6-8-6"
       inkscape:connector-curvature="0"
       sodipodi:nodetypes="cc" /></g><g
     inkscape:groupmode="layer"
     id="layer10"
     inkscape:label="legs"
     style="display:inline"
     transform="translate(0,40)"><g
       style="display:inline"
       id="leg-right-6"
       transform="matrix(-1,0,0,1,177.21676,4)"><polygon
         stroke-miterlimit="10"
         points="78.472,161.671 79.811,187.223 107.951,187.223 109.674,161.671 "
         id="polygon3512-6"
         style="fill:#37657a;stroke:#000000;stroke-width:2.66109991;stroke-miterlimit:10" /><path
         stroke-miterlimit="10"
         d="m 77.034,191.974 c 1.873,3.236 31.033,1.13 31.033,1.13 v -5.826 c -5.694,0.252 -35.768,-3.477 -31.033,4.696 z"
         id="path3514-0"
         inkscape:connector-curvature="0"
         style="fill:#274049;stroke:#000000;stroke-width:2.8657999;stroke-miterlimit:10" /></g><g
       style="display:inline"
       id="leg-left-9"
       transform="matrix(-1,0,0,1,177.21676,4)"><polygon
         stroke-miterlimit="10"
         points="49.185,161.671 51.064,187.223 80.542,187.223 80.542,161.671 "
         id="polygon3507-4"
         style="fill:#37657a;stroke:#000000;stroke-width:2.66109991;stroke-miterlimit:10" /><path
         stroke-miterlimit="10"
         d="m 49.185,191.514 c 1.769,2.957 29.288,1.031 29.288,1.031 v -5.322 c -5.374,0.231 -33.757,-3.177 -29.288,4.291 z"
         id="path3509-1"
         inkscape:connector-curvature="0"
         style="fill:#274049;stroke:#000000;stroke-width:2.66109991;stroke-miterlimit:10" /></g></g></svg>